<svg xmlns="http://www.w3.org/2000/svg" version="1.1" xmlns:xlink="http://www.w3.org/1999/xlink" xmlns:svgjs="http://svgjs.com/svgjs" width="300" height="150" preserveAspectRatio="none" viewBox="0 0 300 150"><g mask="url(&quot;#SvgjsMask1002&quot;)" fill="none"><rect width="300" height="150" x="0" y="0" fill="rgba(127, 255, 211, 1)"></rect><g mask="url(&quot;#SvgjsMask1003&quot;)"><path d="M105 35L215 35L265 85L265 115" stroke-width="1.67" stroke="rgba(53, 45, 133, 0.32)"></path><path d="M102.5 35 a2.5 2.5 0 1 0 5 0 a2.5 2.5 0 1 0 -5 0zM262.5 115 a2.5 2.5 0 1 0 5 0 a2.5 2.5 0 1 0 -5 0z" fill="rgba(53, 45, 133, 0.32)"></path><path d="M275 55L225 5L145 5L125 25L85 25" stroke-width="1.67" stroke="rgba(53, 45, 133, 0.32)"></path><path d="M272.5 55 a2.5 2.5 0 1 0 5 0 a2.5 2.5 0 1 0 -5 0zM82.5 25 a2.5 2.5 0 1 0 5 0 a2.5 2.5 0 1 0 -5 0z" fill="rgba(53, 45, 133, 0.32)"></path><path d="M125 115L125 75L145 55L225 55L255 85L255 105" stroke-width="1.67" stroke="rgba(53, 45, 133, 0.32)"></path><path d="M122.5 115 a2.5 2.5 0 1 0 5 0 a2.5 2.5 0 1 0 -5 0zM252.5 105 a2.5 2.5 0 1 0 5 0 a2.5 2.5 0 1 0 -5 0z" fill="rgba(53, 45, 133, 0.32)"></path><path d="M105 55L85 75L55 75L25 45L25 25L45 5L115 5" stroke-width="1.67" stroke="rgba(53, 45, 133, 0.32)"></path><path d="M102.5 55 a2.5 2.5 0 1 0 5 0 a2.5 2.5 0 1 0 -5 0zM112.5 5 a2.5 2.5 0 1 0 5 0 a2.5 2.5 0 1 0 -5 0z" fill="rgba(53, 45, 133, 0.32)"></path><path d="M5 95L35 65" stroke-width="1.67" stroke="rgba(53, 45, 133, 0.32)"></path><path d="M2.5 95 a2.5 2.5 0 1 0 5 0 a2.5 2.5 0 1 0 -5 0zM32.5 65 a2.5 2.5 0 1 0 5 0 a2.5 2.5 0 1 0 -5 0z" fill="rgba(53, 45, 133, 0.32)"></path><path d="M295 55L295 5" stroke-width="1.67" stroke="rgba(53, 45, 133, 0.32)"></path><path d="M292.5 55 a2.5 2.5 0 1 0 5 0 a2.5 2.5 0 1 0 -5 0zM292.5 5 a2.5 2.5 0 1 0 5 0 a2.5 2.5 0 1 0 -5 0z" fill="rgba(53, 45, 133, 0.32)"></path><path d="M115 95L115 45" stroke-width="1.67" stroke="rgba(53, 45, 133, 0.32)"></path><path d="M112.5 95 a2.5 2.5 0 1 0 5 0 a2.5 2.5 0 1 0 -5 0zM112.5 45 a2.5 2.5 0 1 0 5 0 a2.5 2.5 0 1 0 -5 0z" fill="rgba(53, 45, 133, 0.32)"></path><path d="M185 145L265 145L295 115L295 65L265 35" stroke-width="1.67" stroke="rgba(53, 45, 133, 0.32)"></path><path d="M182.5 145 a2.5 2.5 0 1 0 5 0 a2.5 2.5 0 1 0 -5 0zM262.5 35 a2.5 2.5 0 1 0 5 0 a2.5 2.5 0 1 0 -5 0z" fill="rgba(53, 45, 133, 0.32)"></path><path d="M225 25L225 35L285 95L285 115L265 135L255 135L225 105L225 65" stroke-width="1.67" stroke="rgba(53, 45, 133, 0.32)"></path><path d="M222.5 25 a2.5 2.5 0 1 0 5 0 a2.5 2.5 0 1 0 -5 0zM222.5 65 a2.5 2.5 0 1 0 5 0 a2.5 2.5 0 1 0 -5 0z" fill="rgba(53, 45, 133, 0.32)"></path><path d="M25 125L5 105" stroke-width="1.67" stroke="rgba(53, 45, 133, 0.32)"></path><path d="M22.5 125 a2.5 2.5 0 1 0 5 0 a2.5 2.5 0 1 0 -5 0zM2.5 105 a2.5 2.5 0 1 0 5 0 a2.5 2.5 0 1 0 -5 0z" fill="rgba(53, 45, 133, 0.32)"></path><path d="M185 75L115 145L35 145L25 135L15 135L5 145" stroke-width="1.67" stroke="rgba(53, 45, 133, 0.32)"></path><path d="M182.5 75 a2.5 2.5 0 1 0 5 0 a2.5 2.5 0 1 0 -5 0zM2.5 145 a2.5 2.5 0 1 0 5 0 a2.5 2.5 0 1 0 -5 0z" fill="rgba(53, 45, 133, 0.32)"></path><path d="M175 125L155 145L125 145" stroke-width="1.67" stroke="rgba(53, 45, 133, 0.32)"></path><path d="M172.5 125 a2.5 2.5 0 1 0 5 0 a2.5 2.5 0 1 0 -5 0zM122.5 145 a2.5 2.5 0 1 0 5 0 a2.5 2.5 0 1 0 -5 0z" fill="rgba(53, 45, 133, 0.32)"></path><path d="M5 65L25 65" stroke-width="1.67" stroke="rgba(53, 45, 133, 0.32)"></path><path d="M2.5 65 a2.5 2.5 0 1 0 5 0 a2.5 2.5 0 1 0 -5 0zM22.5 65 a2.5 2.5 0 1 0 5 0 a2.5 2.5 0 1 0 -5 0z" fill="rgba(53, 45, 133, 0.32)"></path><path d="M205 85L195 85L145 135L135 135" stroke-width="1.67" stroke="rgba(53, 45, 133, 0.32)"></path><path d="M202.5 85 a2.5 2.5 0 1 0 5 0 a2.5 2.5 0 1 0 -5 0zM132.5 135 a2.5 2.5 0 1 0 5 0 a2.5 2.5 0 1 0 -5 0z" fill="rgba(53, 45, 133, 0.32)"></path><path d="M65 25L65 65" stroke-width="1.67" stroke="rgba(53, 45, 133, 0.32)"></path><path d="M62.5 25 a2.5 2.5 0 1 0 5 0 a2.5 2.5 0 1 0 -5 0zM62.5 65 a2.5 2.5 0 1 0 5 0 a2.5 2.5 0 1 0 -5 0z" fill="rgba(53, 45, 133, 0.32)"></path><path d="M65 15L95 45L105 45" stroke-width="1.67" stroke="rgba(53, 45, 133, 0.32)"></path><path d="M62.5 15 a2.5 2.5 0 1 0 5 0 a2.5 2.5 0 1 0 -5 0zM102.5 45 a2.5 2.5 0 1 0 5 0 a2.5 2.5 0 1 0 -5 0z" fill="rgba(53, 45, 133, 0.32)"></path><path d="M95 115L95 135" stroke-width="1.67" stroke="rgba(53, 45, 133, 0.32)"></path><path d="M92.5 115 a2.5 2.5 0 1 0 5 0 a2.5 2.5 0 1 0 -5 0zM92.5 135 a2.5 2.5 0 1 0 5 0 a2.5 2.5 0 1 0 -5 0z" fill="rgba(53, 45, 133, 0.32)"></path><path d="M215 125L235 125L245 135" stroke-width="1.67" stroke="rgba(53, 45, 133, 0.32)"></path><path d="M212.5 125 a2.5 2.5 0 1 0 5 0 a2.5 2.5 0 1 0 -5 0zM242.5 135 a2.5 2.5 0 1 0 5 0 a2.5 2.5 0 1 0 -5 0z" fill="rgba(53, 45, 133, 0.32)"></path><path d="M205 105L205 95L215 85L215 65" stroke-width="1.67" stroke="rgba(53, 45, 133, 0.32)"></path><path d="M202.5 105 a2.5 2.5 0 1 0 5 0 a2.5 2.5 0 1 0 -5 0zM212.5 65 a2.5 2.5 0 1 0 5 0 a2.5 2.5 0 1 0 -5 0z" fill="rgba(53, 45, 133, 0.32)"></path><path d="M135 55L145 45L175 45" stroke-width="1.67" stroke="rgba(53, 45, 133, 0.32)"></path><path d="M132.5 55 a2.5 2.5 0 1 0 5 0 a2.5 2.5 0 1 0 -5 0zM172.5 45 a2.5 2.5 0 1 0 5 0 a2.5 2.5 0 1 0 -5 0z" fill="rgba(53, 45, 133, 0.32)"></path><path d="M45 75L35 75L25 85L25 95L55 125L55 135" stroke-width="1.67" stroke="rgba(53, 45, 133, 0.32)"></path><path d="M42.5 75 a2.5 2.5 0 1 0 5 0 a2.5 2.5 0 1 0 -5 0zM52.5 135 a2.5 2.5 0 1 0 5 0 a2.5 2.5 0 1 0 -5 0z" fill="rgba(53, 45, 133, 0.32)"></path><path d="M75 105L55 85L35 85" stroke-width="1.67" stroke="rgba(53, 45, 133, 0.32)"></path><path d="M72.5 105 a2.5 2.5 0 1 0 5 0 a2.5 2.5 0 1 0 -5 0zM32.5 85 a2.5 2.5 0 1 0 5 0 a2.5 2.5 0 1 0 -5 0z" fill="rgba(53, 45, 133, 0.32)"></path><path d="M275 145L295 125" stroke-width="1.67" stroke="rgba(53, 45, 133, 0.32)"></path><path d="M272.5 145 a2.5 2.5 0 1 0 5 0 a2.5 2.5 0 1 0 -5 0zM292.5 125 a2.5 2.5 0 1 0 5 0 a2.5 2.5 0 1 0 -5 0z" fill="rgba(53, 45, 133, 0.32)"></path><path d="M255 115L245 115L235 105L235 75" stroke-width="1.67" stroke="rgba(53, 45, 133, 0.32)"></path><path d="M252.5 115 a2.5 2.5 0 1 0 5 0 a2.5 2.5 0 1 0 -5 0zM232.5 75 a2.5 2.5 0 1 0 5 0 a2.5 2.5 0 1 0 -5 0z" fill="rgba(53, 45, 133, 0.32)"></path><path d="M45 45L55 35L55 15" stroke-width="1.67" stroke="rgba(53, 45, 133, 0.32)"></path><path d="M42.5 45 a2.5 2.5 0 1 0 5 0 a2.5 2.5 0 1 0 -5 0zM52.5 15 a2.5 2.5 0 1 0 5 0 a2.5 2.5 0 1 0 -5 0z" fill="rgba(53, 45, 133, 0.32)"></path><path d="M245 45L235 35L235 25" stroke-width="1.67" stroke="rgba(53, 45, 133, 0.32)"></path><path d="M242.5 45 a2.5 2.5 0 1 0 5 0 a2.5 2.5 0 1 0 -5 0zM232.5 25 a2.5 2.5 0 1 0 5 0 a2.5 2.5 0 1 0 -5 0z" fill="rgba(53, 45, 133, 0.32)"></path><path d="M195 45L215 45" stroke-width="1.67" stroke="rgba(53, 45, 133, 0.32)"></path><path d="M192.5 45 a2.5 2.5 0 1 0 5 0 a2.5 2.5 0 1 0 -5 0zM212.5 45 a2.5 2.5 0 1 0 5 0 a2.5 2.5 0 1 0 -5 0z" fill="rgba(53, 45, 133, 0.32)"></path><path d="M105 75L105 135" stroke-width="1.67" stroke="rgba(53, 45, 133, 0.32)"></path><path d="M102.5 75 a2.5 2.5 0 1 0 5 0 a2.5 2.5 0 1 0 -5 0zM102.5 135 a2.5 2.5 0 1 0 5 0 a2.5 2.5 0 1 0 -5 0z" fill="rgba(53, 45, 133, 0.32)"></path><path d="M185 125L195 115L195 95" stroke-width="1.67" stroke="rgba(53, 45, 133, 0.32)"></path><path d="M182.5 125 a2.5 2.5 0 1 0 5 0 a2.5 2.5 0 1 0 -5 0zM192.5 95 a2.5 2.5 0 1 0 5 0 a2.5 2.5 0 1 0 -5 0z" fill="rgba(53, 45, 133, 0.32)"></path><path d="M265 5L255 5L245 15" stroke-width="1.67" stroke="rgba(53, 45, 133, 0.32)"></path><path d="M262.5 5 a2.5 2.5 0 1 0 5 0 a2.5 2.5 0 1 0 -5 0zM242.5 15 a2.5 2.5 0 1 0 5 0 a2.5 2.5 0 1 0 -5 0z" fill="rgba(53, 45, 133, 0.32)"></path><path d="M15 35L15 45L5 55" stroke-width="1.67" stroke="rgba(53, 45, 133, 0.32)"></path><path d="M12.5 35 a2.5 2.5 0 1 0 5 0 a2.5 2.5 0 1 0 -5 0zM2.5 55 a2.5 2.5 0 1 0 5 0 a2.5 2.5 0 1 0 -5 0z" fill="rgba(53, 45, 133, 0.32)"></path><path d="M45 105L55 115L85 115L95 105L95 75" stroke-width="1.67" stroke="rgba(53, 45, 133, 0.32)"></path><path d="M42.5 105 a2.5 2.5 0 1 0 5 0 a2.5 2.5 0 1 0 -5 0zM92.5 75 a2.5 2.5 0 1 0 5 0 a2.5 2.5 0 1 0 -5 0z" fill="rgba(53, 45, 133, 0.32)"></path><path d="M275 65L265 65L255 55L255 45" stroke-width="1.67" stroke="rgba(53, 45, 133, 0.32)"></path><path d="M272.5 65 a2.5 2.5 0 1 0 5 0 a2.5 2.5 0 1 0 -5 0zM252.5 45 a2.5 2.5 0 1 0 5 0 a2.5 2.5 0 1 0 -5 0z" fill="rgba(53, 45, 133, 0.32)"></path><path d="M285 65L285 85" stroke-width="1.67" stroke="rgba(53, 45, 133, 0.32)"></path><path d="M282.5 65 a2.5 2.5 0 1 0 5 0 a2.5 2.5 0 1 0 -5 0zM282.5 85 a2.5 2.5 0 1 0 5 0 a2.5 2.5 0 1 0 -5 0z" fill="rgba(53, 45, 133, 0.32)"></path><path d="M135 105L135 85L145 75" stroke-width="1.67" stroke="rgba(53, 45, 133, 0.32)"></path><path d="M132.5 105 a2.5 2.5 0 1 0 5 0 a2.5 2.5 0 1 0 -5 0zM142.5 75 a2.5 2.5 0 1 0 5 0 a2.5 2.5 0 1 0 -5 0z" fill="rgba(53, 45, 133, 0.32)"></path><path d="M205 115L215 105L215 95" stroke-width="1.67" stroke="rgba(53, 45, 133, 0.32)"></path><path d="M202.5 115 a2.5 2.5 0 1 0 5 0 a2.5 2.5 0 1 0 -5 0zM212.5 95 a2.5 2.5 0 1 0 5 0 a2.5 2.5 0 1 0 -5 0z" fill="rgba(53, 45, 133, 0.32)"></path><path d="M15 25L35 5" stroke-width="1.67" stroke="rgba(53, 45, 133, 0.32)"></path><path d="M12.5 25 a2.5 2.5 0 1 0 5 0 a2.5 2.5 0 1 0 -5 0zM32.5 5 a2.5 2.5 0 1 0 5 0 a2.5 2.5 0 1 0 -5 0z" fill="rgba(53, 45, 133, 0.32)"></path><path d="M75 35L85 45L85 65" stroke-width="1.67" stroke="rgba(53, 45, 133, 0.32)"></path><path d="M72.5 35 a2.5 2.5 0 1 0 5 0 a2.5 2.5 0 1 0 -5 0zM82.5 65 a2.5 2.5 0 1 0 5 0 a2.5 2.5 0 1 0 -5 0z" fill="rgba(53, 45, 133, 0.32)"></path><path d="M15 5L5 15L5 45" stroke-width="1.67" stroke="rgba(53, 45, 133, 0.32)"></path><path d="M12.5 5 a2.5 2.5 0 1 0 5 0 a2.5 2.5 0 1 0 -5 0zM2.5 45 a2.5 2.5 0 1 0 5 0 a2.5 2.5 0 1 0 -5 0z" fill="rgba(53, 45, 133, 0.32)"></path><path d="M285 15L265 15L255 25" stroke-width="1.67" stroke="rgba(53, 45, 133, 0.32)"></path><path d="M282.5 15 a2.5 2.5 0 1 0 5 0 a2.5 2.5 0 1 0 -5 0zM252.5 25 a2.5 2.5 0 1 0 5 0 a2.5 2.5 0 1 0 -5 0z" fill="rgba(53, 45, 133, 0.32)"></path></g></g><defs><mask id="SvgjsMask1002"><rect width="300" height="150" fill="#ffffff"></rect></mask><mask id="SvgjsMask1003"><rect width="300" height="150" fill="white"></rect><path d="M103.75 35 a1.25 1.25 0 1 0 2.5 0 a1.25 1.25 0 1 0 -2.5 0zM263.75 115 a1.25 1.25 0 1 0 2.5 0 a1.25 1.25 0 1 0 -2.5 0z" fill="black"></path><path d="M273.75 55 a1.25 1.25 0 1 0 2.5 0 a1.25 1.25 0 1 0 -2.5 0zM83.75 25 a1.25 1.25 0 1 0 2.5 0 a1.25 1.25 0 1 0 -2.5 0z" fill="black"></path><path d="M123.75 115 a1.25 1.25 0 1 0 2.5 0 a1.25 1.25 0 1 0 -2.5 0zM253.75 105 a1.25 1.25 0 1 0 2.5 0 a1.25 1.25 0 1 0 -2.5 0z" fill="black"></path><path d="M103.75 55 a1.25 1.25 0 1 0 2.5 0 a1.25 1.25 0 1 0 -2.5 0zM113.75 5 a1.25 1.25 0 1 0 2.5 0 a1.25 1.25 0 1 0 -2.5 0z" fill="black"></path><path d="M3.75 95 a1.25 1.25 0 1 0 2.5 0 a1.25 1.25 0 1 0 -2.5 0zM33.75 65 a1.25 1.25 0 1 0 2.5 0 a1.25 1.25 0 1 0 -2.5 0z" fill="black"></path><path d="M293.75 55 a1.25 1.25 0 1 0 2.5 0 a1.25 1.25 0 1 0 -2.5 0zM293.75 5 a1.25 1.25 0 1 0 2.5 0 a1.25 1.25 0 1 0 -2.5 0z" fill="black"></path><path d="M113.75 95 a1.25 1.25 0 1 0 2.5 0 a1.25 1.25 0 1 0 -2.5 0zM113.75 45 a1.25 1.25 0 1 0 2.5 0 a1.25 1.25 0 1 0 -2.5 0z" fill="black"></path><path d="M183.75 145 a1.25 1.25 0 1 0 2.5 0 a1.25 1.25 0 1 0 -2.5 0zM263.75 35 a1.25 1.25 0 1 0 2.5 0 a1.25 1.25 0 1 0 -2.5 0z" fill="black"></path><path d="M223.75 25 a1.25 1.25 0 1 0 2.5 0 a1.25 1.25 0 1 0 -2.5 0zM223.75 65 a1.25 1.25 0 1 0 2.5 0 a1.25 1.25 0 1 0 -2.5 0z" fill="black"></path><path d="M23.75 125 a1.25 1.25 0 1 0 2.5 0 a1.25 1.25 0 1 0 -2.5 0zM3.75 105 a1.25 1.25 0 1 0 2.5 0 a1.25 1.25 0 1 0 -2.5 0z" fill="black"></path><path d="M183.75 75 a1.25 1.25 0 1 0 2.5 0 a1.25 1.25 0 1 0 -2.5 0zM3.75 145 a1.25 1.25 0 1 0 2.5 0 a1.25 1.25 0 1 0 -2.5 0z" fill="black"></path><path d="M173.75 125 a1.25 1.25 0 1 0 2.5 0 a1.25 1.25 0 1 0 -2.5 0zM123.75 145 a1.25 1.25 0 1 0 2.5 0 a1.25 1.25 0 1 0 -2.5 0z" fill="black"></path><path d="M3.75 65 a1.25 1.25 0 1 0 2.5 0 a1.25 1.25 0 1 0 -2.5 0zM23.75 65 a1.25 1.25 0 1 0 2.5 0 a1.25 1.25 0 1 0 -2.5 0z" fill="black"></path><path d="M203.75 85 a1.25 1.25 0 1 0 2.5 0 a1.25 1.25 0 1 0 -2.5 0zM133.75 135 a1.25 1.25 0 1 0 2.5 0 a1.25 1.25 0 1 0 -2.5 0z" fill="black"></path><path d="M63.75 25 a1.25 1.25 0 1 0 2.5 0 a1.25 1.25 0 1 0 -2.5 0zM63.75 65 a1.25 1.25 0 1 0 2.5 0 a1.25 1.25 0 1 0 -2.5 0z" fill="black"></path><path d="M63.75 15 a1.25 1.25 0 1 0 2.5 0 a1.25 1.25 0 1 0 -2.5 0zM103.75 45 a1.25 1.25 0 1 0 2.5 0 a1.25 1.25 0 1 0 -2.5 0z" fill="black"></path><path d="M93.75 115 a1.25 1.25 0 1 0 2.5 0 a1.25 1.25 0 1 0 -2.5 0zM93.75 135 a1.25 1.25 0 1 0 2.5 0 a1.25 1.25 0 1 0 -2.5 0z" fill="black"></path><path d="M213.75 125 a1.25 1.25 0 1 0 2.5 0 a1.25 1.25 0 1 0 -2.5 0zM243.75 135 a1.25 1.25 0 1 0 2.5 0 a1.25 1.25 0 1 0 -2.5 0z" fill="black"></path><path d="M203.75 105 a1.25 1.25 0 1 0 2.5 0 a1.25 1.25 0 1 0 -2.5 0zM213.75 65 a1.25 1.25 0 1 0 2.5 0 a1.25 1.25 0 1 0 -2.5 0z" fill="black"></path><path d="M133.75 55 a1.25 1.25 0 1 0 2.5 0 a1.25 1.25 0 1 0 -2.5 0zM173.75 45 a1.25 1.25 0 1 0 2.5 0 a1.25 1.25 0 1 0 -2.5 0z" fill="black"></path><path d="M43.75 75 a1.25 1.25 0 1 0 2.5 0 a1.25 1.25 0 1 0 -2.5 0zM53.75 135 a1.25 1.25 0 1 0 2.5 0 a1.25 1.25 0 1 0 -2.5 0z" fill="black"></path><path d="M73.75 105 a1.25 1.25 0 1 0 2.5 0 a1.25 1.25 0 1 0 -2.5 0zM33.75 85 a1.25 1.25 0 1 0 2.5 0 a1.25 1.25 0 1 0 -2.5 0z" fill="black"></path><path d="M273.75 145 a1.25 1.25 0 1 0 2.5 0 a1.25 1.25 0 1 0 -2.5 0zM293.75 125 a1.25 1.25 0 1 0 2.5 0 a1.25 1.25 0 1 0 -2.5 0z" fill="black"></path><path d="M253.75 115 a1.25 1.25 0 1 0 2.5 0 a1.25 1.25 0 1 0 -2.5 0zM233.75 75 a1.25 1.25 0 1 0 2.5 0 a1.25 1.25 0 1 0 -2.5 0z" fill="black"></path><path d="M43.75 45 a1.25 1.25 0 1 0 2.5 0 a1.25 1.25 0 1 0 -2.5 0zM53.75 15 a1.25 1.25 0 1 0 2.5 0 a1.25 1.25 0 1 0 -2.5 0z" fill="black"></path><path d="M243.75 45 a1.25 1.25 0 1 0 2.5 0 a1.25 1.25 0 1 0 -2.5 0zM233.75 25 a1.25 1.25 0 1 0 2.5 0 a1.25 1.25 0 1 0 -2.5 0z" fill="black"></path><path d="M193.75 45 a1.25 1.25 0 1 0 2.5 0 a1.25 1.25 0 1 0 -2.5 0zM213.75 45 a1.25 1.25 0 1 0 2.5 0 a1.25 1.25 0 1 0 -2.5 0z" fill="black"></path><path d="M103.75 75 a1.25 1.25 0 1 0 2.5 0 a1.25 1.25 0 1 0 -2.5 0zM103.75 135 a1.25 1.25 0 1 0 2.5 0 a1.25 1.25 0 1 0 -2.5 0z" fill="black"></path><path d="M183.75 125 a1.25 1.25 0 1 0 2.5 0 a1.25 1.25 0 1 0 -2.5 0zM193.75 95 a1.25 1.25 0 1 0 2.5 0 a1.25 1.25 0 1 0 -2.5 0z" fill="black"></path><path d="M263.75 5 a1.25 1.25 0 1 0 2.5 0 a1.25 1.25 0 1 0 -2.5 0zM243.75 15 a1.25 1.25 0 1 0 2.5 0 a1.25 1.25 0 1 0 -2.5 0z" fill="black"></path><path d="M13.75 35 a1.25 1.25 0 1 0 2.5 0 a1.25 1.25 0 1 0 -2.5 0zM3.75 55 a1.25 1.25 0 1 0 2.5 0 a1.25 1.25 0 1 0 -2.5 0z" fill="black"></path><path d="M43.75 105 a1.25 1.25 0 1 0 2.5 0 a1.25 1.25 0 1 0 -2.5 0zM93.75 75 a1.25 1.25 0 1 0 2.5 0 a1.25 1.25 0 1 0 -2.5 0z" fill="black"></path><path d="M273.75 65 a1.25 1.25 0 1 0 2.5 0 a1.25 1.25 0 1 0 -2.5 0zM253.75 45 a1.25 1.25 0 1 0 2.5 0 a1.25 1.25 0 1 0 -2.5 0z" fill="black"></path><path d="M283.75 65 a1.25 1.25 0 1 0 2.5 0 a1.25 1.25 0 1 0 -2.5 0zM283.75 85 a1.25 1.25 0 1 0 2.5 0 a1.25 1.25 0 1 0 -2.5 0z" fill="black"></path><path d="M133.75 105 a1.25 1.25 0 1 0 2.5 0 a1.25 1.25 0 1 0 -2.5 0zM143.75 75 a1.25 1.25 0 1 0 2.5 0 a1.25 1.25 0 1 0 -2.5 0z" fill="black"></path><path d="M203.75 115 a1.25 1.25 0 1 0 2.5 0 a1.25 1.25 0 1 0 -2.5 0zM213.75 95 a1.25 1.25 0 1 0 2.5 0 a1.25 1.25 0 1 0 -2.5 0z" fill="black"></path><path d="M13.75 25 a1.25 1.25 0 1 0 2.5 0 a1.25 1.25 0 1 0 -2.5 0zM33.75 5 a1.25 1.25 0 1 0 2.5 0 a1.25 1.25 0 1 0 -2.5 0z" fill="black"></path><path d="M73.75 35 a1.25 1.25 0 1 0 2.5 0 a1.25 1.25 0 1 0 -2.5 0zM83.75 65 a1.25 1.25 0 1 0 2.5 0 a1.25 1.25 0 1 0 -2.5 0z" fill="black"></path><path d="M13.75 5 a1.25 1.25 0 1 0 2.5 0 a1.25 1.25 0 1 0 -2.5 0zM3.75 45 a1.25 1.25 0 1 0 2.5 0 a1.25 1.25 0 1 0 -2.5 0z" fill="black"></path><path d="M283.75 15 a1.25 1.25 0 1 0 2.5 0 a1.25 1.25 0 1 0 -2.5 0zM253.75 25 a1.25 1.25 0 1 0 2.5 0 a1.25 1.25 0 1 0 -2.5 0z" fill="black"></path></mask></defs></svg>