<svg xmlns="http://www.w3.org/2000/svg" version="1.1" xmlns:xlink="http://www.w3.org/1999/xlink" xmlns:svgjs="http://svgjs.com/svgjs" width="1440" height="560" preserveAspectRatio="none" viewBox="0 0 1440 560"><g clip-path="url(&quot;#SvgjsClipPath1054&quot;)" fill="none"><rect width="1440" height="560" x="0" y="0" fill="rgba(127, 255, 212, 1)"></rect><circle r="93.335" cx="38.92" cy="-64.92" stroke="#365aa3" stroke-opacity="0.25" stroke-width="2"></circle><circle r="93.335" cx="306.79" cy="449.83" stroke="#365aa3" stroke-opacity="0.25" stroke-width="2"></circle><circle r="93.335" cx="658.02" cy="731.84" stroke="#365aa3" stroke-opacity="0.25" stroke-width="2"></circle><circle r="165.585" cx="1370.6" cy="276.87" stroke="#365aa3" stroke-opacity="0.25" stroke-width="2"></circle><circle r="132.81" cx="434.78" cy="164.97" stroke="#365aa3" stroke-opacity="0.25" stroke-width="2"></circle><circle r="93.765" cx="481.45" cy="469.61" stroke="#365aa3" stroke-opacity="0.25" stroke-width="2"></circle><circle r="75.94" cx="792.29" cy="100.68" stroke="#365aa3" stroke-opacity="0.25" stroke-width="2"></circle><circle r="50.22" cx="1321.46" cy="467.82" stroke="#365aa3" stroke-opacity="0.25" stroke-width="2"></circle><circle r="118.485" cx="795.75" cy="447.26" stroke="#365aa3" stroke-opacity="0.25" stroke-width="2"></circle><circle r="131.495" cx="630.26" cy="312.77" stroke="#365aa3" stroke-opacity="0.25" stroke-width="2"></circle><circle r="66.125" cx="635.74" cy="554.79" stroke="#365aa3" stroke-opacity="0.25" stroke-width="2"></circle><circle r="59.04" cx="606.84" cy="98.76" stroke="#365aa3" stroke-opacity="0.25" stroke-width="2"></circle><circle r="176.015" cx="1159.75" cy="239.58" stroke="#365aa3" stroke-opacity="0.25" stroke-width="2"></circle><circle r="184.02" cx="13.27" cy="195.13" stroke="#365aa3" stroke-opacity="0.25" stroke-width="2"></circle><circle r="95.8" cx="428.77" cy="288.79" stroke="#365aa3" stroke-opacity="0.25" stroke-width="2"></circle><circle r="124.315" cx="297.74" cy="42.24" stroke="#365aa3" stroke-opacity="0.25" stroke-width="2"></circle><circle r="67.44" cx="256.19" cy="436.33" stroke="#365aa3" stroke-opacity="0.25" stroke-width="2"></circle><circle r="110.595" cx="714.42" cy="450.96" stroke="#365aa3" stroke-opacity="0.25" stroke-width="2"></circle><circle r="145.125" cx="1356.55" cy="442.1" stroke="#365aa3" stroke-opacity="0.25" stroke-width="2"></circle><circle r="171.295" cx="1076.24" cy="528.8" stroke="#365aa3" stroke-opacity="0.25" stroke-width="2"></circle><circle r="143.09" cx="1076.39" cy="38.6" stroke="#365aa3" stroke-opacity="0.25" stroke-width="2"></circle><circle r="60.455" cx="269.78" cy="276.94" stroke="#365aa3" stroke-opacity="0.25" stroke-width="2"></circle><circle r="168.17" cx="765.83" cy="525.45" stroke="#365aa3" stroke-opacity="0.25" stroke-width="2"></circle><circle r="100.295" cx="965.02" cy="201.34" stroke="#365aa3" stroke-opacity="0.25" stroke-width="2"></circle><circle r="156.285" cx="830.52" cy="534.41" stroke="#365aa3" stroke-opacity="0.25" stroke-width="2"></circle><circle r="145.585" cx="135.98" cy="65.81" stroke="#365aa3" stroke-opacity="0.25" stroke-width="2"></circle><circle r="185.94" cx="609.58" cy="208.14" stroke="#365aa3" stroke-opacity="0.25" stroke-width="2"></circle><circle r="76.24" cx="46.26" cy="363.63" stroke="#365aa3" stroke-opacity="0.25" stroke-width="2"></circle><circle r="48.15" cx="656.13" cy="348.45" stroke="#365aa3" stroke-opacity="0.25" stroke-width="2"></circle><circle r="50.705" cx="1253.5" cy="425.12" stroke="#365aa3" stroke-opacity="0.25" stroke-width="2"></circle><circle r="99.375" cx="787.08" cy="228.75" stroke="#365aa3" stroke-opacity="0.25" stroke-width="2"></circle><circle r="117.98" cx="1350.81" cy="400.8" stroke="#365aa3" stroke-opacity="0.25" stroke-width="2"></circle><circle r="164.69" cx="462.36" cy="165.43" stroke="#365aa3" stroke-opacity="0.25" stroke-width="2"></circle><circle r="64.5" cx="1388.75" cy="138.66" stroke="#365aa3" stroke-opacity="0.25" stroke-width="2"></circle><circle r="186.095" cx="1045.71" cy="499.27" stroke="#365aa3" stroke-opacity="0.25" stroke-width="2"></circle><circle r="141.91" cx="179.96" cy="455.63" stroke="#365aa3" stroke-opacity="0.25" stroke-width="2"></circle><circle r="124.12" cx="879.38" cy="56.02" stroke="#365aa3" stroke-opacity="0.25" stroke-width="2"></circle><circle r="126.005" cx="304.34" cy="32.67" stroke="#365aa3" stroke-opacity="0.25" stroke-width="2"></circle><circle r="159.5" cx="806.17" cy="314.9" stroke="#365aa3" stroke-opacity="0.25" stroke-width="2"></circle><circle r="163.53" cx="1308.8" cy="428.62" stroke="#365aa3" stroke-opacity="0.25" stroke-width="2"></circle><circle r="136.085" cx="716.71" cy="432.56" stroke="#365aa3" stroke-opacity="0.25" stroke-width="2"></circle><circle r="104.375" cx="36.69" cy="383.38" stroke="#365aa3" stroke-opacity="0.25" stroke-width="2"></circle><circle r="139.385" cx="582.44" cy="41.13" stroke="#365aa3" stroke-opacity="0.25" stroke-width="2"></circle><circle r="186.52" cx="990.82" cy="122.66" stroke="#365aa3" stroke-opacity="0.25" stroke-width="2"></circle><circle r="167.84" cx="838.98" cy="166.16" stroke="#365aa3" stroke-opacity="0.25" stroke-width="2"></circle><circle r="112.095" cx="1317.05" cy="162.54" stroke="#365aa3" stroke-opacity="0.25" stroke-width="2"></circle><circle r="155.97" cx="306.72" cy="425.83" stroke="#365aa3" stroke-opacity="0.25" stroke-width="2"></circle><circle r="165.185" cx="586.29" cy="77.07" stroke="#365aa3" stroke-opacity="0.25" stroke-width="2"></circle><circle r="154.46" cx="79.74" cy="407.26" stroke="#365aa3" stroke-opacity="0.25" stroke-width="2"></circle><circle r="163.245" cx="107.76" cy="554.82" stroke="#365aa3" stroke-opacity="0.25" stroke-width="2"></circle><circle r="80.725" cx="1089.99" cy="95.93" stroke="#365aa3" stroke-opacity="0.25" stroke-width="2"></circle><circle r="68.985" cx="292.58" cy="555.91" stroke="#365aa3" stroke-opacity="0.25" stroke-width="2"></circle><circle r="79.945" cx="1156.75" cy="513.15" stroke="#365aa3" stroke-opacity="0.25" stroke-width="2"></circle><circle r="65.14" cx="754.77" cy="536.94" stroke="#365aa3" stroke-opacity="0.25" stroke-width="2"></circle><circle r="65.195" cx="120.31" cy="543.48" stroke="#365aa3" stroke-opacity="0.25" stroke-width="2"></circle><circle r="68.47" cx="50.05" cy="166.87" stroke="#365aa3" stroke-opacity="0.25" stroke-width="2"></circle><circle r="110.13" cx="737.64" cy="6.57" stroke="#365aa3" stroke-opacity="0.25" stroke-width="2"></circle><circle r="104.915" cx="577.93" cy="67.72" stroke="#365aa3" stroke-opacity="0.25" stroke-width="2"></circle><circle r="136.125" cx="1127.59" cy="348.55" stroke="#365aa3" stroke-opacity="0.25" stroke-width="2"></circle><circle r="125.635" cx="147.64" cy="435.89" stroke="#365aa3" stroke-opacity="0.25" stroke-width="2"></circle><circle r="95.215" cx="327.72" cy="63.43" stroke="#365aa3" stroke-opacity="0.25" stroke-width="2"></circle></g><defs><clipPath id="SvgjsClipPath1054"><rect width="1440" height="560" x="0" y="0"></rect></clipPath></defs></svg>