<svg xmlns="http://www.w3.org/2000/svg" version="1.1" xmlns:xlink="http://www.w3.org/1999/xlink" xmlns:svgjs="http://svgjs.com/svgjs" width="300" height="150" preserveAspectRatio="none" viewBox="0 0 300 150"><g mask="url(&quot;#SvgjsMask1016&quot;)" fill="none"><rect width="300" height="150" x="0" y="0" fill="rgba(127, 255, 211, 1)"></rect><path d="M0,82.387C15.048,80.555,23.415,64.354,36.863,57.359C52.281,49.339,75.597,53.536,84.34,38.517C92.921,23.777,80.056,5.692,76.67,-11.024C73.506,-26.644,74.805,-43.769,65.109,-56.417C55.193,-69.351,39.398,-76.383,23.573,-80.282C8.193,-84.071,-8.724,-85.105,-22.935,-78.108C-36.378,-71.489,-40.451,-54.871,-50.538,-43.791C-60.977,-32.324,-76.793,-26.098,-83.155,-11.956C-90.496,4.361,-96.485,24.409,-88.401,40.371C-80.319,56.33,-59.277,59.417,-43.12,67.096C-29.061,73.778,-15.452,84.268,0,82.387" fill="#27ffb5"></path><path d="M300 219.494C315.659 219.874 332.123 228.846 345.994 221.56799999999998 359.98 214.23000000000002 365.379 197.16899999999998 370.81399999999996 182.34 375.924 168.399 379.66200000000003 153.487 376.243 139.038 372.961 125.168 363.05899999999997 114.061 352.414 104.583 342.731 95.962 330.762 91.251 318.352 87.49799999999999 305.851 83.718 292.537 78.317 280.257 82.763 268.131 87.15299999999999 262.969 100.84899999999999 254.53300000000002 110.60300000000001 246.107 120.346 235.982 128.281 230.724 140.04 224.16500000000002 154.709 215.95499999999998 170.858 220.731 186.201 225.58499999999998 201.792 240.365 213.04500000000002 255.42000000000002 219.368 269.404 225.24099999999999 284.837 219.126 300 219.494" fill="#d7fff1"></path></g><defs><mask id="SvgjsMask1016"><rect width="300" height="150" fill="#ffffff"></rect></mask></defs></svg>