<svg xmlns="http://www.w3.org/2000/svg" version="1.1" xmlns:xlink="http://www.w3.org/1999/xlink" xmlns:svgjs="http://svgjs.com/svgjs" width="300" height="150" preserveAspectRatio="none" viewBox="0 0 300 150"><g mask="url(&quot;#SvgjsMask1086&quot;)" fill="none"><rect width="300" height="150" x="0" y="0" fill="rgba(127, 255, 211, 1)"></rect><g transform="translate(-3, 0)" stroke-linecap="round"><path d="M87 57.185 L87 63.935" stroke-width="6.75" stroke="rgba(58, 124, 195, 0.36)"></path><path d="M87 74.06 L87 92.815" stroke-width="6.75" stroke="rgba(221, 17, 51, 0.43)"></path><path d="M96 49.785 L96 56.535" stroke-width="6.75" stroke="rgba(58, 124, 195, 0.36)"></path><path d="M96 66.66 L96 73.41" stroke-width="6.75" stroke="rgba(58, 124, 195, 0.36)"></path><path d="M96 83.535 L96 100.215" stroke-width="6.75" stroke="rgba(58, 124, 195, 0.36)"></path><path d="M105 49.535 L105 63.035" stroke-width="6.75" stroke="rgba(221, 17, 51, 0.43)"></path><path d="M105 73.16 L105 79.91" stroke-width="6.75" stroke="rgba(221, 17, 51, 0.43)"></path><path d="M105 90.035 L105 100.465" stroke-width="6.75" stroke="rgba(58, 124, 195, 0.36)"></path><path d="M114 72.335 L114 77.665" stroke-width="6.75" stroke="rgba(58, 124, 195, 0.36)"></path><path d="M123 47.455 L123 81.205" stroke-width="6.75" stroke="rgba(221, 17, 51, 0.43)"></path><path d="M123 91.33 L123 102.545" stroke-width="6.75" stroke="rgba(221, 17, 51, 0.43)"></path><path d="M132 45.615 L132 59.115" stroke-width="6.75" stroke="rgba(221, 17, 51, 0.43)"></path><path d="M132 69.24000000000001 L132 104.385" stroke-width="6.75" stroke="rgba(58, 124, 195, 0.36)"></path><path d="M141 73.125 L141 76.875" stroke-width="6.75" stroke="rgba(221, 17, 51, 0.43)"></path><path d="M150 46.605 L150 103.395" stroke-width="6.75" stroke="rgba(58, 124, 195, 0.36)"></path><path d="M159 57.395 L159 70.89500000000001" stroke-width="6.75" stroke="rgba(221, 17, 51, 0.43)"></path><path d="M159 81.02000000000001 L159 92.595" stroke-width="6.75" stroke="rgba(58, 124, 195, 0.36)"></path><path d="M168 48.505 L168 55.255" stroke-width="6.75" stroke="rgba(58, 124, 195, 0.36)"></path><path d="M168 65.38 L168 101.495" stroke-width="6.75" stroke="rgba(221, 17, 51, 0.43)"></path><path d="M177 61.235 L177 67.985" stroke-width="6.75" stroke="rgba(221, 17, 51, 0.43)"></path><path d="M177 78.11 L177 88.765" stroke-width="6.75" stroke="rgba(221, 17, 51, 0.43)"></path><path d="M186 73.135 L186 76.865" stroke-width="6.75" stroke="rgba(58, 124, 195, 0.36)"></path><path d="M195 56.045 L195 62.795" stroke-width="6.75" stroke="rgba(58, 124, 195, 0.36)"></path><path d="M195 72.92 L195 93.955" stroke-width="6.75" stroke="rgba(58, 124, 195, 0.36)"></path><path d="M204 64.89500000000001 L204 85.105" stroke-width="6.75" stroke="rgba(221, 17, 51, 0.43)"></path><path d="M213 53.145 L213 96.855" stroke-width="6.75" stroke="rgba(58, 124, 195, 0.36)"></path></g></g><defs><mask id="SvgjsMask1086"><rect width="300" height="150" fill="#ffffff"></rect></mask></defs></svg>