<svg xmlns="http://www.w3.org/2000/svg" version="1.1" xmlns:xlink="http://www.w3.org/1999/xlink" xmlns:svgjs="http://svgjs.com/svgjs" width="300" height="150" preserveAspectRatio="none" viewBox="0 0 300 150"><g mask="url(&quot;#SvgjsMask1018&quot;)" fill="none"><rect width="300" height="150" x="0" y="0" fill="rgba(127, 255, 211, 1)"></rect><path d="M-17.65 99.4L-17.65 99.4" stroke="rgba(19, 46, 101, 0.41)" stroke-width="1.5"></path><path d="M-17.65 99.4L19 93.18" stroke="rgba(19, 46, 101, 0.41)" stroke-width="1.5"></path><path d="M-17.65 99.4L-22.66 140.29" stroke="rgba(19, 46, 101, 0.41)" stroke-width="1.5"></path><path d="M-17.65 99.4L17.29 137.03" stroke="rgba(19, 46, 101, 0.41)" stroke-width="1.5"></path><path d="M-22.66 140.29L-22.66 140.29" stroke="rgba(19, 46, 101, 0.41)" stroke-width="1.5"></path><path d="M-22.66 140.29L-13.68 162.19" stroke="rgba(19, 46, 101, 0.41)" stroke-width="1.5"></path><path d="M-22.66 140.29L17.29 137.03" stroke="rgba(19, 46, 101, 0.41)" stroke-width="1.5"></path><path d="M-13.68 162.19L-13.68 162.19" stroke="rgba(19, 46, 101, 0.41)" stroke-width="1.5"></path><path d="M-13.68 162.19L21.63 174.41" stroke="rgba(19, 46, 101, 0.41)" stroke-width="1.5"></path><path d="M-13.68 162.19L17.29 137.03" stroke="rgba(19, 46, 101, 0.41)" stroke-width="1.5"></path><path d="M19 93.18L19 93.18" stroke="rgba(19, 46, 101, 0.41)" stroke-width="1.5"></path><path d="M19 93.18L54.09 93.35" stroke="rgba(19, 46, 101, 0.41)" stroke-width="1.5"></path><path d="M19 93.18L17.29 137.03" stroke="rgba(19, 46, 101, 0.41)" stroke-width="1.5"></path><path d="M19 93.18L48.29 128.37" stroke="rgba(19, 46, 101, 0.41)" stroke-width="1.5"></path><path d="M19 93.18L-22.66 140.29" stroke="rgba(19, 46, 101, 0.41)" stroke-width="1.5"></path><path d="M19 93.18L-13.68 162.19" stroke="rgba(19, 46, 101, 0.41)" stroke-width="1.5"></path><path d="M17.29 137.03L17.29 137.03" stroke="rgba(19, 46, 101, 0.41)" stroke-width="1.5"></path><path d="M17.29 137.03L48.29 128.37" stroke="rgba(19, 46, 101, 0.41)" stroke-width="1.5"></path><path d="M17.29 137.03L21.63 174.41" stroke="rgba(19, 46, 101, 0.41)" stroke-width="1.5"></path><path d="M21.63 174.41L21.63 174.41" stroke="rgba(19, 46, 101, 0.41)" stroke-width="1.5"></path><path d="M21.63 174.41L47.7 168.54" stroke="rgba(19, 46, 101, 0.41)" stroke-width="1.5"></path><path d="M21.63 174.41L48.29 128.37" stroke="rgba(19, 46, 101, 0.41)" stroke-width="1.5"></path><path d="M54.09 93.35L54.09 93.35" stroke="rgba(19, 46, 101, 0.41)" stroke-width="1.5"></path><path d="M54.09 93.35L48.29 128.37" stroke="rgba(19, 46, 101, 0.41)" stroke-width="1.5"></path><path d="M48.29 128.37L48.29 128.37" stroke="rgba(19, 46, 101, 0.41)" stroke-width="1.5"></path><path d="M48.29 128.37L47.7 168.54" stroke="rgba(19, 46, 101, 0.41)" stroke-width="1.5"></path><path d="M47.7 168.54L47.7 168.54" stroke="rgba(19, 46, 101, 0.41)" stroke-width="1.5"></path><path d="M102.77 98.42L102.77 98.42" stroke="rgba(19, 46, 101, 0.41)" stroke-width="1.5"></path><path d="M102.77 98.42L131.09 85.43" stroke="rgba(19, 46, 101, 0.41)" stroke-width="1.5"></path><path d="M91.39 176.14L91.39 176.14" stroke="rgba(19, 46, 101, 0.41)" stroke-width="1.5"></path><path d="M91.39 176.14L125.63 173.71" stroke="rgba(19, 46, 101, 0.41)" stroke-width="1.5"></path><path d="M91.39 176.14L47.7 168.54" stroke="rgba(19, 46, 101, 0.41)" stroke-width="1.5"></path><path d="M91.39 176.14L48.29 128.37" stroke="rgba(19, 46, 101, 0.41)" stroke-width="1.5"></path><path d="M91.39 176.14L21.63 174.41" stroke="rgba(19, 46, 101, 0.41)" stroke-width="1.5"></path><path d="M91.39 176.14L160.81 161.92" stroke="rgba(19, 46, 101, 0.41)" stroke-width="1.5"></path><path d="M91.39 176.14L102.77 98.42" stroke="rgba(19, 46, 101, 0.41)" stroke-width="1.5"></path><path d="M131.09 85.43L131.09 85.43" stroke="rgba(19, 46, 101, 0.41)" stroke-width="1.5"></path><path d="M131.09 85.43L161.19 102.78" stroke="rgba(19, 46, 101, 0.41)" stroke-width="1.5"></path><path d="M131.09 85.43L162.39 50.37" stroke="rgba(19, 46, 101, 0.41)" stroke-width="1.5"></path><path d="M125.63 173.71L125.63 173.71" stroke="rgba(19, 46, 101, 0.41)" stroke-width="1.5"></path><path d="M125.63 173.71L160.81 161.92" stroke="rgba(19, 46, 101, 0.41)" stroke-width="1.5"></path><path d="M125.63 173.71L169.27 137.94" stroke="rgba(19, 46, 101, 0.41)" stroke-width="1.5"></path><path d="M125.63 173.71L47.7 168.54" stroke="rgba(19, 46, 101, 0.41)" stroke-width="1.5"></path><path d="M125.63 173.71L102.77 98.42" stroke="rgba(19, 46, 101, 0.41)" stroke-width="1.5"></path><path d="M125.63 173.71L161.19 102.78" stroke="rgba(19, 46, 101, 0.41)" stroke-width="1.5"></path><path d="M162.39 50.37L162.39 50.37" stroke="rgba(19, 46, 101, 0.41)" stroke-width="1.5"></path><path d="M162.39 50.37L199.44 58.38" stroke="rgba(19, 46, 101, 0.41)" stroke-width="1.5"></path><path d="M162.39 50.37L161.19 102.78" stroke="rgba(19, 46, 101, 0.41)" stroke-width="1.5"></path><path d="M162.39 50.37L207.32 9.52" stroke="rgba(19, 46, 101, 0.41)" stroke-width="1.5"></path><path d="M162.39 50.37L213.65 97.07" stroke="rgba(19, 46, 101, 0.41)" stroke-width="1.5"></path><path d="M161.19 102.78L161.19 102.78" stroke="rgba(19, 46, 101, 0.41)" stroke-width="1.5"></path><path d="M161.19 102.78L169.27 137.94" stroke="rgba(19, 46, 101, 0.41)" stroke-width="1.5"></path><path d="M169.27 137.94L169.27 137.94" stroke="rgba(19, 46, 101, 0.41)" stroke-width="1.5"></path><path d="M169.27 137.94L160.81 161.92" stroke="rgba(19, 46, 101, 0.41)" stroke-width="1.5"></path><path d="M169.27 137.94L210.85 138.18" stroke="rgba(19, 46, 101, 0.41)" stroke-width="1.5"></path><path d="M169.27 137.94L212.91 161.53" stroke="rgba(19, 46, 101, 0.41)" stroke-width="1.5"></path><path d="M160.81 161.92L160.81 161.92" stroke="rgba(19, 46, 101, 0.41)" stroke-width="1.5"></path><path d="M205.47 -16.6L205.47 -16.6" stroke="rgba(19, 46, 101, 0.41)" stroke-width="1.5"></path><path d="M205.47 -16.6L207.32 9.52" stroke="rgba(19, 46, 101, 0.41)" stroke-width="1.5"></path><path d="M205.47 -16.6L250.49 -24.62" stroke="rgba(19, 46, 101, 0.41)" stroke-width="1.5"></path><path d="M205.47 -16.6L247.77 24.69" stroke="rgba(19, 46, 101, 0.41)" stroke-width="1.5"></path><path d="M205.47 -16.6L274.15 -21.63" stroke="rgba(19, 46, 101, 0.41)" stroke-width="1.5"></path><path d="M207.32 9.52L207.32 9.52" stroke="rgba(19, 46, 101, 0.41)" stroke-width="1.5"></path><path d="M207.32 9.52L247.77 24.69" stroke="rgba(19, 46, 101, 0.41)" stroke-width="1.5"></path><path d="M207.32 9.52L237.86 47.48" stroke="rgba(19, 46, 101, 0.41)" stroke-width="1.5"></path><path d="M207.32 9.52L199.44 58.38" stroke="rgba(19, 46, 101, 0.41)" stroke-width="1.5"></path><path d="M199.44 58.38L199.44 58.38" stroke="rgba(19, 46, 101, 0.41)" stroke-width="1.5"></path><path d="M199.44 58.38L237.86 47.48" stroke="rgba(19, 46, 101, 0.41)" stroke-width="1.5"></path><path d="M199.44 58.38L213.65 97.07" stroke="rgba(19, 46, 101, 0.41)" stroke-width="1.5"></path><path d="M213.65 97.07L213.65 97.07" stroke="rgba(19, 46, 101, 0.41)" stroke-width="1.5"></path><path d="M213.65 97.07L240.88 123.75" stroke="rgba(19, 46, 101, 0.41)" stroke-width="1.5"></path><path d="M213.65 97.07L252.23 90.45" stroke="rgba(19, 46, 101, 0.41)" stroke-width="1.5"></path><path d="M213.65 97.07L210.85 138.18" stroke="rgba(19, 46, 101, 0.41)" stroke-width="1.5"></path><path d="M210.85 138.18L210.85 138.18" stroke="rgba(19, 46, 101, 0.41)" stroke-width="1.5"></path><path d="M210.85 138.18L212.91 161.53" stroke="rgba(19, 46, 101, 0.41)" stroke-width="1.5"></path><path d="M210.85 138.18L240.88 123.75" stroke="rgba(19, 46, 101, 0.41)" stroke-width="1.5"></path><path d="M210.85 138.18L237.95 162.86" stroke="rgba(19, 46, 101, 0.41)" stroke-width="1.5"></path><path d="M210.85 138.18L160.81 161.92" stroke="rgba(19, 46, 101, 0.41)" stroke-width="1.5"></path><path d="M212.91 161.53L212.91 161.53" stroke="rgba(19, 46, 101, 0.41)" stroke-width="1.5"></path><path d="M212.91 161.53L237.95 162.86" stroke="rgba(19, 46, 101, 0.41)" stroke-width="1.5"></path><path d="M212.91 161.53L240.88 123.75" stroke="rgba(19, 46, 101, 0.41)" stroke-width="1.5"></path><path d="M250.49 -24.62L250.49 -24.62" stroke="rgba(19, 46, 101, 0.41)" stroke-width="1.5"></path><path d="M250.49 -24.62L274.15 -21.63" stroke="rgba(19, 46, 101, 0.41)" stroke-width="1.5"></path><path d="M250.49 -24.62L275.64 10.52" stroke="rgba(19, 46, 101, 0.41)" stroke-width="1.5"></path><path d="M250.49 -24.62L247.77 24.69" stroke="rgba(19, 46, 101, 0.41)" stroke-width="1.5"></path><path d="M247.77 24.69L247.77 24.69" stroke="rgba(19, 46, 101, 0.41)" stroke-width="1.5"></path><path d="M247.77 24.69L237.86 47.48" stroke="rgba(19, 46, 101, 0.41)" stroke-width="1.5"></path><path d="M247.77 24.69L275.64 10.52" stroke="rgba(19, 46, 101, 0.41)" stroke-width="1.5"></path><path d="M247.77 24.69L274.69 55.56" stroke="rgba(19, 46, 101, 0.41)" stroke-width="1.5"></path><path d="M237.86 47.48L237.86 47.48" stroke="rgba(19, 46, 101, 0.41)" stroke-width="1.5"></path><path d="M237.86 47.48L274.69 55.56" stroke="rgba(19, 46, 101, 0.41)" stroke-width="1.5"></path><path d="M252.23 90.45L252.23 90.45" stroke="rgba(19, 46, 101, 0.41)" stroke-width="1.5"></path><path d="M252.23 90.45L277.06 98.18" stroke="rgba(19, 46, 101, 0.41)" stroke-width="1.5"></path><path d="M252.23 90.45L240.88 123.75" stroke="rgba(19, 46, 101, 0.41)" stroke-width="1.5"></path><path d="M240.88 123.75L240.88 123.75" stroke="rgba(19, 46, 101, 0.41)" stroke-width="1.5"></path><path d="M240.88 123.75L237.95 162.86" stroke="rgba(19, 46, 101, 0.41)" stroke-width="1.5"></path><path d="M240.88 123.75L281 130.12" stroke="rgba(19, 46, 101, 0.41)" stroke-width="1.5"></path><path d="M237.95 162.86L237.95 162.86" stroke="rgba(19, 46, 101, 0.41)" stroke-width="1.5"></path><path d="M237.95 162.86L272.75 160.97" stroke="rgba(19, 46, 101, 0.41)" stroke-width="1.5"></path><path d="M274.15 -21.63L274.15 -21.63" stroke="rgba(19, 46, 101, 0.41)" stroke-width="1.5"></path><path d="M274.15 -21.63L275.64 10.52" stroke="rgba(19, 46, 101, 0.41)" stroke-width="1.5"></path><path d="M274.15 -21.63L313.71 -14.16" stroke="rgba(19, 46, 101, 0.41)" stroke-width="1.5"></path><path d="M274.15 -21.63L247.77 24.69" stroke="rgba(19, 46, 101, 0.41)" stroke-width="1.5"></path><path d="M274.15 -21.63L327.47 13.18" stroke="rgba(19, 46, 101, 0.41)" stroke-width="1.5"></path><path d="M275.64 10.52L275.64 10.52" stroke="rgba(19, 46, 101, 0.41)" stroke-width="1.5"></path><path d="M275.64 10.52L274.69 55.56" stroke="rgba(19, 46, 101, 0.41)" stroke-width="1.5"></path><path d="M274.69 55.56L274.69 55.56" stroke="rgba(19, 46, 101, 0.41)" stroke-width="1.5"></path><path d="M274.69 55.56L252.23 90.45" stroke="rgba(19, 46, 101, 0.41)" stroke-width="1.5"></path><path d="M274.69 55.56L277.06 98.18" stroke="rgba(19, 46, 101, 0.41)" stroke-width="1.5"></path><path d="M277.06 98.18L277.06 98.18" stroke="rgba(19, 46, 101, 0.41)" stroke-width="1.5"></path><path d="M277.06 98.18L281 130.12" stroke="rgba(19, 46, 101, 0.41)" stroke-width="1.5"></path><path d="M281 130.12L281 130.12" stroke="rgba(19, 46, 101, 0.41)" stroke-width="1.5"></path><path d="M281 130.12L309.84 132.87" stroke="rgba(19, 46, 101, 0.41)" stroke-width="1.5"></path><path d="M281 130.12L272.75 160.97" stroke="rgba(19, 46, 101, 0.41)" stroke-width="1.5"></path><path d="M272.75 160.97L272.75 160.97" stroke="rgba(19, 46, 101, 0.41)" stroke-width="1.5"></path><path d="M272.75 160.97L309.84 132.87" stroke="rgba(19, 46, 101, 0.41)" stroke-width="1.5"></path><path d="M272.75 160.97L240.88 123.75" stroke="rgba(19, 46, 101, 0.41)" stroke-width="1.5"></path><path d="M272.75 160.97L322.5 170.4" stroke="rgba(19, 46, 101, 0.41)" stroke-width="1.5"></path><path d="M313.71 -14.16L313.71 -14.16" stroke="rgba(19, 46, 101, 0.41)" stroke-width="1.5"></path><path d="M313.71 -14.16L327.47 13.18" stroke="rgba(19, 46, 101, 0.41)" stroke-width="1.5"></path><path d="M327.47 13.18L327.47 13.18" stroke="rgba(19, 46, 101, 0.41)" stroke-width="1.5"></path><path d="M327.47 13.18L275.64 10.52" stroke="rgba(19, 46, 101, 0.41)" stroke-width="1.5"></path><path d="M327.47 13.18L274.69 55.56" stroke="rgba(19, 46, 101, 0.41)" stroke-width="1.5"></path><path d="M327.47 13.18L247.77 24.69" stroke="rgba(19, 46, 101, 0.41)" stroke-width="1.5"></path><path d="M325.79 95.75L325.79 95.75" stroke="rgba(19, 46, 101, 0.41)" stroke-width="1.5"></path><path d="M325.79 95.75L309.84 132.87" stroke="rgba(19, 46, 101, 0.41)" stroke-width="1.5"></path><path d="M325.79 95.75L277.06 98.18" stroke="rgba(19, 46, 101, 0.41)" stroke-width="1.5"></path><path d="M325.79 95.75L281 130.12" stroke="rgba(19, 46, 101, 0.41)" stroke-width="1.5"></path><path d="M325.79 95.75L274.69 55.56" stroke="rgba(19, 46, 101, 0.41)" stroke-width="1.5"></path><path d="M325.79 95.75L252.23 90.45" stroke="rgba(19, 46, 101, 0.41)" stroke-width="1.5"></path><path d="M309.84 132.87L309.84 132.87" stroke="rgba(19, 46, 101, 0.41)" stroke-width="1.5"></path><path d="M309.84 132.87L322.5 170.4" stroke="rgba(19, 46, 101, 0.41)" stroke-width="1.5"></path><path d="M309.84 132.87L277.06 98.18" stroke="rgba(19, 46, 101, 0.41)" stroke-width="1.5"></path><path d="M309.84 132.87L240.88 123.75" stroke="rgba(19, 46, 101, 0.41)" stroke-width="1.5"></path><path d="M322.5 170.4L322.5 170.4" stroke="rgba(19, 46, 101, 0.41)" stroke-width="1.5"></path><path d="M322.5 170.4L281 130.12" stroke="rgba(19, 46, 101, 0.41)" stroke-width="1.5"></path><path d="M322.5 170.4L325.79 95.75" stroke="rgba(19, 46, 101, 0.41)" stroke-width="1.5"></path><circle r="5" cx="-17.65" cy="99.4" fill="rgba(19, 46, 101, 0.41)"></circle><circle r="5" cx="-22.66" cy="140.29" fill="rgba(19, 46, 101, 0.41)"></circle><circle r="5" cx="-13.68" cy="162.19" fill="rgba(19, 46, 101, 0.41)"></circle><circle r="5" cx="19" cy="93.18" fill="rgba(19, 46, 101, 0.41)"></circle><circle r="5" cx="17.29" cy="137.03" fill="rgba(19, 46, 101, 0.41)"></circle><circle r="5" cx="21.63" cy="174.41" fill="rgba(19, 46, 101, 0.41)"></circle><circle r="5" cx="54.09" cy="93.35" fill="rgba(19, 46, 101, 0.41)"></circle><circle r="5" cx="48.29" cy="128.37" fill="rgba(19, 46, 101, 0.41)"></circle><circle r="5" cx="47.7" cy="168.54" fill="rgba(19, 46, 101, 0.41)"></circle><circle r="5" cx="102.77" cy="98.42" fill="rgba(19, 46, 101, 0.41)"></circle><circle r="5" cx="91.39" cy="176.14" fill="rgba(19, 46, 101, 0.41)"></circle><circle r="5" cx="131.09" cy="85.43" fill="rgba(19, 46, 101, 0.41)"></circle><circle r="5" cx="125.63" cy="173.71" fill="rgba(19, 46, 101, 0.41)"></circle><circle r="5" cx="162.39" cy="50.37" fill="rgba(19, 46, 101, 0.41)"></circle><circle r="5" cx="161.19" cy="102.78" fill="rgba(19, 46, 101, 0.41)"></circle><circle r="5" cx="169.27" cy="137.94" fill="rgba(19, 46, 101, 0.41)"></circle><circle r="5" cx="160.81" cy="161.92" fill="rgba(19, 46, 101, 0.41)"></circle><circle r="5" cx="205.47" cy="-16.6" fill="rgba(19, 46, 101, 0.41)"></circle><circle r="5" cx="207.32" cy="9.52" fill="rgba(19, 46, 101, 0.41)"></circle><circle r="5" cx="199.44" cy="58.38" fill="rgba(19, 46, 101, 0.41)"></circle><circle r="5" cx="213.65" cy="97.07" fill="rgba(19, 46, 101, 0.41)"></circle><circle r="5" cx="210.85" cy="138.18" fill="rgba(19, 46, 101, 0.41)"></circle><circle r="5" cx="212.91" cy="161.53" fill="rgba(19, 46, 101, 0.41)"></circle><circle r="5" cx="250.49" cy="-24.62" fill="rgba(19, 46, 101, 0.41)"></circle><circle r="5" cx="247.77" cy="24.69" fill="rgba(19, 46, 101, 0.41)"></circle><circle r="5" cx="237.86" cy="47.48" fill="rgba(19, 46, 101, 0.41)"></circle><circle r="5" cx="252.23" cy="90.45" fill="rgba(19, 46, 101, 0.41)"></circle><circle r="5" cx="240.88" cy="123.75" fill="rgba(19, 46, 101, 0.41)"></circle><circle r="5" cx="237.95" cy="162.86" fill="rgba(19, 46, 101, 0.41)"></circle><circle r="5" cx="274.15" cy="-21.63" fill="rgba(19, 46, 101, 0.41)"></circle><circle r="5" cx="275.64" cy="10.52" fill="rgba(19, 46, 101, 0.41)"></circle><circle r="5" cx="274.69" cy="55.56" fill="rgba(19, 46, 101, 0.41)"></circle><circle r="5" cx="277.06" cy="98.18" fill="rgba(19, 46, 101, 0.41)"></circle><circle r="5" cx="281" cy="130.12" fill="rgba(19, 46, 101, 0.41)"></circle><circle r="5" cx="272.75" cy="160.97" fill="rgba(19, 46, 101, 0.41)"></circle><circle r="5" cx="313.71" cy="-14.16" fill="rgba(19, 46, 101, 0.41)"></circle><circle r="5" cx="327.47" cy="13.18" fill="rgba(19, 46, 101, 0.41)"></circle><circle r="5" cx="325.79" cy="95.75" fill="rgba(19, 46, 101, 0.41)"></circle><circle r="5" cx="309.84" cy="132.87" fill="rgba(19, 46, 101, 0.41)"></circle><circle r="5" cx="322.5" cy="170.4" fill="rgba(19, 46, 101, 0.41)"></circle><path d="M-16.92 135.71L-16.92 135.71" stroke="hsla(228.5, 77.2%, 51.5%, 0.22)" stroke-width="1.5"></path><path d="M-16.92 135.71L-25.91 160.99" stroke="hsla(228.5, 77.2%, 51.5%, 0.22)" stroke-width="1.5"></path><path d="M-16.92 135.71L17.85 159.46" stroke="hsla(228.5, 77.2%, 51.5%, 0.22)" stroke-width="1.5"></path><path d="M-16.92 135.71L26.01 129.84" stroke="hsla(228.5, 77.2%, 51.5%, 0.22)" stroke-width="1.5"></path><path d="M-16.92 135.71L47.72 139.06" stroke="hsla(228.5, 77.2%, 51.5%, 0.22)" stroke-width="1.5"></path><path d="M-16.92 135.71L62.85 170.48" stroke="hsla(228.5, 77.2%, 51.5%, 0.22)" stroke-width="1.5"></path><path d="M203.22 88.68L203.22 88.68" stroke="hsla(228.5, 77.2%, 51.5%, 0.22)" stroke-width="1.5"></path><path d="M203.22 88.68L240.19 92.86" stroke="hsla(228.5, 77.2%, 51.5%, 0.22)" stroke-width="1.5"></path><path d="M203.22 88.68L161.65 90.78" stroke="hsla(228.5, 77.2%, 51.5%, 0.22)" stroke-width="1.5"></path><path d="M203.22 88.68L206.6 132.27" stroke="hsla(228.5, 77.2%, 51.5%, 0.22)" stroke-width="1.5"></path><path d="M203.22 88.68L172.63 125.96" stroke="hsla(228.5, 77.2%, 51.5%, 0.22)" stroke-width="1.5"></path><path d="M203.22 88.68L238.92 130.69" stroke="hsla(228.5, 77.2%, 51.5%, 0.22)" stroke-width="1.5"></path><path d="M239.36 173.25L239.36 173.25" stroke="hsla(228.5, 77.2%, 51.5%, 0.22)" stroke-width="1.5"></path><path d="M239.36 173.25L204.74 164.77" stroke="hsla(228.5, 77.2%, 51.5%, 0.22)" stroke-width="1.5"></path><path d="M239.36 173.25L278.74 159.82" stroke="hsla(228.5, 77.2%, 51.5%, 0.22)" stroke-width="1.5"></path><path d="M239.36 173.25L238.92 130.69" stroke="hsla(228.5, 77.2%, 51.5%, 0.22)" stroke-width="1.5"></path><path d="M281.42 14.36L281.42 14.36" stroke="hsla(228.5, 77.2%, 51.5%, 0.22)" stroke-width="1.5"></path><path d="M281.42 14.36L290.51 -9.49" stroke="hsla(228.5, 77.2%, 51.5%, 0.22)" stroke-width="1.5"></path><path d="M281.42 14.36L250.4 10.6" stroke="hsla(228.5, 77.2%, 51.5%, 0.22)" stroke-width="1.5"></path><path d="M281.42 14.36L318.72 12.45" stroke="hsla(228.5, 77.2%, 51.5%, 0.22)" stroke-width="1.5"></path><path d="M281.42 14.36L249.63 -10.23" stroke="hsla(228.5, 77.2%, 51.5%, 0.22)" stroke-width="1.5"></path><path d="M281.42 14.36L313.85 -9.59" stroke="hsla(228.5, 77.2%, 51.5%, 0.22)" stroke-width="1.5"></path><path d="M281.42 14.36L273.14 55.67" stroke="hsla(228.5, 77.2%, 51.5%, 0.22)" stroke-width="1.5"></path><path d="M275.42 87.51L275.42 87.51" stroke="hsla(228.5, 77.2%, 51.5%, 0.22)" stroke-width="1.5"></path><path d="M275.42 87.51L273.14 55.67" stroke="hsla(228.5, 77.2%, 51.5%, 0.22)" stroke-width="1.5"></path><path d="M275.42 87.51L240.19 92.86" stroke="hsla(228.5, 77.2%, 51.5%, 0.22)" stroke-width="1.5"></path><path d="M275.42 87.51L327.48 97.04" stroke="hsla(228.5, 77.2%, 51.5%, 0.22)" stroke-width="1.5"></path><path d="M275.42 87.51L319.53 54.57" stroke="hsla(228.5, 77.2%, 51.5%, 0.22)" stroke-width="1.5"></path><path d="M313.85 -9.59L313.85 -9.59" stroke="hsla(228.5, 77.2%, 51.5%, 0.22)" stroke-width="1.5"></path><path d="M313.85 -9.59L318.72 12.45" stroke="hsla(228.5, 77.2%, 51.5%, 0.22)" stroke-width="1.5"></path><path d="M313.85 -9.59L290.51 -9.49" stroke="hsla(228.5, 77.2%, 51.5%, 0.22)" stroke-width="1.5"></path><path d="M313.85 -9.59L249.63 -10.23" stroke="hsla(228.5, 77.2%, 51.5%, 0.22)" stroke-width="1.5"></path><path d="M313.85 -9.59L319.53 54.57" stroke="hsla(228.5, 77.2%, 51.5%, 0.22)" stroke-width="1.5"></path><path d="M313.85 -9.59L250.4 10.6" stroke="hsla(228.5, 77.2%, 51.5%, 0.22)" stroke-width="1.5"></path><path d="M318.69 170.64L318.69 170.64" stroke="hsla(228.5, 77.2%, 51.5%, 0.22)" stroke-width="1.5"></path><path d="M318.69 170.64L278.74 159.82" stroke="hsla(228.5, 77.2%, 51.5%, 0.22)" stroke-width="1.5"></path><path d="M318.69 170.64L317.42 128.7" stroke="hsla(228.5, 77.2%, 51.5%, 0.22)" stroke-width="1.5"></path><path d="M318.69 170.64L327.48 97.04" stroke="hsla(228.5, 77.2%, 51.5%, 0.22)" stroke-width="1.5"></path><path d="M318.69 170.64L239.36 173.25" stroke="hsla(228.5, 77.2%, 51.5%, 0.22)" stroke-width="1.5"></path><path d="M318.69 170.64L238.92 130.69" stroke="hsla(228.5, 77.2%, 51.5%, 0.22)" stroke-width="1.5"></path><path d="M-25.91 160.99L-25.91 160.99" stroke="hsla(228.5, 77.2%, 51.5%, 0.22)" stroke-width="1.5"></path><path d="M-25.91 160.99L17.85 159.46" stroke="hsla(228.5, 77.2%, 51.5%, 0.22)" stroke-width="1.5"></path><path d="M-25.91 160.99L26.01 129.84" stroke="hsla(228.5, 77.2%, 51.5%, 0.22)" stroke-width="1.5"></path><path d="M-25.91 160.99L47.72 139.06" stroke="hsla(228.5, 77.2%, 51.5%, 0.22)" stroke-width="1.5"></path><path d="M-25.91 160.99L62.85 170.48" stroke="hsla(228.5, 77.2%, 51.5%, 0.22)" stroke-width="1.5"></path><path d="M26.01 129.84L26.01 129.84" stroke="hsla(228.5, 77.2%, 51.5%, 0.22)" stroke-width="1.5"></path><path d="M26.01 129.84L47.72 139.06" stroke="hsla(228.5, 77.2%, 51.5%, 0.22)" stroke-width="1.5"></path><path d="M26.01 129.84L17.85 159.46" stroke="hsla(228.5, 77.2%, 51.5%, 0.22)" stroke-width="1.5"></path><path d="M26.01 129.84L62.85 170.48" stroke="hsla(228.5, 77.2%, 51.5%, 0.22)" stroke-width="1.5"></path><path d="M26.01 129.84L88.5 123.8" stroke="hsla(228.5, 77.2%, 51.5%, 0.22)" stroke-width="1.5"></path><path d="M17.85 159.46L17.85 159.46" stroke="hsla(228.5, 77.2%, 51.5%, 0.22)" stroke-width="1.5"></path><path d="M17.85 159.46L47.72 139.06" stroke="hsla(228.5, 77.2%, 51.5%, 0.22)" stroke-width="1.5"></path><path d="M17.85 159.46L62.85 170.48" stroke="hsla(228.5, 77.2%, 51.5%, 0.22)" stroke-width="1.5"></path><path d="M47.72 139.06L47.72 139.06" stroke="hsla(228.5, 77.2%, 51.5%, 0.22)" stroke-width="1.5"></path><path d="M47.72 139.06L62.85 170.48" stroke="hsla(228.5, 77.2%, 51.5%, 0.22)" stroke-width="1.5"></path><path d="M47.72 139.06L88.5 123.8" stroke="hsla(228.5, 77.2%, 51.5%, 0.22)" stroke-width="1.5"></path><path d="M47.72 139.06L91.04 168.05" stroke="hsla(228.5, 77.2%, 51.5%, 0.22)" stroke-width="1.5"></path><path d="M62.85 170.48L62.85 170.48" stroke="hsla(228.5, 77.2%, 51.5%, 0.22)" stroke-width="1.5"></path><path d="M62.85 170.48L91.04 168.05" stroke="hsla(228.5, 77.2%, 51.5%, 0.22)" stroke-width="1.5"></path><path d="M62.85 170.48L88.5 123.8" stroke="hsla(228.5, 77.2%, 51.5%, 0.22)" stroke-width="1.5"></path><path d="M88.5 123.8L88.5 123.8" stroke="hsla(228.5, 77.2%, 51.5%, 0.22)" stroke-width="1.5"></path><path d="M91.04 168.05L91.04 168.05" stroke="hsla(228.5, 77.2%, 51.5%, 0.22)" stroke-width="1.5"></path><path d="M91.04 168.05L88.5 123.8" stroke="hsla(228.5, 77.2%, 51.5%, 0.22)" stroke-width="1.5"></path><path d="M91.04 168.05L135.79 166.91" stroke="hsla(228.5, 77.2%, 51.5%, 0.22)" stroke-width="1.5"></path><path d="M91.04 168.05L139.2 122.18" stroke="hsla(228.5, 77.2%, 51.5%, 0.22)" stroke-width="1.5"></path><path d="M139.2 122.18L139.2 122.18" stroke="hsla(228.5, 77.2%, 51.5%, 0.22)" stroke-width="1.5"></path><path d="M139.2 122.18L172.63 125.96" stroke="hsla(228.5, 77.2%, 51.5%, 0.22)" stroke-width="1.5"></path><path d="M139.2 122.18L161.65 90.78" stroke="hsla(228.5, 77.2%, 51.5%, 0.22)" stroke-width="1.5"></path><path d="M139.2 122.18L135.79 166.91" stroke="hsla(228.5, 77.2%, 51.5%, 0.22)" stroke-width="1.5"></path><path d="M139.2 122.18L88.5 123.8" stroke="hsla(228.5, 77.2%, 51.5%, 0.22)" stroke-width="1.5"></path><path d="M139.2 122.18L170.95 177.4" stroke="hsla(228.5, 77.2%, 51.5%, 0.22)" stroke-width="1.5"></path><path d="M135.79 166.91L135.79 166.91" stroke="hsla(228.5, 77.2%, 51.5%, 0.22)" stroke-width="1.5"></path><path d="M135.79 166.91L170.95 177.4" stroke="hsla(228.5, 77.2%, 51.5%, 0.22)" stroke-width="1.5"></path><path d="M135.79 166.91L172.63 125.96" stroke="hsla(228.5, 77.2%, 51.5%, 0.22)" stroke-width="1.5"></path><path d="M135.79 166.91L88.5 123.8" stroke="hsla(228.5, 77.2%, 51.5%, 0.22)" stroke-width="1.5"></path><path d="M135.79 166.91L204.74 164.77" stroke="hsla(228.5, 77.2%, 51.5%, 0.22)" stroke-width="1.5"></path><path d="M161.65 90.78L161.65 90.78" stroke="hsla(228.5, 77.2%, 51.5%, 0.22)" stroke-width="1.5"></path><path d="M161.65 90.78L172.63 125.96" stroke="hsla(228.5, 77.2%, 51.5%, 0.22)" stroke-width="1.5"></path><path d="M172.63 125.96L172.63 125.96" stroke="hsla(228.5, 77.2%, 51.5%, 0.22)" stroke-width="1.5"></path><path d="M172.63 125.96L206.6 132.27" stroke="hsla(228.5, 77.2%, 51.5%, 0.22)" stroke-width="1.5"></path><path d="M172.63 125.96L204.74 164.77" stroke="hsla(228.5, 77.2%, 51.5%, 0.22)" stroke-width="1.5"></path><path d="M172.63 125.96L170.95 177.4" stroke="hsla(228.5, 77.2%, 51.5%, 0.22)" stroke-width="1.5"></path><path d="M170.95 177.4L170.95 177.4" stroke="hsla(228.5, 77.2%, 51.5%, 0.22)" stroke-width="1.5"></path><path d="M170.95 177.4L204.74 164.77" stroke="hsla(228.5, 77.2%, 51.5%, 0.22)" stroke-width="1.5"></path><path d="M170.95 177.4L206.6 132.27" stroke="hsla(228.5, 77.2%, 51.5%, 0.22)" stroke-width="1.5"></path><path d="M206.6 132.27L206.6 132.27" stroke="hsla(228.5, 77.2%, 51.5%, 0.22)" stroke-width="1.5"></path><path d="M206.6 132.27L238.92 130.69" stroke="hsla(228.5, 77.2%, 51.5%, 0.22)" stroke-width="1.5"></path><path d="M206.6 132.27L204.74 164.77" stroke="hsla(228.5, 77.2%, 51.5%, 0.22)" stroke-width="1.5"></path><path d="M206.6 132.27L240.19 92.86" stroke="hsla(228.5, 77.2%, 51.5%, 0.22)" stroke-width="1.5"></path><path d="M206.6 132.27L239.36 173.25" stroke="hsla(228.5, 77.2%, 51.5%, 0.22)" stroke-width="1.5"></path><path d="M204.74 164.77L204.74 164.77" stroke="hsla(228.5, 77.2%, 51.5%, 0.22)" stroke-width="1.5"></path><path d="M204.74 164.77L238.92 130.69" stroke="hsla(228.5, 77.2%, 51.5%, 0.22)" stroke-width="1.5"></path><path d="M249.63 -10.23L249.63 -10.23" stroke="hsla(228.5, 77.2%, 51.5%, 0.22)" stroke-width="1.5"></path><path d="M249.63 -10.23L250.4 10.6" stroke="hsla(228.5, 77.2%, 51.5%, 0.22)" stroke-width="1.5"></path><path d="M249.63 -10.23L290.51 -9.49" stroke="hsla(228.5, 77.2%, 51.5%, 0.22)" stroke-width="1.5"></path><path d="M249.63 -10.23L273.14 55.67" stroke="hsla(228.5, 77.2%, 51.5%, 0.22)" stroke-width="1.5"></path><path d="M249.63 -10.23L318.72 12.45" stroke="hsla(228.5, 77.2%, 51.5%, 0.22)" stroke-width="1.5"></path><path d="M250.4 10.6L250.4 10.6" stroke="hsla(228.5, 77.2%, 51.5%, 0.22)" stroke-width="1.5"></path><path d="M250.4 10.6L290.51 -9.49" stroke="hsla(228.5, 77.2%, 51.5%, 0.22)" stroke-width="1.5"></path><path d="M240.19 92.86L240.19 92.86" stroke="hsla(228.5, 77.2%, 51.5%, 0.22)" stroke-width="1.5"></path><path d="M240.19 92.86L238.92 130.69" stroke="hsla(228.5, 77.2%, 51.5%, 0.22)" stroke-width="1.5"></path><path d="M240.19 92.86L273.14 55.67" stroke="hsla(228.5, 77.2%, 51.5%, 0.22)" stroke-width="1.5"></path><path d="M238.92 130.69L238.92 130.69" stroke="hsla(228.5, 77.2%, 51.5%, 0.22)" stroke-width="1.5"></path><path d="M238.92 130.69L278.74 159.82" stroke="hsla(228.5, 77.2%, 51.5%, 0.22)" stroke-width="1.5"></path><path d="M290.51 -9.49L290.51 -9.49" stroke="hsla(228.5, 77.2%, 51.5%, 0.22)" stroke-width="1.5"></path><path d="M290.51 -9.49L318.72 12.45" stroke="hsla(228.5, 77.2%, 51.5%, 0.22)" stroke-width="1.5"></path><path d="M273.14 55.67L273.14 55.67" stroke="hsla(228.5, 77.2%, 51.5%, 0.22)" stroke-width="1.5"></path><path d="M278.74 159.82L278.74 159.82" stroke="hsla(228.5, 77.2%, 51.5%, 0.22)" stroke-width="1.5"></path><path d="M318.72 12.45L318.72 12.45" stroke="hsla(228.5, 77.2%, 51.5%, 0.22)" stroke-width="1.5"></path><path d="M318.72 12.45L319.53 54.57" stroke="hsla(228.5, 77.2%, 51.5%, 0.22)" stroke-width="1.5"></path><path d="M319.53 54.57L319.53 54.57" stroke="hsla(228.5, 77.2%, 51.5%, 0.22)" stroke-width="1.5"></path><path d="M319.53 54.57L327.48 97.04" stroke="hsla(228.5, 77.2%, 51.5%, 0.22)" stroke-width="1.5"></path><path d="M319.53 54.57L273.14 55.67" stroke="hsla(228.5, 77.2%, 51.5%, 0.22)" stroke-width="1.5"></path><path d="M319.53 54.57L281.42 14.36" stroke="hsla(228.5, 77.2%, 51.5%, 0.22)" stroke-width="1.5"></path><path d="M327.48 97.04L327.48 97.04" stroke="hsla(228.5, 77.2%, 51.5%, 0.22)" stroke-width="1.5"></path><path d="M327.48 97.04L317.42 128.7" stroke="hsla(228.5, 77.2%, 51.5%, 0.22)" stroke-width="1.5"></path><path d="M327.48 97.04L273.14 55.67" stroke="hsla(228.5, 77.2%, 51.5%, 0.22)" stroke-width="1.5"></path><path d="M317.42 128.7L317.42 128.7" stroke="hsla(228.5, 77.2%, 51.5%, 0.22)" stroke-width="1.5"></path><path d="M317.42 128.7L278.74 159.82" stroke="hsla(228.5, 77.2%, 51.5%, 0.22)" stroke-width="1.5"></path><path d="M317.42 128.7L275.42 87.51" stroke="hsla(228.5, 77.2%, 51.5%, 0.22)" stroke-width="1.5"></path><path d="M317.42 128.7L319.53 54.57" stroke="hsla(228.5, 77.2%, 51.5%, 0.22)" stroke-width="1.5"></path><path d="M317.42 128.7L238.92 130.69" stroke="hsla(228.5, 77.2%, 51.5%, 0.22)" stroke-width="1.5"></path><circle r="25" cx="-16.92" cy="135.71" fill="url(#SvgjsRadialGradient1019)"></circle><circle r="25" cx="203.22" cy="88.68" fill="url(#SvgjsRadialGradient1019)"></circle><circle r="25" cx="239.36" cy="173.25" fill="url(#SvgjsRadialGradient1019)"></circle><circle r="25" cx="281.42" cy="14.36" fill="url(#SvgjsRadialGradient1019)"></circle><circle r="25" cx="275.42" cy="87.51" fill="url(#SvgjsRadialGradient1019)"></circle><circle r="25" cx="313.85" cy="-9.59" fill="url(#SvgjsRadialGradient1019)"></circle><circle r="25" cx="318.69" cy="170.64" fill="url(#SvgjsRadialGradient1019)"></circle><circle r="5" cx="-25.91" cy="160.99" fill="rgba(230, 233, 247, 0.61)"></circle><circle r="5" cx="26.01" cy="129.84" fill="rgba(230, 233, 247, 0.61)"></circle><circle r="5" cx="17.85" cy="159.46" fill="rgba(230, 233, 247, 0.61)"></circle><circle r="5" cx="47.72" cy="139.06" fill="rgba(230, 233, 247, 0.61)"></circle><circle r="5" cx="62.85" cy="170.48" fill="rgba(230, 233, 247, 0.61)"></circle><circle r="5" cx="88.5" cy="123.8" fill="rgba(230, 233, 247, 0.61)"></circle><circle r="5" cx="91.04" cy="168.05" fill="rgba(230, 233, 247, 0.61)"></circle><circle r="5" cx="139.2" cy="122.18" fill="rgba(230, 233, 247, 0.61)"></circle><circle r="5" cx="135.79" cy="166.91" fill="rgba(230, 233, 247, 0.61)"></circle><circle r="5" cx="161.65" cy="90.78" fill="rgba(230, 233, 247, 0.61)"></circle><circle r="5" cx="172.63" cy="125.96" fill="rgba(230, 233, 247, 0.61)"></circle><circle r="5" cx="170.95" cy="177.4" fill="rgba(230, 233, 247, 0.61)"></circle><circle r="5" cx="206.6" cy="132.27" fill="rgba(230, 233, 247, 0.61)"></circle><circle r="5" cx="204.74" cy="164.77" fill="rgba(230, 233, 247, 0.61)"></circle><circle r="5" cx="249.63" cy="-10.23" fill="rgba(230, 233, 247, 0.61)"></circle><circle r="5" cx="250.4" cy="10.6" fill="rgba(230, 233, 247, 0.61)"></circle><circle r="5" cx="240.19" cy="92.86" fill="rgba(230, 233, 247, 0.61)"></circle><circle r="5" cx="238.92" cy="130.69" fill="rgba(230, 233, 247, 0.61)"></circle><circle r="5" cx="290.51" cy="-9.49" fill="rgba(230, 233, 247, 0.61)"></circle><circle r="5" cx="273.14" cy="55.67" fill="rgba(230, 233, 247, 0.61)"></circle><circle r="5" cx="278.74" cy="159.82" fill="rgba(230, 233, 247, 0.61)"></circle><circle r="5" cx="318.72" cy="12.45" fill="rgba(230, 233, 247, 0.61)"></circle><circle r="5" cx="319.53" cy="54.57" fill="rgba(230, 233, 247, 0.61)"></circle><circle r="5" cx="327.48" cy="97.04" fill="rgba(230, 233, 247, 0.61)"></circle><circle r="5" cx="317.42" cy="128.7" fill="rgba(230, 233, 247, 0.61)"></circle></g><defs><mask id="SvgjsMask1018"><rect width="300" height="150" fill="#ffffff"></rect></mask><radialGradient id="SvgjsRadialGradient1019"><stop stop-color="#ffffff" offset="0.1"></stop><stop stop-color="rgba(23, 53, 179, 0.22)" offset="0.2"></stop><stop stop-color="rgba(23, 53, 179, 0)" offset="1"></stop></radialGradient></defs></svg>