<svg xmlns="http://www.w3.org/2000/svg" version="1.1" xmlns:xlink="http://www.w3.org/1999/xlink" xmlns:svgjs="http://svgjs.com/svgjs" width="300" height="150" preserveAspectRatio="none" viewBox="0 0 300 150"><g mask="url(&quot;#SvgjsMask1054&quot;)" fill="none"><rect width="300" height="150" x="0" y="0" fill="rgba(127, 255, 211, 1)"></rect><g mask="url(&quot;#SvgjsMask1055&quot;)"><path d="M25 75L35 75L45 75L55 75M65 65L75 65L85 65M-5 75L5 75L15 75L25 75L35 65L45 65L55 65L65 65L75 55L85 55" stroke="rgba(221, 17, 51, 0.53)" stroke-width="1.67"></path><path d="M82.5 55 a2.5 2.5 0 1 0 5 0 a2.5 2.5 0 1 0 -5 0zM52.5 75 a2.5 2.5 0 1 0 5 0 a2.5 2.5 0 1 0 -5 0zM82.5 65 a2.5 2.5 0 1 0 5 0 a2.5 2.5 0 1 0 -5 0z" fill="rgba(221, 17, 51, 0.53)"></path><path d="M95 95L105 85L115 85L125 85M75 95L85 85M55 85L65 85L75 85L85 75L95 75L105 75M-5 85L5 85L15 85L25 85L35 85L45 85L55 85L65 95L75 95L85 95L95 95L105 95" stroke="rgba(58, 124, 195, 0.55)" stroke-width="1.67"></path><path d="M102.5 95 a2.5 2.5 0 1 0 5 0 a2.5 2.5 0 1 0 -5 0zM122.5 85 a2.5 2.5 0 1 0 5 0 a2.5 2.5 0 1 0 -5 0zM82.5 85 a2.5 2.5 0 1 0 5 0 a2.5 2.5 0 1 0 -5 0zM102.5 75 a2.5 2.5 0 1 0 5 0 a2.5 2.5 0 1 0 -5 0z" fill="rgba(58, 124, 195, 0.55)"></path><path d="M105 45L115 35L125 35M35 55L45 45M95 45L105 55L115 55L125 55L135 55M85 45L95 35M-5 65L5 65L15 65L25 65L35 55L45 55L55 55L65 55L75 45L85 45L95 45L105 45L115 45L125 45L135 45L145 45" stroke="rgba(221, 17, 51, 0.53)" stroke-width="1.67"></path><path d="M142.5 45 a2.5 2.5 0 1 0 5 0 a2.5 2.5 0 1 0 -5 0zM122.5 35 a2.5 2.5 0 1 0 5 0 a2.5 2.5 0 1 0 -5 0zM42.5 45 a2.5 2.5 0 1 0 5 0 a2.5 2.5 0 1 0 -5 0zM132.5 55 a2.5 2.5 0 1 0 5 0 a2.5 2.5 0 1 0 -5 0zM92.5 35 a2.5 2.5 0 1 0 5 0 a2.5 2.5 0 1 0 -5 0z" fill="rgba(221, 17, 51, 0.53)"></path><path d="M175 105L185 105L195 105L205 115M115 105L125 95L135 95M185 95L195 85L205 75M145 105L155 95M165 105L175 95L185 85L195 75L205 65M-5 95L5 95L15 95L25 95L35 95L45 95L55 105L65 105L75 105L85 105L95 105L105 105L115 105L125 105L135 105L145 105L155 105L165 105L175 105L185 95L195 95L205 95" stroke="rgba(221, 17, 51, 0.53)" stroke-width="1.67"></path><path d="M202.5 95 a2.5 2.5 0 1 0 5 0 a2.5 2.5 0 1 0 -5 0zM202.5 115 a2.5 2.5 0 1 0 5 0 a2.5 2.5 0 1 0 -5 0zM132.5 95 a2.5 2.5 0 1 0 5 0 a2.5 2.5 0 1 0 -5 0zM202.5 75 a2.5 2.5 0 1 0 5 0 a2.5 2.5 0 1 0 -5 0zM152.5 95 a2.5 2.5 0 1 0 5 0 a2.5 2.5 0 1 0 -5 0zM202.5 65 a2.5 2.5 0 1 0 5 0 a2.5 2.5 0 1 0 -5 0z" fill="rgba(221, 17, 51, 0.53)"></path><path d="M5 45L15 55M15 45L25 45L35 45L45 35L55 35M-5 55L5 45L15 45L25 55" stroke="rgba(58, 124, 195, 0.55)" stroke-width="1.67"></path><path d="M22.5 55 a2.5 2.5 0 1 0 5 0 a2.5 2.5 0 1 0 -5 0zM12.5 55 a2.5 2.5 0 1 0 5 0 a2.5 2.5 0 1 0 -5 0zM52.5 35 a2.5 2.5 0 1 0 5 0 a2.5 2.5 0 1 0 -5 0z" fill="rgba(58, 124, 195, 0.55)"></path><path d="M95 115L105 125L115 125L125 125M55 115L65 125M5 105L15 115L25 115L35 115M145 115L155 125L165 125M-5 105L5 105L15 105L25 105L35 105L45 105L55 115L65 115L75 115L85 115L95 115L105 115L115 115L125 115L135 115L145 115L155 115L165 115" stroke="rgba(58, 124, 195, 0.55)" stroke-width="1.67"></path><path d="M162.5 115 a2.5 2.5 0 1 0 5 0 a2.5 2.5 0 1 0 -5 0zM122.5 125 a2.5 2.5 0 1 0 5 0 a2.5 2.5 0 1 0 -5 0zM62.5 125 a2.5 2.5 0 1 0 5 0 a2.5 2.5 0 1 0 -5 0zM32.5 115 a2.5 2.5 0 1 0 5 0 a2.5 2.5 0 1 0 -5 0zM162.5 125 a2.5 2.5 0 1 0 5 0 a2.5 2.5 0 1 0 -5 0z" fill="rgba(58, 124, 195, 0.55)"></path><path d="M5 35L15 25M-5 45L5 35L15 35" stroke="rgba(221, 17, 51, 0.53)" stroke-width="1.67"></path><path d="M12.5 35 a2.5 2.5 0 1 0 5 0 a2.5 2.5 0 1 0 -5 0zM12.5 25 a2.5 2.5 0 1 0 5 0 a2.5 2.5 0 1 0 -5 0z" fill="rgba(221, 17, 51, 0.53)"></path></g></g><defs><mask id="SvgjsMask1054"><rect width="300" height="150" fill="#ffffff"></rect></mask><mask id="SvgjsMask1055"><rect width="300" height="150" fill="white"></rect><path d="M83.75 55 a1.25 1.25 0 1 0 2.5 0 a1.25 1.25 0 1 0 -2.5 0zM53.75 75 a1.25 1.25 0 1 0 2.5 0 a1.25 1.25 0 1 0 -2.5 0zM83.75 65 a1.25 1.25 0 1 0 2.5 0 a1.25 1.25 0 1 0 -2.5 0z" fill="black"></path><path d="M103.75 95 a1.25 1.25 0 1 0 2.5 0 a1.25 1.25 0 1 0 -2.5 0zM123.75 85 a1.25 1.25 0 1 0 2.5 0 a1.25 1.25 0 1 0 -2.5 0zM83.75 85 a1.25 1.25 0 1 0 2.5 0 a1.25 1.25 0 1 0 -2.5 0zM103.75 75 a1.25 1.25 0 1 0 2.5 0 a1.25 1.25 0 1 0 -2.5 0z" fill="black"></path><path d="M143.75 45 a1.25 1.25 0 1 0 2.5 0 a1.25 1.25 0 1 0 -2.5 0zM123.75 35 a1.25 1.25 0 1 0 2.5 0 a1.25 1.25 0 1 0 -2.5 0zM43.75 45 a1.25 1.25 0 1 0 2.5 0 a1.25 1.25 0 1 0 -2.5 0zM133.75 55 a1.25 1.25 0 1 0 2.5 0 a1.25 1.25 0 1 0 -2.5 0zM93.75 35 a1.25 1.25 0 1 0 2.5 0 a1.25 1.25 0 1 0 -2.5 0z" fill="black"></path><path d="M203.75 95 a1.25 1.25 0 1 0 2.5 0 a1.25 1.25 0 1 0 -2.5 0zM203.75 115 a1.25 1.25 0 1 0 2.5 0 a1.25 1.25 0 1 0 -2.5 0zM133.75 95 a1.25 1.25 0 1 0 2.5 0 a1.25 1.25 0 1 0 -2.5 0zM203.75 75 a1.25 1.25 0 1 0 2.5 0 a1.25 1.25 0 1 0 -2.5 0zM153.75 95 a1.25 1.25 0 1 0 2.5 0 a1.25 1.25 0 1 0 -2.5 0zM203.75 65 a1.25 1.25 0 1 0 2.5 0 a1.25 1.25 0 1 0 -2.5 0z" fill="black"></path><path d="M23.75 55 a1.25 1.25 0 1 0 2.5 0 a1.25 1.25 0 1 0 -2.5 0zM13.75 55 a1.25 1.25 0 1 0 2.5 0 a1.25 1.25 0 1 0 -2.5 0zM53.75 35 a1.25 1.25 0 1 0 2.5 0 a1.25 1.25 0 1 0 -2.5 0z" fill="black"></path><path d="M163.75 115 a1.25 1.25 0 1 0 2.5 0 a1.25 1.25 0 1 0 -2.5 0zM123.75 125 a1.25 1.25 0 1 0 2.5 0 a1.25 1.25 0 1 0 -2.5 0zM63.75 125 a1.25 1.25 0 1 0 2.5 0 a1.25 1.25 0 1 0 -2.5 0zM33.75 115 a1.25 1.25 0 1 0 2.5 0 a1.25 1.25 0 1 0 -2.5 0zM163.75 125 a1.25 1.25 0 1 0 2.5 0 a1.25 1.25 0 1 0 -2.5 0z" fill="black"></path><path d="M13.75 35 a1.25 1.25 0 1 0 2.5 0 a1.25 1.25 0 1 0 -2.5 0zM13.75 25 a1.25 1.25 0 1 0 2.5 0 a1.25 1.25 0 1 0 -2.5 0z" fill="black"></path></mask></defs></svg>