<svg xmlns="http://www.w3.org/2000/svg" version="1.1" xmlns:xlink="http://www.w3.org/1999/xlink" xmlns:svgjs="http://svgjs.com/svgjs" width="300" height="150" preserveAspectRatio="none" viewBox="0 0 300 150"><g mask="url(&quot;#SvgjsMask1039&quot;)" fill="none"><rect width="300" height="150" x="0" y="0" fill="rgba(127, 255, 211, 1)"></rect><path d="M 0,50 C 6.8,68.6 20.4,142 34,143 C 47.6,144 54.4,62.8 68,55 C 81.6,47.2 88.4,105.4 102,104 C 115.6,102.6 122.4,40.6 136,48 C 149.6,55.4 156.4,146.8 170,141 C 183.6,135.2 190.4,24 204,19 C 217.6,14 224.4,113.4 238,116 C 251.6,118.6 259.6,34.2 272,32 C 284.4,29.8 294.4,90.4 300,105L300 150L0 150z" fill="rgba(127, 188, 255, 0.65)"></path><path d="M 0,99 C 4.8,85 14.4,27.4 24,29 C 33.6,30.6 38.4,109.2 48,107 C 57.6,104.8 62.4,19.6 72,18 C 81.6,16.4 86.4,92.6 96,99 C 105.6,105.4 110.4,44.6 120,50 C 129.6,55.4 134.4,127.6 144,126 C 153.6,124.4 158.4,40.4 168,42 C 177.6,43.6 182.4,131.6 192,134 C 201.6,136.4 206.4,63 216,54 C 225.6,45 230.4,96 240,89 C 249.6,82 254.4,13.6 264,19 C 273.6,24.4 280.8,114.4 288,116 C 295.2,117.6 297.6,44.8 300,27L300 150L0 150z" fill="rgba(74, 189, 150, 0.61)"></path></g><defs><mask id="SvgjsMask1039"><rect width="300" height="150" fill="#ffffff"></rect></mask></defs></svg>