<svg xmlns="http://www.w3.org/2000/svg" version="1.1" xmlns:xlink="http://www.w3.org/1999/xlink" xmlns:svgjs="http://svgjs.com/svgjs" width="300" height="150" preserveAspectRatio="none" viewBox="0 0 300 150"><g mask="url(&quot;#SvgjsMask1039&quot;)" fill="none"><rect width="300" height="150" x="0" y="0" fill="rgba(127, 255, 211, 1)"></rect><path d="M6 150L156 0L195 0L45 150z" fill="url(#SvgjsLinearGradient1040)"></path><path d="M119 150L269 0L389 0L239 150z" fill="url(#SvgjsLinearGradient1040)"></path><path d="M296 150L146 0L128 0L278 150z" fill="url(#SvgjsLinearGradient1041)"></path><path d="M190 150L40 0L-18.5 0L131.5 150z" fill="url(#SvgjsLinearGradient1041)"></path><path d="M181.73324787910593 150L300 31.73324787910593L300 150z" fill="url(#SvgjsLinearGradient1040)"></path><path d="M0 150L118.26675212089407 150L 0 31.73324787910593z" fill="url(#SvgjsLinearGradient1041)"></path></g><defs><mask id="SvgjsMask1039"><rect width="300" height="150" fill="#ffffff"></rect></mask><linearGradient x1="0%" y1="100%" x2="100%" y2="0%" id="SvgjsLinearGradient1040"><stop stop-color="rgba(15, 70, 185, 0.2)" offset="0"></stop><stop stop-opacity="0" stop-color="rgba(15, 70, 185, 0.2)" offset="0.66"></stop></linearGradient><linearGradient x1="100%" y1="100%" x2="0%" y2="0%" id="SvgjsLinearGradient1041"><stop stop-color="rgba(15, 70, 185, 0.2)" offset="0"></stop><stop stop-opacity="0" stop-color="rgba(15, 70, 185, 0.2)" offset="0.66"></stop></linearGradient></defs></svg>