<svg xmlns="http://www.w3.org/2000/svg" version="1.1" xmlns:xlink="http://www.w3.org/1999/xlink" xmlns:svgjs="http://svgjs.com/svgjs" width="1440" height="560" preserveAspectRatio="none" viewBox="0 0 1440 560"><g mask="url(&quot;#SvgjsMask1000&quot;)" fill="none"><rect width="1440" height="560" x="0" y="0" fill="#0e2a47"></rect><path d="M-78.97 390.29L-78.97 390.29" stroke="#132e65" stroke-width="1.5"></path><path d="M-78.97 390.29L-76.71 511.13" stroke="#132e65" stroke-width="1.5"></path><path d="M-78.97 390.29L87.5 390.53" stroke="#132e65" stroke-width="1.5"></path><path d="M-78.97 390.29L51.41 552.35" stroke="#132e65" stroke-width="1.5"></path><path d="M-78.97 390.29L-66.83 647.65" stroke="#132e65" stroke-width="1.5"></path><path d="M-76.71 511.13L-76.71 511.13" stroke="#132e65" stroke-width="1.5"></path><path d="M-76.71 511.13L51.41 552.35" stroke="#132e65" stroke-width="1.5"></path><path d="M-66.83 647.65L-66.83 647.65" stroke="#132e65" stroke-width="1.5"></path><path d="M-66.83 647.65L-76.71 511.13" stroke="#132e65" stroke-width="1.5"></path><path d="M-66.83 647.65L51.41 552.35" stroke="#132e65" stroke-width="1.5"></path><path d="M-66.83 647.65L89.53 690.09" stroke="#132e65" stroke-width="1.5"></path><path d="M-66.83 647.65L213.32 668.6" stroke="#132e65" stroke-width="1.5"></path><path d="M-66.83 647.65L187.9 490.77" stroke="#132e65" stroke-width="1.5"></path><path d="M87.5 390.53L87.5 390.53" stroke="#132e65" stroke-width="1.5"></path><path d="M87.5 390.53L187.9 490.77" stroke="#132e65" stroke-width="1.5"></path><path d="M87.5 390.53L51.41 552.35" stroke="#132e65" stroke-width="1.5"></path><path d="M87.5 390.53L258.13 342.26" stroke="#132e65" stroke-width="1.5"></path><path d="M87.5 390.53L-76.71 511.13" stroke="#132e65" stroke-width="1.5"></path><path d="M87.5 390.53L349.45 387.66" stroke="#132e65" stroke-width="1.5"></path><path d="M51.41 552.35L51.41 552.35" stroke="#132e65" stroke-width="1.5"></path><path d="M51.41 552.35L89.53 690.09" stroke="#132e65" stroke-width="1.5"></path><path d="M51.41 552.35L187.9 490.77" stroke="#132e65" stroke-width="1.5"></path><path d="M89.53 690.09L89.53 690.09" stroke="#132e65" stroke-width="1.5"></path><path d="M89.53 690.09L213.32 668.6" stroke="#132e65" stroke-width="1.5"></path><path d="M89.53 690.09L187.9 490.77" stroke="#132e65" stroke-width="1.5"></path><path d="M258.13 342.26L258.13 342.26" stroke="#132e65" stroke-width="1.5"></path><path d="M258.13 342.26L349.45 387.66" stroke="#132e65" stroke-width="1.5"></path><path d="M258.13 342.26L187.9 490.77" stroke="#132e65" stroke-width="1.5"></path><path d="M187.9 490.77L187.9 490.77" stroke="#132e65" stroke-width="1.5"></path><path d="M187.9 490.77L351.96 509.65" stroke="#132e65" stroke-width="1.5"></path><path d="M187.9 490.77L213.32 668.6" stroke="#132e65" stroke-width="1.5"></path><path d="M213.32 668.6L213.32 668.6" stroke="#132e65" stroke-width="1.5"></path><path d="M213.32 668.6L346.33 656.93" stroke="#132e65" stroke-width="1.5"></path><path d="M349.45 387.66L349.45 387.66" stroke="#132e65" stroke-width="1.5"></path><path d="M349.45 387.66L351.96 509.65" stroke="#132e65" stroke-width="1.5"></path><path d="M349.45 387.66L516.88 371.12" stroke="#132e65" stroke-width="1.5"></path><path d="M351.96 509.65L351.96 509.65" stroke="#132e65" stroke-width="1.5"></path><path d="M351.96 509.65L346.33 656.93" stroke="#132e65" stroke-width="1.5"></path><path d="M346.33 656.93L346.33 656.93" stroke="#132e65" stroke-width="1.5"></path><path d="M516.88 371.12L516.88 371.12" stroke="#132e65" stroke-width="1.5"></path><path d="M516.88 371.12L691.61 358.34" stroke="#132e65" stroke-width="1.5"></path><path d="M516.88 371.12L537.16 551.97" stroke="#132e65" stroke-width="1.5"></path><path d="M516.88 371.12L689.86 252.87" stroke="#132e65" stroke-width="1.5"></path><path d="M516.88 371.12L351.96 509.65" stroke="#132e65" stroke-width="1.5"></path><path d="M516.88 371.12L668.72 558.77" stroke="#132e65" stroke-width="1.5"></path><path d="M537.16 551.97L537.16 551.97" stroke="#132e65" stroke-width="1.5"></path><path d="M537.16 551.97L668.72 558.77" stroke="#132e65" stroke-width="1.5"></path><path d="M537.16 551.97L512.36 700.82" stroke="#132e65" stroke-width="1.5"></path><path d="M537.16 551.97L664.89 638.5" stroke="#132e65" stroke-width="1.5"></path><path d="M537.16 551.97L351.96 509.65" stroke="#132e65" stroke-width="1.5"></path><path d="M537.16 551.97L346.33 656.93" stroke="#132e65" stroke-width="1.5"></path><path d="M512.36 700.82L512.36 700.82" stroke="#132e65" stroke-width="1.5"></path><path d="M512.36 700.82L664.89 638.5" stroke="#132e65" stroke-width="1.5"></path><path d="M512.36 700.82L346.33 656.93" stroke="#132e65" stroke-width="1.5"></path><path d="M512.36 700.82L668.72 558.77" stroke="#132e65" stroke-width="1.5"></path><path d="M512.36 700.82L351.96 509.65" stroke="#132e65" stroke-width="1.5"></path><path d="M689.86 252.87L689.86 252.87" stroke="#132e65" stroke-width="1.5"></path><path d="M689.86 252.87L691.61 358.34" stroke="#132e65" stroke-width="1.5"></path><path d="M689.86 252.87L836.91 192.63" stroke="#132e65" stroke-width="1.5"></path><path d="M689.86 252.87L808.57 394.47" stroke="#132e65" stroke-width="1.5"></path><path d="M691.61 358.34L691.61 358.34" stroke="#132e65" stroke-width="1.5"></path><path d="M691.61 358.34L808.57 394.47" stroke="#132e65" stroke-width="1.5"></path><path d="M691.61 358.34L668.72 558.77" stroke="#132e65" stroke-width="1.5"></path><path d="M691.61 358.34L836.91 192.63" stroke="#132e65" stroke-width="1.5"></path><path d="M691.61 358.34L844.57 543.43" stroke="#132e65" stroke-width="1.5"></path><path d="M668.72 558.77L668.72 558.77" stroke="#132e65" stroke-width="1.5"></path><path d="M668.72 558.77L664.89 638.5" stroke="#132e65" stroke-width="1.5"></path><path d="M668.72 558.77L844.57 543.43" stroke="#132e65" stroke-width="1.5"></path><path d="M664.89 638.5L664.89 638.5" stroke="#132e65" stroke-width="1.5"></path><path d="M836.91 192.63L836.91 192.63" stroke="#132e65" stroke-width="1.5"></path><path d="M836.91 192.63L987.91 217.56" stroke="#132e65" stroke-width="1.5"></path><path d="M808.57 394.47L808.57 394.47" stroke="#132e65" stroke-width="1.5"></path><path d="M808.57 394.47L844.57 543.43" stroke="#132e65" stroke-width="1.5"></path><path d="M808.57 394.47L975.28 363.59" stroke="#132e65" stroke-width="1.5"></path><path d="M808.57 394.47L836.91 192.63" stroke="#132e65" stroke-width="1.5"></path><path d="M808.57 394.47L996.68 493.16" stroke="#132e65" stroke-width="1.5"></path><path d="M844.57 543.43L844.57 543.43" stroke="#132e65" stroke-width="1.5"></path><path d="M844.57 543.43L844.65 685.29" stroke="#132e65" stroke-width="1.5"></path><path d="M844.57 543.43L996.68 493.16" stroke="#132e65" stroke-width="1.5"></path><path d="M844.65 685.29L844.65 685.29" stroke="#132e65" stroke-width="1.5"></path><path d="M844.65 685.29L982.33 680.37" stroke="#132e65" stroke-width="1.5"></path><path d="M844.65 685.29L664.89 638.5" stroke="#132e65" stroke-width="1.5"></path><path d="M844.65 685.29L668.72 558.77" stroke="#132e65" stroke-width="1.5"></path><path d="M844.65 685.29L996.68 493.16" stroke="#132e65" stroke-width="1.5"></path><path d="M938.92 -64.51L938.92 -64.51" stroke="#132e65" stroke-width="1.5"></path><path d="M938.92 -64.51L974.41 78.99" stroke="#132e65" stroke-width="1.5"></path><path d="M938.92 -64.51L1133.9 -69.38" stroke="#132e65" stroke-width="1.5"></path><path d="M938.92 -64.51L1128.26 61.56" stroke="#132e65" stroke-width="1.5"></path><path d="M974.41 78.99L974.41 78.99" stroke="#132e65" stroke-width="1.5"></path><path d="M974.41 78.99L987.91 217.56" stroke="#132e65" stroke-width="1.5"></path><path d="M974.41 78.99L1128.26 61.56" stroke="#132e65" stroke-width="1.5"></path><path d="M974.41 78.99L836.91 192.63" stroke="#132e65" stroke-width="1.5"></path><path d="M974.41 78.99L1126.43 221.12" stroke="#132e65" stroke-width="1.5"></path><path d="M974.41 78.99L1133.9 -69.38" stroke="#132e65" stroke-width="1.5"></path><path d="M987.91 217.56L987.91 217.56" stroke="#132e65" stroke-width="1.5"></path><path d="M987.91 217.56L1126.43 221.12" stroke="#132e65" stroke-width="1.5"></path><path d="M975.28 363.59L975.28 363.59" stroke="#132e65" stroke-width="1.5"></path><path d="M975.28 363.59L996.68 493.16" stroke="#132e65" stroke-width="1.5"></path><path d="M975.28 363.59L1108.99 340.77" stroke="#132e65" stroke-width="1.5"></path><path d="M975.28 363.59L987.91 217.56" stroke="#132e65" stroke-width="1.5"></path><path d="M975.28 363.59L1126.43 221.12" stroke="#132e65" stroke-width="1.5"></path><path d="M975.28 363.59L836.91 192.63" stroke="#132e65" stroke-width="1.5"></path><path d="M996.68 493.16L996.68 493.16" stroke="#132e65" stroke-width="1.5"></path><path d="M982.33 680.37L982.33 680.37" stroke="#132e65" stroke-width="1.5"></path><path d="M982.33 680.37L1155.87 654.56" stroke="#132e65" stroke-width="1.5"></path><path d="M1133.9 -69.38L1133.9 -69.38" stroke="#132e65" stroke-width="1.5"></path><path d="M1133.9 -69.38L1128.26 61.56" stroke="#132e65" stroke-width="1.5"></path><path d="M1128.26 61.56L1128.26 61.56" stroke="#132e65" stroke-width="1.5"></path><path d="M1128.26 61.56L1126.43 221.12" stroke="#132e65" stroke-width="1.5"></path><path d="M1128.26 61.56L1307.64 99.84" stroke="#132e65" stroke-width="1.5"></path><path d="M1128.26 61.56L1270.4 203.97" stroke="#132e65" stroke-width="1.5"></path><path d="M1128.26 61.56L987.91 217.56" stroke="#132e65" stroke-width="1.5"></path><path d="M1126.43 221.12L1126.43 221.12" stroke="#132e65" stroke-width="1.5"></path><path d="M1126.43 221.12L1108.99 340.77" stroke="#132e65" stroke-width="1.5"></path><path d="M1126.43 221.12L1270.4 203.97" stroke="#132e65" stroke-width="1.5"></path><path d="M1108.99 340.77L1108.99 340.77" stroke="#132e65" stroke-width="1.5"></path><path d="M1155.87 654.56L1155.87 654.56" stroke="#132e65" stroke-width="1.5"></path><path d="M1155.87 654.56L1262.92 639.76" stroke="#132e65" stroke-width="1.5"></path><path d="M1155.87 654.56L1286.66 521.59" stroke="#132e65" stroke-width="1.5"></path><path d="M1155.87 654.56L996.68 493.16" stroke="#132e65" stroke-width="1.5"></path><path d="M1155.87 654.56L1428.28 639.75" stroke="#132e65" stroke-width="1.5"></path><path d="M1155.87 654.56L1286.15 371.36" stroke="#132e65" stroke-width="1.5"></path><path d="M1307.64 99.84L1307.64 99.84" stroke="#132e65" stroke-width="1.5"></path><path d="M1307.64 99.84L1270.4 203.97" stroke="#132e65" stroke-width="1.5"></path><path d="M1307.64 99.84L1435.19 202.8" stroke="#132e65" stroke-width="1.5"></path><path d="M1307.64 99.84L1126.43 221.12" stroke="#132e65" stroke-width="1.5"></path><path d="M1307.64 99.84L1442.84 -74.77" stroke="#132e65" stroke-width="1.5"></path><path d="M1270.4 203.97L1270.4 203.97" stroke="#132e65" stroke-width="1.5"></path><path d="M1270.4 203.97L1435.19 202.8" stroke="#132e65" stroke-width="1.5"></path><path d="M1270.4 203.97L1286.15 371.36" stroke="#132e65" stroke-width="1.5"></path><path d="M1286.15 371.36L1286.15 371.36" stroke="#132e65" stroke-width="1.5"></path><path d="M1286.15 371.36L1426.59 346.6" stroke="#132e65" stroke-width="1.5"></path><path d="M1286.15 371.36L1286.66 521.59" stroke="#132e65" stroke-width="1.5"></path><path d="M1286.15 371.36L1108.99 340.77" stroke="#132e65" stroke-width="1.5"></path><path d="M1286.66 521.59L1286.66 521.59" stroke="#132e65" stroke-width="1.5"></path><path d="M1286.66 521.59L1262.92 639.76" stroke="#132e65" stroke-width="1.5"></path><path d="M1262.92 639.76L1262.92 639.76" stroke="#132e65" stroke-width="1.5"></path><path d="M1262.92 639.76L1428.28 639.75" stroke="#132e65" stroke-width="1.5"></path><path d="M1262.92 639.76L1455.58 508.46" stroke="#132e65" stroke-width="1.5"></path><path d="M1262.92 639.76L1286.15 371.36" stroke="#132e65" stroke-width="1.5"></path><path d="M1262.92 639.76L982.33 680.37" stroke="#132e65" stroke-width="1.5"></path><path d="M1442.84 -74.77L1442.84 -74.77" stroke="#132e65" stroke-width="1.5"></path><path d="M1442.84 -74.77L1557.21 -76.34" stroke="#132e65" stroke-width="1.5"></path><path d="M1442.84 -74.77L1544.16 112.37" stroke="#132e65" stroke-width="1.5"></path><path d="M1442.84 -74.77L1435.19 202.8" stroke="#132e65" stroke-width="1.5"></path><path d="M1442.84 -74.77L1133.9 -69.38" stroke="#132e65" stroke-width="1.5"></path><path d="M1435.19 202.8L1435.19 202.8" stroke="#132e65" stroke-width="1.5"></path><path d="M1435.19 202.8L1544.16 112.37" stroke="#132e65" stroke-width="1.5"></path><path d="M1435.19 202.8L1426.59 346.6" stroke="#132e65" stroke-width="1.5"></path><path d="M1435.19 202.8L1579.45 248.02" stroke="#132e65" stroke-width="1.5"></path><path d="M1426.59 346.6L1426.59 346.6" stroke="#132e65" stroke-width="1.5"></path><path d="M1426.59 346.6L1566.48 378.99" stroke="#132e65" stroke-width="1.5"></path><path d="M1426.59 346.6L1455.58 508.46" stroke="#132e65" stroke-width="1.5"></path><path d="M1455.58 508.46L1455.58 508.46" stroke="#132e65" stroke-width="1.5"></path><path d="M1455.58 508.46L1568.75 506.56" stroke="#132e65" stroke-width="1.5"></path><path d="M1455.58 508.46L1428.28 639.75" stroke="#132e65" stroke-width="1.5"></path><path d="M1428.28 639.75L1428.28 639.75" stroke="#132e65" stroke-width="1.5"></path><path d="M1428.28 639.75L1551.09 675.45" stroke="#132e65" stroke-width="1.5"></path><path d="M1428.28 639.75L1286.66 521.59" stroke="#132e65" stroke-width="1.5"></path><path d="M1557.21 -76.34L1557.21 -76.34" stroke="#132e65" stroke-width="1.5"></path><path d="M1557.21 -76.34L1544.16 112.37" stroke="#132e65" stroke-width="1.5"></path><path d="M1557.21 -76.34L1435.19 202.8" stroke="#132e65" stroke-width="1.5"></path><path d="M1557.21 -76.34L1307.64 99.84" stroke="#132e65" stroke-width="1.5"></path><path d="M1557.21 -76.34L1579.45 248.02" stroke="#132e65" stroke-width="1.5"></path><path d="M1544.16 112.37L1544.16 112.37" stroke="#132e65" stroke-width="1.5"></path><path d="M1544.16 112.37L1579.45 248.02" stroke="#132e65" stroke-width="1.5"></path><path d="M1579.45 248.02L1579.45 248.02" stroke="#132e65" stroke-width="1.5"></path><path d="M1579.45 248.02L1566.48 378.99" stroke="#132e65" stroke-width="1.5"></path><path d="M1579.45 248.02L1426.59 346.6" stroke="#132e65" stroke-width="1.5"></path><path d="M1566.48 378.99L1566.48 378.99" stroke="#132e65" stroke-width="1.5"></path><path d="M1566.48 378.99L1568.75 506.56" stroke="#132e65" stroke-width="1.5"></path><path d="M1566.48 378.99L1455.58 508.46" stroke="#132e65" stroke-width="1.5"></path><path d="M1568.75 506.56L1568.75 506.56" stroke="#132e65" stroke-width="1.5"></path><path d="M1551.09 675.45L1551.09 675.45" stroke="#132e65" stroke-width="1.5"></path><path d="M1551.09 675.45L1568.75 506.56" stroke="#132e65" stroke-width="1.5"></path><path d="M1551.09 675.45L1455.58 508.46" stroke="#132e65" stroke-width="1.5"></path><path d="M1551.09 675.45L1262.92 639.76" stroke="#132e65" stroke-width="1.5"></path><path d="M1551.09 675.45L1566.48 378.99" stroke="#132e65" stroke-width="1.5"></path><circle r="5" cx="-78.97" cy="390.29" fill="#132e65"></circle><circle r="5" cx="-76.71" cy="511.13" fill="#132e65"></circle><circle r="5" cx="-66.83" cy="647.65" fill="#132e65"></circle><circle r="5" cx="87.5" cy="390.53" fill="#132e65"></circle><circle r="5" cx="51.41" cy="552.35" fill="#132e65"></circle><circle r="5" cx="89.53" cy="690.09" fill="#132e65"></circle><circle r="5" cx="258.13" cy="342.26" fill="#132e65"></circle><circle r="5" cx="187.9" cy="490.77" fill="#132e65"></circle><circle r="5" cx="213.32" cy="668.6" fill="#132e65"></circle><circle r="5" cx="349.45" cy="387.66" fill="#132e65"></circle><circle r="5" cx="351.96" cy="509.65" fill="#132e65"></circle><circle r="5" cx="346.33" cy="656.93" fill="#132e65"></circle><circle r="5" cx="516.88" cy="371.12" fill="#132e65"></circle><circle r="5" cx="537.16" cy="551.97" fill="#132e65"></circle><circle r="5" cx="512.36" cy="700.82" fill="#132e65"></circle><circle r="5" cx="689.86" cy="252.87" fill="#132e65"></circle><circle r="5" cx="691.61" cy="358.34" fill="#132e65"></circle><circle r="5" cx="668.72" cy="558.77" fill="#132e65"></circle><circle r="5" cx="664.89" cy="638.5" fill="#132e65"></circle><circle r="5" cx="836.91" cy="192.63" fill="#132e65"></circle><circle r="5" cx="808.57" cy="394.47" fill="#132e65"></circle><circle r="5" cx="844.57" cy="543.43" fill="#132e65"></circle><circle r="5" cx="844.65" cy="685.29" fill="#132e65"></circle><circle r="5" cx="938.92" cy="-64.51" fill="#132e65"></circle><circle r="5" cx="974.41" cy="78.99" fill="#132e65"></circle><circle r="5" cx="987.91" cy="217.56" fill="#132e65"></circle><circle r="5" cx="975.28" cy="363.59" fill="#132e65"></circle><circle r="5" cx="996.68" cy="493.16" fill="#132e65"></circle><circle r="5" cx="982.33" cy="680.37" fill="#132e65"></circle><circle r="5" cx="1133.9" cy="-69.38" fill="#132e65"></circle><circle r="5" cx="1128.26" cy="61.56" fill="#132e65"></circle><circle r="5" cx="1126.43" cy="221.12" fill="#132e65"></circle><circle r="5" cx="1108.99" cy="340.77" fill="#132e65"></circle><circle r="5" cx="1155.87" cy="654.56" fill="#132e65"></circle><circle r="5" cx="1307.64" cy="99.84" fill="#132e65"></circle><circle r="5" cx="1270.4" cy="203.97" fill="#132e65"></circle><circle r="5" cx="1286.15" cy="371.36" fill="#132e65"></circle><circle r="5" cx="1286.66" cy="521.59" fill="#132e65"></circle><circle r="5" cx="1262.92" cy="639.76" fill="#132e65"></circle><circle r="5" cx="1442.84" cy="-74.77" fill="#132e65"></circle><circle r="5" cx="1435.19" cy="202.8" fill="#132e65"></circle><circle r="5" cx="1426.59" cy="346.6" fill="#132e65"></circle><circle r="5" cx="1455.58" cy="508.46" fill="#132e65"></circle><circle r="5" cx="1428.28" cy="639.75" fill="#132e65"></circle><circle r="5" cx="1557.21" cy="-76.34" fill="#132e65"></circle><circle r="5" cx="1544.16" cy="112.37" fill="#132e65"></circle><circle r="5" cx="1579.45" cy="248.02" fill="#132e65"></circle><circle r="5" cx="1566.48" cy="378.99" fill="#132e65"></circle><circle r="5" cx="1568.75" cy="506.56" fill="#132e65"></circle><circle r="5" cx="1551.09" cy="675.45" fill="#132e65"></circle><path d="M507.11 523.5L507.11 523.5" stroke="hsl(228.5, 77.2%, 51.5%)" stroke-width="1.5"></path><path d="M507.11 523.5L399.38 640.07" stroke="hsl(228.5, 77.2%, 51.5%)" stroke-width="1.5"></path><path d="M507.11 523.5L338.79 507.34" stroke="hsl(228.5, 77.2%, 51.5%)" stroke-width="1.5"></path><path d="M507.11 523.5L679.54 559.99" stroke="hsl(228.5, 77.2%, 51.5%)" stroke-width="1.5"></path><path d="M949.26 545.2L949.26 545.2" stroke="hsl(228.5, 77.2%, 51.5%)" stroke-width="1.5"></path><path d="M949.26 545.2L999.74 668.58" stroke="hsl(228.5, 77.2%, 51.5%)" stroke-width="1.5"></path><path d="M949.26 545.2L797.32 508" stroke="hsl(228.5, 77.2%, 51.5%)" stroke-width="1.5"></path><path d="M1100.11 223.44L1100.11 223.44" stroke="hsl(228.5, 77.2%, 51.5%)" stroke-width="1.5"></path><path d="M1100.11 223.44L1239.75 234.26" stroke="hsl(228.5, 77.2%, 51.5%)" stroke-width="1.5"></path><path d="M1100.11 223.44L1004.73 352.37" stroke="hsl(228.5, 77.2%, 51.5%)" stroke-width="1.5"></path><path d="M1100.11 223.44L1125.63 392.59" stroke="hsl(228.5, 77.2%, 51.5%)" stroke-width="1.5"></path><path d="M1100.11 223.44L1254.05 355.33" stroke="hsl(228.5, 77.2%, 51.5%)" stroke-width="1.5"></path><path d="M1161.23 640.28L1161.23 640.28" stroke="hsl(228.5, 77.2%, 51.5%)" stroke-width="1.5"></path><path d="M1161.23 640.28L1279.18 643.02" stroke="hsl(228.5, 77.2%, 51.5%)" stroke-width="1.5"></path><path d="M1161.23 640.28L1131.22 506.24" stroke="hsl(228.5, 77.2%, 51.5%)" stroke-width="1.5"></path><path d="M1161.23 640.28L1280.54 548.94" stroke="hsl(228.5, 77.2%, 51.5%)" stroke-width="1.5"></path><path d="M1272.52 112.28L1272.52 112.28" stroke="hsl(228.5, 77.2%, 51.5%)" stroke-width="1.5"></path><path d="M1272.52 112.28L1239.75 234.26" stroke="hsl(228.5, 77.2%, 51.5%)" stroke-width="1.5"></path><path d="M1272.52 112.28L1398.02 59.5" stroke="hsl(228.5, 77.2%, 51.5%)" stroke-width="1.5"></path><path d="M1272.52 112.28L1241.29 -67.75" stroke="hsl(228.5, 77.2%, 51.5%)" stroke-width="1.5"></path><path d="M1272.52 112.28L1100.11 223.44" stroke="hsl(228.5, 77.2%, 51.5%)" stroke-width="1.5"></path><path d="M1272.52 112.28L1432.45 258.92" stroke="hsl(228.5, 77.2%, 51.5%)" stroke-width="1.5"></path><path d="M1432.45 258.92L1432.45 258.92" stroke="hsl(228.5, 77.2%, 51.5%)" stroke-width="1.5"></path><path d="M1432.45 258.92L1461.35 361.91" stroke="hsl(228.5, 77.2%, 51.5%)" stroke-width="1.5"></path><path d="M1432.45 258.92L1571.97 218.28" stroke="hsl(228.5, 77.2%, 51.5%)" stroke-width="1.5"></path><path d="M1432.45 258.92L1239.75 234.26" stroke="hsl(228.5, 77.2%, 51.5%)" stroke-width="1.5"></path><path d="M1413.08 556.86L1413.08 556.86" stroke="hsl(228.5, 77.2%, 51.5%)" stroke-width="1.5"></path><path d="M1413.08 556.86L1280.54 548.94" stroke="hsl(228.5, 77.2%, 51.5%)" stroke-width="1.5"></path><path d="M1413.08 556.86L1423.88 695.75" stroke="hsl(228.5, 77.2%, 51.5%)" stroke-width="1.5"></path><path d="M1413.08 556.86L1551.3 495.78" stroke="hsl(228.5, 77.2%, 51.5%)" stroke-width="1.5"></path><path d="M-45.94 494.75L-45.94 494.75" stroke="hsl(228.5, 77.2%, 51.5%)" stroke-width="1.5"></path><path d="M-45.94 494.75L65.05 491.34" stroke="hsl(228.5, 77.2%, 51.5%)" stroke-width="1.5"></path><path d="M-45.94 494.75L-84.98 709.56" stroke="hsl(228.5, 77.2%, 51.5%)" stroke-width="1.5"></path><path d="M-45.94 494.75L66.66 698.78" stroke="hsl(228.5, 77.2%, 51.5%)" stroke-width="1.5"></path><path d="M-45.94 494.75L211.65 529.68" stroke="hsl(228.5, 77.2%, 51.5%)" stroke-width="1.5"></path><path d="M-45.94 494.75L230.63 648.52" stroke="hsl(228.5, 77.2%, 51.5%)" stroke-width="1.5"></path><path d="M-84.98 709.56L-84.98 709.56" stroke="hsl(228.5, 77.2%, 51.5%)" stroke-width="1.5"></path><path d="M-84.98 709.56L66.66 698.78" stroke="hsl(228.5, 77.2%, 51.5%)" stroke-width="1.5"></path><path d="M65.05 491.34L65.05 491.34" stroke="hsl(228.5, 77.2%, 51.5%)" stroke-width="1.5"></path><path d="M65.05 491.34L211.65 529.68" stroke="hsl(228.5, 77.2%, 51.5%)" stroke-width="1.5"></path><path d="M65.05 491.34L66.66 698.78" stroke="hsl(228.5, 77.2%, 51.5%)" stroke-width="1.5"></path><path d="M65.05 491.34L230.63 648.52" stroke="hsl(228.5, 77.2%, 51.5%)" stroke-width="1.5"></path><path d="M65.05 491.34L-84.98 709.56" stroke="hsl(228.5, 77.2%, 51.5%)" stroke-width="1.5"></path><path d="M65.05 491.34L338.79 507.34" stroke="hsl(228.5, 77.2%, 51.5%)" stroke-width="1.5"></path><path d="M66.66 698.78L66.66 698.78" stroke="hsl(228.5, 77.2%, 51.5%)" stroke-width="1.5"></path><path d="M66.66 698.78L230.63 648.52" stroke="hsl(228.5, 77.2%, 51.5%)" stroke-width="1.5"></path><path d="M66.66 698.78L211.65 529.68" stroke="hsl(228.5, 77.2%, 51.5%)" stroke-width="1.5"></path><path d="M66.66 698.78L338.79 507.34" stroke="hsl(228.5, 77.2%, 51.5%)" stroke-width="1.5"></path><path d="M211.65 529.68L211.65 529.68" stroke="hsl(228.5, 77.2%, 51.5%)" stroke-width="1.5"></path><path d="M211.65 529.68L230.63 648.52" stroke="hsl(228.5, 77.2%, 51.5%)" stroke-width="1.5"></path><path d="M230.63 648.52L230.63 648.52" stroke="hsl(228.5, 77.2%, 51.5%)" stroke-width="1.5"></path><path d="M230.63 648.52L399.38 640.07" stroke="hsl(228.5, 77.2%, 51.5%)" stroke-width="1.5"></path><path d="M230.63 648.52L338.79 507.34" stroke="hsl(228.5, 77.2%, 51.5%)" stroke-width="1.5"></path><path d="M230.63 648.52L507.11 523.5" stroke="hsl(228.5, 77.2%, 51.5%)" stroke-width="1.5"></path><path d="M338.79 507.34L338.79 507.34" stroke="hsl(228.5, 77.2%, 51.5%)" stroke-width="1.5"></path><path d="M338.79 507.34L211.65 529.68" stroke="hsl(228.5, 77.2%, 51.5%)" stroke-width="1.5"></path><path d="M338.79 507.34L399.38 640.07" stroke="hsl(228.5, 77.2%, 51.5%)" stroke-width="1.5"></path><path d="M399.38 640.07L399.38 640.07" stroke="hsl(228.5, 77.2%, 51.5%)" stroke-width="1.5"></path><path d="M399.38 640.07L534.09 702.46" stroke="hsl(228.5, 77.2%, 51.5%)" stroke-width="1.5"></path><path d="M534.09 702.46L534.09 702.46" stroke="hsl(228.5, 77.2%, 51.5%)" stroke-width="1.5"></path><path d="M534.09 702.46L647.67 673.87" stroke="hsl(228.5, 77.2%, 51.5%)" stroke-width="1.5"></path><path d="M690.06 399.57L690.06 399.57" stroke="hsl(228.5, 77.2%, 51.5%)" stroke-width="1.5"></path><path d="M690.06 399.57L806.76 387.95" stroke="hsl(228.5, 77.2%, 51.5%)" stroke-width="1.5"></path><path d="M690.06 399.57L797.32 508" stroke="hsl(228.5, 77.2%, 51.5%)" stroke-width="1.5"></path><path d="M690.06 399.57L679.54 559.99" stroke="hsl(228.5, 77.2%, 51.5%)" stroke-width="1.5"></path><path d="M690.06 399.57L507.11 523.5" stroke="hsl(228.5, 77.2%, 51.5%)" stroke-width="1.5"></path><path d="M690.06 399.57L647.67 673.87" stroke="hsl(228.5, 77.2%, 51.5%)" stroke-width="1.5"></path><path d="M690.06 399.57L949.26 545.2" stroke="hsl(228.5, 77.2%, 51.5%)" stroke-width="1.5"></path><path d="M679.54 559.99L679.54 559.99" stroke="hsl(228.5, 77.2%, 51.5%)" stroke-width="1.5"></path><path d="M679.54 559.99L647.67 673.87" stroke="hsl(228.5, 77.2%, 51.5%)" stroke-width="1.5"></path><path d="M679.54 559.99L797.32 508" stroke="hsl(228.5, 77.2%, 51.5%)" stroke-width="1.5"></path><path d="M679.54 559.99L797.09 697.66" stroke="hsl(228.5, 77.2%, 51.5%)" stroke-width="1.5"></path><path d="M679.54 559.99L534.09 702.46" stroke="hsl(228.5, 77.2%, 51.5%)" stroke-width="1.5"></path><path d="M647.67 673.87L647.67 673.87" stroke="hsl(228.5, 77.2%, 51.5%)" stroke-width="1.5"></path><path d="M806.76 387.95L806.76 387.95" stroke="hsl(228.5, 77.2%, 51.5%)" stroke-width="1.5"></path><path d="M806.76 387.95L797.32 508" stroke="hsl(228.5, 77.2%, 51.5%)" stroke-width="1.5"></path><path d="M806.76 387.95L1004.73 352.37" stroke="hsl(228.5, 77.2%, 51.5%)" stroke-width="1.5"></path><path d="M806.76 387.95L949.26 545.2" stroke="hsl(228.5, 77.2%, 51.5%)" stroke-width="1.5"></path><path d="M806.76 387.95L679.54 559.99" stroke="hsl(228.5, 77.2%, 51.5%)" stroke-width="1.5"></path><path d="M806.76 387.95L797.09 697.66" stroke="hsl(228.5, 77.2%, 51.5%)" stroke-width="1.5"></path><path d="M797.32 508L797.32 508" stroke="hsl(228.5, 77.2%, 51.5%)" stroke-width="1.5"></path><path d="M797.32 508L797.09 697.66" stroke="hsl(228.5, 77.2%, 51.5%)" stroke-width="1.5"></path><path d="M797.09 697.66L797.09 697.66" stroke="hsl(228.5, 77.2%, 51.5%)" stroke-width="1.5"></path><path d="M797.09 697.66L647.67 673.87" stroke="hsl(228.5, 77.2%, 51.5%)" stroke-width="1.5"></path><path d="M1004.73 352.37L1004.73 352.37" stroke="hsl(228.5, 77.2%, 51.5%)" stroke-width="1.5"></path><path d="M1004.73 352.37L1125.63 392.59" stroke="hsl(228.5, 77.2%, 51.5%)" stroke-width="1.5"></path><path d="M999.74 668.58L999.74 668.58" stroke="hsl(228.5, 77.2%, 51.5%)" stroke-width="1.5"></path><path d="M999.74 668.58L1161.23 640.28" stroke="hsl(228.5, 77.2%, 51.5%)" stroke-width="1.5"></path><path d="M999.74 668.58L797.09 697.66" stroke="hsl(228.5, 77.2%, 51.5%)" stroke-width="1.5"></path><path d="M999.74 668.58L1131.22 506.24" stroke="hsl(228.5, 77.2%, 51.5%)" stroke-width="1.5"></path><path d="M1125.63 392.59L1125.63 392.59" stroke="hsl(228.5, 77.2%, 51.5%)" stroke-width="1.5"></path><path d="M1125.63 392.59L1131.22 506.24" stroke="hsl(228.5, 77.2%, 51.5%)" stroke-width="1.5"></path><path d="M1125.63 392.59L1254.05 355.33" stroke="hsl(228.5, 77.2%, 51.5%)" stroke-width="1.5"></path><path d="M1131.22 506.24L1131.22 506.24" stroke="hsl(228.5, 77.2%, 51.5%)" stroke-width="1.5"></path><path d="M1131.22 506.24L1280.54 548.94" stroke="hsl(228.5, 77.2%, 51.5%)" stroke-width="1.5"></path><path d="M1131.22 506.24L949.26 545.2" stroke="hsl(228.5, 77.2%, 51.5%)" stroke-width="1.5"></path><path d="M1241.29 -67.75L1241.29 -67.75" stroke="hsl(228.5, 77.2%, 51.5%)" stroke-width="1.5"></path><path d="M1241.29 -67.75L1422.58 -58.21" stroke="hsl(228.5, 77.2%, 51.5%)" stroke-width="1.5"></path><path d="M1241.29 -67.75L1398.02 59.5" stroke="hsl(228.5, 77.2%, 51.5%)" stroke-width="1.5"></path><path d="M1241.29 -67.75L1239.75 234.26" stroke="hsl(228.5, 77.2%, 51.5%)" stroke-width="1.5"></path><path d="M1241.29 -67.75L1100.11 223.44" stroke="hsl(228.5, 77.2%, 51.5%)" stroke-width="1.5"></path><path d="M1239.75 234.26L1239.75 234.26" stroke="hsl(228.5, 77.2%, 51.5%)" stroke-width="1.5"></path><path d="M1239.75 234.26L1254.05 355.33" stroke="hsl(228.5, 77.2%, 51.5%)" stroke-width="1.5"></path><path d="M1254.05 355.33L1254.05 355.33" stroke="hsl(228.5, 77.2%, 51.5%)" stroke-width="1.5"></path><path d="M1254.05 355.33L1131.22 506.24" stroke="hsl(228.5, 77.2%, 51.5%)" stroke-width="1.5"></path><path d="M1254.05 355.33L1280.54 548.94" stroke="hsl(228.5, 77.2%, 51.5%)" stroke-width="1.5"></path><path d="M1254.05 355.33L1432.45 258.92" stroke="hsl(228.5, 77.2%, 51.5%)" stroke-width="1.5"></path><path d="M1280.54 548.94L1280.54 548.94" stroke="hsl(228.5, 77.2%, 51.5%)" stroke-width="1.5"></path><path d="M1280.54 548.94L1279.18 643.02" stroke="hsl(228.5, 77.2%, 51.5%)" stroke-width="1.5"></path><path d="M1279.18 643.02L1279.18 643.02" stroke="hsl(228.5, 77.2%, 51.5%)" stroke-width="1.5"></path><path d="M1422.58 -58.21L1422.58 -58.21" stroke="hsl(228.5, 77.2%, 51.5%)" stroke-width="1.5"></path><path d="M1422.58 -58.21L1398.02 59.5" stroke="hsl(228.5, 77.2%, 51.5%)" stroke-width="1.5"></path><path d="M1398.02 59.5L1398.02 59.5" stroke="hsl(228.5, 77.2%, 51.5%)" stroke-width="1.5"></path><path d="M1398.02 59.5L1558.38 107.66" stroke="hsl(228.5, 77.2%, 51.5%)" stroke-width="1.5"></path><path d="M1461.35 361.91L1461.35 361.91" stroke="hsl(228.5, 77.2%, 51.5%)" stroke-width="1.5"></path><path d="M1461.35 361.91L1598.25 365.31" stroke="hsl(228.5, 77.2%, 51.5%)" stroke-width="1.5"></path><path d="M1461.35 361.91L1551.3 495.78" stroke="hsl(228.5, 77.2%, 51.5%)" stroke-width="1.5"></path><path d="M1461.35 361.91L1571.97 218.28" stroke="hsl(228.5, 77.2%, 51.5%)" stroke-width="1.5"></path><path d="M1461.35 361.91L1413.08 556.86" stroke="hsl(228.5, 77.2%, 51.5%)" stroke-width="1.5"></path><path d="M1461.35 361.91L1254.05 355.33" stroke="hsl(228.5, 77.2%, 51.5%)" stroke-width="1.5"></path><path d="M1423.88 695.75L1423.88 695.75" stroke="hsl(228.5, 77.2%, 51.5%)" stroke-width="1.5"></path><path d="M1423.88 695.75L1565.84 666.58" stroke="hsl(228.5, 77.2%, 51.5%)" stroke-width="1.5"></path><path d="M1423.88 695.75L1279.18 643.02" stroke="hsl(228.5, 77.2%, 51.5%)" stroke-width="1.5"></path><path d="M1423.88 695.75L1280.54 548.94" stroke="hsl(228.5, 77.2%, 51.5%)" stroke-width="1.5"></path><path d="M1423.88 695.75L1551.3 495.78" stroke="hsl(228.5, 77.2%, 51.5%)" stroke-width="1.5"></path><path d="M1604.35 -86.21L1604.35 -86.21" stroke="hsl(228.5, 77.2%, 51.5%)" stroke-width="1.5"></path><path d="M1604.35 -86.21L1422.58 -58.21" stroke="hsl(228.5, 77.2%, 51.5%)" stroke-width="1.5"></path><path d="M1558.38 107.66L1558.38 107.66" stroke="hsl(228.5, 77.2%, 51.5%)" stroke-width="1.5"></path><path d="M1558.38 107.66L1571.97 218.28" stroke="hsl(228.5, 77.2%, 51.5%)" stroke-width="1.5"></path><path d="M1571.97 218.28L1571.97 218.28" stroke="hsl(228.5, 77.2%, 51.5%)" stroke-width="1.5"></path><path d="M1571.97 218.28L1598.25 365.31" stroke="hsl(228.5, 77.2%, 51.5%)" stroke-width="1.5"></path><path d="M1598.25 365.31L1598.25 365.31" stroke="hsl(228.5, 77.2%, 51.5%)" stroke-width="1.5"></path><path d="M1598.25 365.31L1551.3 495.78" stroke="hsl(228.5, 77.2%, 51.5%)" stroke-width="1.5"></path><path d="M1598.25 365.31L1432.45 258.92" stroke="hsl(228.5, 77.2%, 51.5%)" stroke-width="1.5"></path><path d="M1551.3 495.78L1551.3 495.78" stroke="hsl(228.5, 77.2%, 51.5%)" stroke-width="1.5"></path><path d="M1565.84 666.58L1565.84 666.58" stroke="hsl(228.5, 77.2%, 51.5%)" stroke-width="1.5"></path><path d="M1565.84 666.58L1551.3 495.78" stroke="hsl(228.5, 77.2%, 51.5%)" stroke-width="1.5"></path><path d="M1565.84 666.58L1413.08 556.86" stroke="hsl(228.5, 77.2%, 51.5%)" stroke-width="1.5"></path><path d="M1565.84 666.58L1279.18 643.02" stroke="hsl(228.5, 77.2%, 51.5%)" stroke-width="1.5"></path><path d="M1565.84 666.58L1598.25 365.31" stroke="hsl(228.5, 77.2%, 51.5%)" stroke-width="1.5"></path><path d="M1565.84 666.58L1280.54 548.94" stroke="hsl(228.5, 77.2%, 51.5%)" stroke-width="1.5"></path><circle r="25" cx="507.11" cy="523.5" fill="url(#SvgjsRadialGradient1001)"></circle><circle r="25" cx="949.26" cy="545.2" fill="url(#SvgjsRadialGradient1001)"></circle><circle r="25" cx="1100.11" cy="223.44" fill="url(#SvgjsRadialGradient1001)"></circle><circle r="25" cx="1161.23" cy="640.28" fill="url(#SvgjsRadialGradient1001)"></circle><circle r="25" cx="1272.52" cy="112.28" fill="url(#SvgjsRadialGradient1001)"></circle><circle r="25" cx="1432.45" cy="258.92" fill="url(#SvgjsRadialGradient1001)"></circle><circle r="25" cx="1413.08" cy="556.86" fill="url(#SvgjsRadialGradient1001)"></circle><circle r="5" cx="-45.94" cy="494.75" fill="#8b9ad9"></circle><circle r="5" cx="-84.98" cy="709.56" fill="#8b9ad9"></circle><circle r="5" cx="65.05" cy="491.34" fill="#8b9ad9"></circle><circle r="5" cx="66.66" cy="698.78" fill="#8b9ad9"></circle><circle r="5" cx="211.65" cy="529.68" fill="#8b9ad9"></circle><circle r="5" cx="230.63" cy="648.52" fill="#8b9ad9"></circle><circle r="5" cx="338.79" cy="507.34" fill="#8b9ad9"></circle><circle r="5" cx="399.38" cy="640.07" fill="#8b9ad9"></circle><circle r="5" cx="534.09" cy="702.46" fill="#8b9ad9"></circle><circle r="5" cx="690.06" cy="399.57" fill="#8b9ad9"></circle><circle r="5" cx="679.54" cy="559.99" fill="#8b9ad9"></circle><circle r="5" cx="647.67" cy="673.87" fill="#8b9ad9"></circle><circle r="5" cx="806.76" cy="387.95" fill="#8b9ad9"></circle><circle r="5" cx="797.32" cy="508" fill="#8b9ad9"></circle><circle r="5" cx="797.09" cy="697.66" fill="#8b9ad9"></circle><circle r="5" cx="1004.73" cy="352.37" fill="#8b9ad9"></circle><circle r="5" cx="999.74" cy="668.58" fill="#8b9ad9"></circle><circle r="5" cx="1125.63" cy="392.59" fill="#8b9ad9"></circle><circle r="5" cx="1131.22" cy="506.24" fill="#8b9ad9"></circle><circle r="5" cx="1241.29" cy="-67.75" fill="#8b9ad9"></circle><circle r="5" cx="1239.75" cy="234.26" fill="#8b9ad9"></circle><circle r="5" cx="1254.05" cy="355.33" fill="#8b9ad9"></circle><circle r="5" cx="1280.54" cy="548.94" fill="#8b9ad9"></circle><circle r="5" cx="1279.18" cy="643.02" fill="#8b9ad9"></circle><circle r="5" cx="1422.58" cy="-58.21" fill="#8b9ad9"></circle><circle r="5" cx="1398.02" cy="59.5" fill="#8b9ad9"></circle><circle r="5" cx="1461.35" cy="361.91" fill="#8b9ad9"></circle><circle r="5" cx="1423.88" cy="695.75" fill="#8b9ad9"></circle><circle r="5" cx="1604.35" cy="-86.21" fill="#8b9ad9"></circle><circle r="5" cx="1558.38" cy="107.66" fill="#8b9ad9"></circle><circle r="5" cx="1571.97" cy="218.28" fill="#8b9ad9"></circle><circle r="5" cx="1598.25" cy="365.31" fill="#8b9ad9"></circle><circle r="5" cx="1551.3" cy="495.78" fill="#8b9ad9"></circle><circle r="5" cx="1565.84" cy="666.58" fill="#8b9ad9"></circle></g><defs><mask id="SvgjsMask1000"><rect width="1440" height="560" fill="#ffffff"></rect></mask><radialGradient id="SvgjsRadialGradient1001"><stop stop-color="#ffffff" offset="0.1"></stop><stop stop-color="#1735b3" offset="0.2"></stop><stop stop-color="rgba(23, 53, 179, 0)" offset="1"></stop></radialGradient></defs></svg>