<svg xmlns="http://www.w3.org/2000/svg" version="1.1" xmlns:xlink="http://www.w3.org/1999/xlink" xmlns:svgjs="http://svgjs.com/svgjs" width="1440" height="560" preserveAspectRatio="none" viewBox="0 0 1440 560"><g mask="url(&quot;#SvgjsMask1000&quot;)" fill="none"><rect width="1440" height="560" x="0" y="0" fill="#0e2a47"></rect><path d="M273.99 60.38L316.14 60.38L316.14 114.99L273.99 114.99z" fill="#e73635"></path><path d="M230.32 186.92 a30.62 30.62 0 1 0 61.24 0 a30.62 30.62 0 1 0 -61.24 0z" stroke="#e73635"></path><path d="M1003.78 69.25a16.98 16.98 0 1 0 21.54-26.26z" stroke="#e73635"></path><path d="M1021.78 322.15L1066.6 322.15L1066.6 366.97L1021.78 366.97z" fill="#e73635"></path><path d="M1318.7 425a4.65 4.65 0 1 0-4.69-8.03z" stroke="#037b0b"></path><path d="M1201.8 457.33a48.01 48.01 0 1 0-91.52 29.04z" fill="#e73635"></path><path d="M639.66 163.44a9.89 9.89 0 1 0-13.74 14.23z" fill="#037b0b"></path><path d="M166.54 132.75a37.58 37.58 0 1 0 34.61 66.71z" fill="#037b0b"></path><path d="M467.22 527.98a13.75 13.75 0 1 0 21.27 17.43z" fill="#e73635"></path><path d="M501.05 301.25L556.81 301.25L556.81 336L501.05 336z" stroke="#e73635"></path><path d="M1379.26 425.61L1426.13 425.61L1426.13 433.31L1379.26 433.31z" stroke="#037b0b"></path><path d="M1252.45 150.86L1285.8 150.86L1285.8 184.21L1252.45 184.21z" fill="#d3b714"></path><path d="M1227.29 236.78a10.79 10.79 0 1 0-14.75-15.75z" stroke="#037b0b"></path><path d="M443.28 254.69L464.17 254.69L464.17 294.35L443.28 294.35z" stroke="#d3b714"></path><path d="M604.46 530.08L659.22 530.08L659.22 584.84L604.46 584.84z" fill="#e73635"></path><path d="M1139.26 60.07 a5.05 5.05 0 1 0 10.1 0 a5.05 5.05 0 1 0 -10.1 0z" stroke="#d3b714"></path><path d="M525.06 493.72a27.96 27.96 0 1 0 14.36 54.04z" stroke="#037b0b"></path><path d="M307.6 357.69L339.15 357.69L339.15 389.24L307.6 389.24z" stroke="#e73635"></path><path d="M867.84 109.43a42 42 0 1 0 64.52-53.8z" stroke="#d3b714"></path><path d="M504.16 443.54a35.7 35.7 0 1 0-59-40.2z" fill="#d3b714"></path><path d="M612.12 172 a7.73 7.73 0 1 0 15.46 0 a7.73 7.73 0 1 0 -15.46 0z" fill="#e73635"></path><path d="M94.74 481.82L140.38 481.82L140.38 527.46L94.74 527.46z" fill="#037b0b"></path><path d="M1200.47 252.98L1229.63 252.98L1229.63 282.14L1200.47 282.14z" stroke="#d3b714"></path><path d="M411.34 119.68L437.61 119.68L437.61 173.35L411.34 173.35z" fill="#d3b714"></path><path d="M863.54 504.03L885.61 504.03L885.61 513.56L863.54 513.56z" stroke="#037b0b"></path><path d="M158.68 557.03 a27.57 27.57 0 1 0 55.14 0 a27.57 27.57 0 1 0 -55.14 0z" stroke="#e73635"></path><path d="M1346.02 510.11a32.89 32.89 0 1 0-65.48-6.35z" stroke="#e73635"></path><path d="M1234.97 24.86a1.61 1.61 0 1 0-0.72-3.14z" stroke="#d3b714"></path><path d="M689.54 378.19a49.19 49.19 0 1 0 40.06 89.86z" fill="#e73635"></path><path d="M1293.44 294.58L1344.99 294.58L1344.99 331.6L1293.44 331.6z" fill="#037b0b"></path><path d="M201.41 404.96L208.81 404.96L208.81 412.36L201.41 412.36z" stroke="#d3b714"></path><path d="M1205.8 62.38a24.25 24.25 0 1 0-48.41 2.89z" stroke="#d3b714"></path><path d="M1137.57 508.1L1180.7 508.1L1180.7 551.23L1137.57 551.23z" stroke="#e73635"></path></g><defs><mask id="SvgjsMask1000"><rect width="1440" height="560" fill="#ffffff"></rect></mask></defs></svg>