<svg xmlns="http://www.w3.org/2000/svg" version="1.1" xmlns:xlink="http://www.w3.org/1999/xlink" xmlns:svgjs="http://svgjs.com/svgjs" width="1440" height="560" preserveAspectRatio="none" viewBox="0 0 1440 560"><g mask="url(&quot;#SvgjsMask1000&quot;)" fill="none"><rect width="1440" height="560" x="0" y="0" fill="#0e2a47"></rect><path d="M720 742.4C839.95 749.37 954.09 683.58 1032.73 592.73 1106.38 507.63 1121.51 392.54 1120.15 280 1118.79 169.23 1102.06 54.58 1025.22-25.22 947.22-106.21 832.37-139.42 720-135.41 611.61-131.54 511.65-81.73 435.83-4.17 360.96 72.46 312.88 172.87 314.01 280 315.09 386.11 371.64 478.63 441.64 558.36 517.94 645.26 604.57 735.67 720 742.4" fill="#1c538e"></path><path d="M720 579.2C797.62 583.71 871.47 541.14 922.36 482.36 970.01 427.29 979.8 352.82 978.92 280 978.04 208.32 967.21 134.14 917.49 82.51 867.03 30.1 792.71 8.61 720 11.2 649.86 13.71 585.18 45.94 536.12 96.12 487.68 145.71 456.57 210.68 457.3 280 458 348.66 494.59 408.52 539.89 460.11 589.25 516.35 645.31 574.84 720 579.2" fill="#2774c6"></path><path d="M720 416C755.28 418.05 788.85 398.7 811.98 371.98 833.64 346.95 838.09 313.1 837.69 280 837.29 247.42 832.37 213.7 809.77 190.23 786.83 166.41 753.05 156.64 720 157.82 688.12 158.96 658.72 173.61 636.42 196.42 614.4 218.96 600.26 248.49 600.59 280 600.91 311.21 617.54 338.42 638.13 361.87 660.57 387.43 686.05 414.02 720 416" fill="#488fdb"></path></g><defs><mask id="SvgjsMask1000"><rect width="1440" height="560" fill="#ffffff"></rect></mask></defs></svg>