<svg xmlns="http://www.w3.org/2000/svg" version="1.1" xmlns:xlink="http://www.w3.org/1999/xlink" xmlns:svgjs="http://svgjs.com/svgjs" width="1440" height="560" preserveAspectRatio="none" viewBox="0 0 1440 560"><g mask="url(&quot;#SvgjsMask1000&quot;)" fill="none"><rect width="1440" height="560" x="0" y="0" fill="#0e2a47"></rect><path d="M65.63 301.76L130.59 339.26L130.59 414.26L65.63 451.76L0.68 414.26L0.68 339.26zM0.68 414.26L65.63 451.76L65.63 526.76L0.68 564.26L-64.27 526.76L-64.27 451.76zM65.63 526.76L130.59 564.26L130.59 639.26L65.63 676.76L0.68 639.26L0.68 564.26zM195.54 76.76L260.5 114.26L260.5 189.26L195.54 226.76L130.59 189.26L130.59 114.26zM130.59 414.26L195.54 451.76L195.54 526.76L130.59 564.26L65.63 526.76L65.63 451.76zM195.54 526.76L260.5 564.26L260.5 639.26L195.54 676.76L130.59 639.26L130.59 564.26zM390.4 -35.74L455.36 1.76L455.36 76.76L390.4 114.26L325.45 76.76L325.45 1.76zM390.4 189.26L455.36 226.76L455.36 301.76L390.4 339.26L325.45 301.76L325.45 226.76zM455.36 301.76L520.31 339.26L520.31 414.26L455.36 451.76L390.4 414.26L390.4 339.26zM455.36 526.76L520.31 564.26L520.31 639.26L455.36 676.76L390.4 639.26L390.4 564.26zM520.31 189.26L585.26 226.76L585.26 301.76L520.31 339.26L455.36 301.76L455.36 226.76zM585.26 526.76L650.22 564.26L650.22 639.26L585.26 676.76L520.31 639.26L520.31 564.26zM650.22 -35.74L715.17 1.76L715.17 76.76L650.22 114.26L585.26 76.76L585.26 1.76zM715.17 301.76L780.13 339.26L780.13 414.26L715.17 451.76L650.22 414.26L650.22 339.26zM780.12 -35.74L845.08 1.76L845.08 76.76L780.12 114.26L715.17 76.76L715.17 1.76zM845.08 301.76L910.03 339.26L910.03 414.26L845.08 451.76L780.12 414.26L780.12 339.26zM974.99 76.76L1039.94 114.26L1039.94 189.26L974.99 226.76L910.03 189.26L910.03 114.26zM1104.89 301.76L1169.85 339.26L1169.85 414.26L1104.89 451.76L1039.94 414.26L1039.94 339.26zM1039.94 414.26L1104.89 451.76L1104.89 526.76L1039.94 564.26L974.99 526.76L974.99 451.76zM1104.89 526.76L1169.85 564.26L1169.85 639.26L1104.89 676.76L1039.94 639.26L1039.94 564.26zM1234.8 526.76L1299.75 564.26L1299.75 639.26L1234.8 676.76L1169.85 639.26L1169.85 564.26zM1299.76 -35.74L1364.71 1.76L1364.71 76.76L1299.76 114.26L1234.8 76.76L1234.8 1.76zM1364.71 76.76L1429.66 114.26L1429.66 189.26L1364.71 226.76L1299.76 189.26L1299.76 114.26zM1299.76 189.26L1364.71 226.76L1364.71 301.76L1299.76 339.26L1234.8 301.76L1234.8 226.76zM1299.76 414.26L1364.71 451.76L1364.71 526.76L1299.76 564.26L1234.8 526.76L1234.8 451.76zM1364.71 526.76L1429.66 564.26L1429.66 639.26L1364.71 676.76L1299.76 639.26L1299.76 564.26zM1429.66 -35.74L1494.62 1.76L1494.62 76.76L1429.66 114.26L1364.71 76.76L1364.71 1.76zM1494.62 76.76L1559.57 114.26L1559.57 189.26L1494.62 226.76L1429.66 189.26L1429.66 114.26zM1429.66 189.26L1494.62 226.76L1494.62 301.76L1429.66 339.26L1364.71 301.76L1364.71 226.76zM1494.62 301.76L1559.57 339.26L1559.57 414.26L1494.62 451.76L1429.66 414.26L1429.66 339.26zM1429.66 414.26L1494.62 451.76L1494.62 526.76L1429.66 564.26L1364.71 526.76L1364.71 451.76zM1494.62 526.76L1559.57 564.26L1559.57 639.26L1494.62 676.76L1429.66 639.26L1429.66 564.26z" stroke="#03305d" stroke-width="2"></path><path d="M58.13 301.76 a7.5 7.5 0 1 0 15 0 a7.5 7.5 0 1 0 -15 0zM123.09 339.26 a7.5 7.5 0 1 0 15 0 a7.5 7.5 0 1 0 -15 0zM123.09 414.26 a7.5 7.5 0 1 0 15 0 a7.5 7.5 0 1 0 -15 0zM58.13 451.76 a7.5 7.5 0 1 0 15 0 a7.5 7.5 0 1 0 -15 0zM-6.82 414.26 a7.5 7.5 0 1 0 15 0 a7.5 7.5 0 1 0 -15 0zM-6.82 339.26 a7.5 7.5 0 1 0 15 0 a7.5 7.5 0 1 0 -15 0zM58.13 526.76 a7.5 7.5 0 1 0 15 0 a7.5 7.5 0 1 0 -15 0zM-6.82 564.26 a7.5 7.5 0 1 0 15 0 a7.5 7.5 0 1 0 -15 0zM-71.77 526.76 a7.5 7.5 0 1 0 15 0 a7.5 7.5 0 1 0 -15 0zM-71.77 451.76 a7.5 7.5 0 1 0 15 0 a7.5 7.5 0 1 0 -15 0zM123.09 564.26 a7.5 7.5 0 1 0 15 0 a7.5 7.5 0 1 0 -15 0zM123.09 639.26 a7.5 7.5 0 1 0 15 0 a7.5 7.5 0 1 0 -15 0zM58.13 676.76 a7.5 7.5 0 1 0 15 0 a7.5 7.5 0 1 0 -15 0zM-6.82 639.26 a7.5 7.5 0 1 0 15 0 a7.5 7.5 0 1 0 -15 0zM188.04 76.76 a7.5 7.5 0 1 0 15 0 a7.5 7.5 0 1 0 -15 0zM253 114.26 a7.5 7.5 0 1 0 15 0 a7.5 7.5 0 1 0 -15 0zM253 189.26 a7.5 7.5 0 1 0 15 0 a7.5 7.5 0 1 0 -15 0zM188.04 226.76 a7.5 7.5 0 1 0 15 0 a7.5 7.5 0 1 0 -15 0zM123.09 189.26 a7.5 7.5 0 1 0 15 0 a7.5 7.5 0 1 0 -15 0zM123.09 114.26 a7.5 7.5 0 1 0 15 0 a7.5 7.5 0 1 0 -15 0zM188.04 451.76 a7.5 7.5 0 1 0 15 0 a7.5 7.5 0 1 0 -15 0zM188.04 526.76 a7.5 7.5 0 1 0 15 0 a7.5 7.5 0 1 0 -15 0zM253 564.26 a7.5 7.5 0 1 0 15 0 a7.5 7.5 0 1 0 -15 0zM253 639.26 a7.5 7.5 0 1 0 15 0 a7.5 7.5 0 1 0 -15 0zM188.04 676.76 a7.5 7.5 0 1 0 15 0 a7.5 7.5 0 1 0 -15 0zM382.9 -35.74 a7.5 7.5 0 1 0 15 0 a7.5 7.5 0 1 0 -15 0zM447.86 1.76 a7.5 7.5 0 1 0 15 0 a7.5 7.5 0 1 0 -15 0zM447.86 76.76 a7.5 7.5 0 1 0 15 0 a7.5 7.5 0 1 0 -15 0zM382.9 114.26 a7.5 7.5 0 1 0 15 0 a7.5 7.5 0 1 0 -15 0zM317.95 76.76 a7.5 7.5 0 1 0 15 0 a7.5 7.5 0 1 0 -15 0zM317.95 1.76 a7.5 7.5 0 1 0 15 0 a7.5 7.5 0 1 0 -15 0zM382.9 189.26 a7.5 7.5 0 1 0 15 0 a7.5 7.5 0 1 0 -15 0zM447.86 226.76 a7.5 7.5 0 1 0 15 0 a7.5 7.5 0 1 0 -15 0zM447.86 301.76 a7.5 7.5 0 1 0 15 0 a7.5 7.5 0 1 0 -15 0zM382.9 339.26 a7.5 7.5 0 1 0 15 0 a7.5 7.5 0 1 0 -15 0zM317.95 301.76 a7.5 7.5 0 1 0 15 0 a7.5 7.5 0 1 0 -15 0zM317.95 226.76 a7.5 7.5 0 1 0 15 0 a7.5 7.5 0 1 0 -15 0zM512.81 339.26 a7.5 7.5 0 1 0 15 0 a7.5 7.5 0 1 0 -15 0zM512.81 414.26 a7.5 7.5 0 1 0 15 0 a7.5 7.5 0 1 0 -15 0zM447.86 451.76 a7.5 7.5 0 1 0 15 0 a7.5 7.5 0 1 0 -15 0zM382.9 414.26 a7.5 7.5 0 1 0 15 0 a7.5 7.5 0 1 0 -15 0zM447.86 526.76 a7.5 7.5 0 1 0 15 0 a7.5 7.5 0 1 0 -15 0zM512.81 564.26 a7.5 7.5 0 1 0 15 0 a7.5 7.5 0 1 0 -15 0zM512.81 639.26 a7.5 7.5 0 1 0 15 0 a7.5 7.5 0 1 0 -15 0zM447.86 676.76 a7.5 7.5 0 1 0 15 0 a7.5 7.5 0 1 0 -15 0zM382.9 639.26 a7.5 7.5 0 1 0 15 0 a7.5 7.5 0 1 0 -15 0zM382.9 564.26 a7.5 7.5 0 1 0 15 0 a7.5 7.5 0 1 0 -15 0zM512.81 189.26 a7.5 7.5 0 1 0 15 0 a7.5 7.5 0 1 0 -15 0zM577.76 226.76 a7.5 7.5 0 1 0 15 0 a7.5 7.5 0 1 0 -15 0zM577.76 301.76 a7.5 7.5 0 1 0 15 0 a7.5 7.5 0 1 0 -15 0zM577.76 526.76 a7.5 7.5 0 1 0 15 0 a7.5 7.5 0 1 0 -15 0zM642.72 564.26 a7.5 7.5 0 1 0 15 0 a7.5 7.5 0 1 0 -15 0zM642.72 639.26 a7.5 7.5 0 1 0 15 0 a7.5 7.5 0 1 0 -15 0zM577.76 676.76 a7.5 7.5 0 1 0 15 0 a7.5 7.5 0 1 0 -15 0zM642.72 -35.74 a7.5 7.5 0 1 0 15 0 a7.5 7.5 0 1 0 -15 0zM707.67 1.76 a7.5 7.5 0 1 0 15 0 a7.5 7.5 0 1 0 -15 0zM707.67 76.76 a7.5 7.5 0 1 0 15 0 a7.5 7.5 0 1 0 -15 0zM642.72 114.26 a7.5 7.5 0 1 0 15 0 a7.5 7.5 0 1 0 -15 0zM577.76 76.76 a7.5 7.5 0 1 0 15 0 a7.5 7.5 0 1 0 -15 0zM577.76 1.76 a7.5 7.5 0 1 0 15 0 a7.5 7.5 0 1 0 -15 0zM707.67 301.76 a7.5 7.5 0 1 0 15 0 a7.5 7.5 0 1 0 -15 0zM772.63 339.26 a7.5 7.5 0 1 0 15 0 a7.5 7.5 0 1 0 -15 0zM772.63 414.26 a7.5 7.5 0 1 0 15 0 a7.5 7.5 0 1 0 -15 0zM707.67 451.76 a7.5 7.5 0 1 0 15 0 a7.5 7.5 0 1 0 -15 0zM642.72 414.26 a7.5 7.5 0 1 0 15 0 a7.5 7.5 0 1 0 -15 0zM642.72 339.26 a7.5 7.5 0 1 0 15 0 a7.5 7.5 0 1 0 -15 0zM772.62 -35.74 a7.5 7.5 0 1 0 15 0 a7.5 7.5 0 1 0 -15 0zM837.58 1.76 a7.5 7.5 0 1 0 15 0 a7.5 7.5 0 1 0 -15 0zM837.58 76.76 a7.5 7.5 0 1 0 15 0 a7.5 7.5 0 1 0 -15 0zM772.62 114.26 a7.5 7.5 0 1 0 15 0 a7.5 7.5 0 1 0 -15 0zM837.58 301.76 a7.5 7.5 0 1 0 15 0 a7.5 7.5 0 1 0 -15 0zM902.53 339.26 a7.5 7.5 0 1 0 15 0 a7.5 7.5 0 1 0 -15 0zM902.53 414.26 a7.5 7.5 0 1 0 15 0 a7.5 7.5 0 1 0 -15 0zM837.58 451.76 a7.5 7.5 0 1 0 15 0 a7.5 7.5 0 1 0 -15 0zM772.62 414.26 a7.5 7.5 0 1 0 15 0 a7.5 7.5 0 1 0 -15 0zM772.62 339.26 a7.5 7.5 0 1 0 15 0 a7.5 7.5 0 1 0 -15 0zM967.49 76.76 a7.5 7.5 0 1 0 15 0 a7.5 7.5 0 1 0 -15 0zM1032.44 114.26 a7.5 7.5 0 1 0 15 0 a7.5 7.5 0 1 0 -15 0zM1032.44 189.26 a7.5 7.5 0 1 0 15 0 a7.5 7.5 0 1 0 -15 0zM967.49 226.76 a7.5 7.5 0 1 0 15 0 a7.5 7.5 0 1 0 -15 0zM902.53 189.26 a7.5 7.5 0 1 0 15 0 a7.5 7.5 0 1 0 -15 0zM902.53 114.26 a7.5 7.5 0 1 0 15 0 a7.5 7.5 0 1 0 -15 0zM1097.39 301.76 a7.5 7.5 0 1 0 15 0 a7.5 7.5 0 1 0 -15 0zM1162.35 339.26 a7.5 7.5 0 1 0 15 0 a7.5 7.5 0 1 0 -15 0zM1162.35 414.26 a7.5 7.5 0 1 0 15 0 a7.5 7.5 0 1 0 -15 0zM1097.39 451.76 a7.5 7.5 0 1 0 15 0 a7.5 7.5 0 1 0 -15 0zM1032.44 414.26 a7.5 7.5 0 1 0 15 0 a7.5 7.5 0 1 0 -15 0zM1032.44 339.26 a7.5 7.5 0 1 0 15 0 a7.5 7.5 0 1 0 -15 0zM1097.39 526.76 a7.5 7.5 0 1 0 15 0 a7.5 7.5 0 1 0 -15 0zM1032.44 564.26 a7.5 7.5 0 1 0 15 0 a7.5 7.5 0 1 0 -15 0zM967.49 526.76 a7.5 7.5 0 1 0 15 0 a7.5 7.5 0 1 0 -15 0zM967.49 451.76 a7.5 7.5 0 1 0 15 0 a7.5 7.5 0 1 0 -15 0zM1162.35 564.26 a7.5 7.5 0 1 0 15 0 a7.5 7.5 0 1 0 -15 0zM1162.35 639.26 a7.5 7.5 0 1 0 15 0 a7.5 7.5 0 1 0 -15 0zM1097.39 676.76 a7.5 7.5 0 1 0 15 0 a7.5 7.5 0 1 0 -15 0zM1032.44 639.26 a7.5 7.5 0 1 0 15 0 a7.5 7.5 0 1 0 -15 0zM1227.3 526.76 a7.5 7.5 0 1 0 15 0 a7.5 7.5 0 1 0 -15 0zM1292.25 564.26 a7.5 7.5 0 1 0 15 0 a7.5 7.5 0 1 0 -15 0zM1292.25 639.26 a7.5 7.5 0 1 0 15 0 a7.5 7.5 0 1 0 -15 0zM1227.3 676.76 a7.5 7.5 0 1 0 15 0 a7.5 7.5 0 1 0 -15 0zM1292.26 -35.74 a7.5 7.5 0 1 0 15 0 a7.5 7.5 0 1 0 -15 0zM1357.21 1.76 a7.5 7.5 0 1 0 15 0 a7.5 7.5 0 1 0 -15 0zM1357.21 76.76 a7.5 7.5 0 1 0 15 0 a7.5 7.5 0 1 0 -15 0zM1292.26 114.26 a7.5 7.5 0 1 0 15 0 a7.5 7.5 0 1 0 -15 0zM1227.3 76.76 a7.5 7.5 0 1 0 15 0 a7.5 7.5 0 1 0 -15 0zM1227.3 1.76 a7.5 7.5 0 1 0 15 0 a7.5 7.5 0 1 0 -15 0zM1422.16 114.26 a7.5 7.5 0 1 0 15 0 a7.5 7.5 0 1 0 -15 0zM1422.16 189.26 a7.5 7.5 0 1 0 15 0 a7.5 7.5 0 1 0 -15 0zM1357.21 226.76 a7.5 7.5 0 1 0 15 0 a7.5 7.5 0 1 0 -15 0zM1292.26 189.26 a7.5 7.5 0 1 0 15 0 a7.5 7.5 0 1 0 -15 0zM1357.21 301.76 a7.5 7.5 0 1 0 15 0 a7.5 7.5 0 1 0 -15 0zM1292.26 339.26 a7.5 7.5 0 1 0 15 0 a7.5 7.5 0 1 0 -15 0zM1227.3 301.76 a7.5 7.5 0 1 0 15 0 a7.5 7.5 0 1 0 -15 0zM1227.3 226.76 a7.5 7.5 0 1 0 15 0 a7.5 7.5 0 1 0 -15 0zM1292.26 414.26 a7.5 7.5 0 1 0 15 0 a7.5 7.5 0 1 0 -15 0zM1357.21 451.76 a7.5 7.5 0 1 0 15 0 a7.5 7.5 0 1 0 -15 0zM1357.21 526.76 a7.5 7.5 0 1 0 15 0 a7.5 7.5 0 1 0 -15 0zM1292.26 564.26 a7.5 7.5 0 1 0 15 0 a7.5 7.5 0 1 0 -15 0zM1227.3 451.76 a7.5 7.5 0 1 0 15 0 a7.5 7.5 0 1 0 -15 0zM1422.16 564.26 a7.5 7.5 0 1 0 15 0 a7.5 7.5 0 1 0 -15 0zM1422.16 639.26 a7.5 7.5 0 1 0 15 0 a7.5 7.5 0 1 0 -15 0zM1357.21 676.76 a7.5 7.5 0 1 0 15 0 a7.5 7.5 0 1 0 -15 0zM1292.26 639.26 a7.5 7.5 0 1 0 15 0 a7.5 7.5 0 1 0 -15 0zM1422.16 -35.74 a7.5 7.5 0 1 0 15 0 a7.5 7.5 0 1 0 -15 0zM1487.12 1.76 a7.5 7.5 0 1 0 15 0 a7.5 7.5 0 1 0 -15 0zM1487.12 76.76 a7.5 7.5 0 1 0 15 0 a7.5 7.5 0 1 0 -15 0zM1552.07 114.26 a7.5 7.5 0 1 0 15 0 a7.5 7.5 0 1 0 -15 0zM1552.07 189.26 a7.5 7.5 0 1 0 15 0 a7.5 7.5 0 1 0 -15 0zM1487.12 226.76 a7.5 7.5 0 1 0 15 0 a7.5 7.5 0 1 0 -15 0zM1487.12 301.76 a7.5 7.5 0 1 0 15 0 a7.5 7.5 0 1 0 -15 0zM1422.16 339.26 a7.5 7.5 0 1 0 15 0 a7.5 7.5 0 1 0 -15 0zM1552.07 339.26 a7.5 7.5 0 1 0 15 0 a7.5 7.5 0 1 0 -15 0zM1552.07 414.26 a7.5 7.5 0 1 0 15 0 a7.5 7.5 0 1 0 -15 0zM1487.12 451.76 a7.5 7.5 0 1 0 15 0 a7.5 7.5 0 1 0 -15 0zM1422.16 414.26 a7.5 7.5 0 1 0 15 0 a7.5 7.5 0 1 0 -15 0zM1487.12 526.76 a7.5 7.5 0 1 0 15 0 a7.5 7.5 0 1 0 -15 0zM1552.07 564.26 a7.5 7.5 0 1 0 15 0 a7.5 7.5 0 1 0 -15 0zM1552.07 639.26 a7.5 7.5 0 1 0 15 0 a7.5 7.5 0 1 0 -15 0zM1487.12 676.76 a7.5 7.5 0 1 0 15 0 a7.5 7.5 0 1 0 -15 0z" fill="#03305d"></path><path d="M29.46 145.88L72.76 170.88L72.76 220.88L29.46 245.88L-13.84 220.88L-13.84 170.88zM72.76 370.88L116.06 395.88L116.06 445.88L72.76 470.88L29.46 445.88L29.46 395.88zM159.37 70.88L202.67 95.88L202.67 145.88L159.37 170.88L116.06 145.88L116.06 95.88zM159.37 220.88L202.67 245.88L202.67 295.88L159.37 320.88L116.06 295.88L116.06 245.88zM159.37 370.88L202.67 395.88L202.67 445.88L159.37 470.88L116.06 445.88L116.06 395.88zM159.37 520.88L202.67 545.88L202.67 595.88L159.37 620.88L116.06 595.88L116.06 545.88zM202.67 145.88L245.97 170.88L245.97 220.88L202.67 245.88L159.37 220.88L159.37 170.88zM289.27 445.88L332.58 470.88L332.58 520.88L289.27 545.88L245.97 520.88L245.97 470.88zM462.49 -4.12L505.79 20.88L505.79 70.88L462.49 95.88L419.18 70.88L419.18 20.88zM505.79 220.88L549.09 245.88L549.09 295.88L505.79 320.88L462.49 295.88L462.49 245.88zM462.49 295.88L505.79 320.88L505.79 370.88L462.49 395.88L419.18 370.88L419.18 320.88zM505.79 370.88L549.09 395.88L549.09 445.88L505.79 470.88L462.49 445.88L462.49 395.88zM549.09 -4.12L592.39 20.88L592.39 70.88L549.09 95.88L505.79 70.88L505.79 20.88zM549.09 295.88L592.39 320.88L592.39 370.88L549.09 395.88L505.79 370.88L505.79 320.88zM592.39 370.88L635.7 395.88L635.7 445.88L592.39 470.88L549.09 445.88L549.09 395.88zM592.39 520.88L635.7 545.88L635.7 595.88L592.39 620.88L549.09 595.88L549.09 545.88zM808.91 145.88L852.21 170.88L852.21 220.88L808.91 245.88L765.6 220.88L765.6 170.88zM852.21 220.88L895.51 245.88L895.51 295.88L852.21 320.88L808.91 295.88L808.91 245.88zM895.51 145.88L938.81 170.88L938.81 220.88L895.51 245.88L852.21 220.88L852.21 170.88zM1112.02 70.88L1155.33 95.88L1155.33 145.88L1112.02 170.88L1068.72 145.88L1068.72 95.88zM1198.63 220.88L1241.93 245.88L1241.93 295.88L1198.63 320.88L1155.33 295.88L1155.33 245.88zM1198.63 520.88L1241.93 545.88L1241.93 595.88L1198.63 620.88L1155.33 595.88L1155.33 545.88zM1285.23 70.88L1328.54 95.88L1328.54 145.88L1285.23 170.88L1241.93 145.88L1241.93 95.88zM1285.23 220.88L1328.54 245.88L1328.54 295.88L1285.23 320.88L1241.93 295.88L1241.93 245.88zM1285.23 520.88L1328.54 545.88L1328.54 595.88L1285.23 620.88L1241.93 595.88L1241.93 545.88zM1328.54 -4.12L1371.84 20.88L1371.84 70.88L1328.54 95.88L1285.23 70.88L1285.23 20.88zM1328.54 295.88L1371.84 320.88L1371.84 370.88L1328.54 395.88L1285.23 370.88L1285.23 320.88zM1371.84 370.88L1415.14 395.88L1415.14 445.88L1371.84 470.88L1328.54 445.88L1328.54 395.88z" stroke="rgba(6, 80, 156, 0.93)" stroke-width="2"></path></g><defs><mask id="SvgjsMask1000"><rect width="1440" height="560" fill="#ffffff"></rect></mask></defs></svg>