<svg xmlns="http://www.w3.org/2000/svg" version="1.1" xmlns:xlink="http://www.w3.org/1999/xlink" xmlns:svgjs="http://svgjs.com/svgjs" width="1440" height="560" preserveAspectRatio="none" viewBox="0 0 1440 560"><g mask="url(&quot;#SvgjsMask1001&quot;)" fill="none"><rect width="1440" height="560" x="0" y="0" fill="rgba(78, 217, 18, 1)"></rect><path d="M0,438.599C85.599,428.834,175.315,432.148,247.525,385.156C319.548,338.286,368.641,262.312,396.045,180.868C421.852,104.172,388.568,23.573,396.294,-56.978C407.278,-171.492,497.332,-285.439,450.864,-390.676C404.633,-495.375,280.767,-551.907,168.325,-573.263C60.082,-593.822,-46.303,-546.55,-148.117,-504.441C-240.81,-466.105,-326.092,-415.254,-393.446,-340.923C-461.916,-265.361,-527.544,-178.649,-535.453,-76.986C-543.196,22.54,-478.311,108.706,-435.438,198.858C-393.278,287.511,-372.685,398.751,-286.69,446.098C-201.217,493.158,-96.943,449.658,0,438.599" fill="#3ca70e"></path><path d="M1440 923.4839999999999C1513.243 914.727 1592.192 933.24 1654.841 894.299 1717.8 855.165 1752.7559999999999 783.967 1777.1 713.948 1799.934 648.272 1783.2060000000001 579.226 1788.491 509.895 1795.595 416.711 1859.032 317.969 1813.508 236.353 1768.6 155.84199999999998 1660.554 134.19299999999998 1569.823 117.86399999999998 1485.201 102.63499999999999 1402.392 127.08600000000001 1318.828 147.327 1231.011 168.598 1131.897 173.599 1069.585 239.03300000000002 1006.54 305.23699999999997 994.1279999999999 403.78 987.764 494.978 981.7339999999999 581.389 999.163 666.104 1034.259 745.296 1069.66 825.175 1109.399 914.815 1189.396 949.947 1267.895 984.421 1354.871 933.662 1440 923.4839999999999" fill="#6bee33"></path></g><defs><mask id="SvgjsMask1001"><rect width="1440" height="560" fill="#ffffff"></rect></mask></defs></svg>