<svg xmlns="http://www.w3.org/2000/svg" version="1.1" xmlns:xlink="http://www.w3.org/1999/xlink" xmlns:svgjs="http://svgjs.com/svgjs" width="1440" height="560" preserveAspectRatio="none" viewBox="0 0 1440 560"><g mask="url(&quot;#SvgjsMask1006&quot;)" fill="none"><rect width="1440" height="560" x="0" y="0" fill="#0e2a47"></rect><path d="M486 268L485 0" stroke-width="6" stroke="url(#SvgjsLinearGradient1007)" stroke-linecap="round" class="Down"></path><path d="M174 553L173 776" stroke-width="6" stroke="url(#SvgjsLinearGradient1007)" stroke-linecap="round" class="Down"></path><path d="M287 173L286 535" stroke-width="10" stroke="url(#SvgjsLinearGradient1007)" stroke-linecap="round" class="Down"></path><path d="M80 176L79 -146" stroke-width="8" stroke="url(#SvgjsLinearGradient1008)" stroke-linecap="round" class="Up"></path><path d="M842 163L841 533" stroke-width="6" stroke="url(#SvgjsLinearGradient1008)" stroke-linecap="round" class="Up"></path><path d="M744 212L743 -135" stroke-width="8" stroke="url(#SvgjsLinearGradient1008)" stroke-linecap="round" class="Up"></path><path d="M842 64L841 419" stroke-width="8" stroke="url(#SvgjsLinearGradient1007)" stroke-linecap="round" class="Down"></path><path d="M571 60L570 -281" stroke-width="6" stroke="url(#SvgjsLinearGradient1007)" stroke-linecap="round" class="Down"></path><path d="M447 161L446 -22" stroke-width="10" stroke="url(#SvgjsLinearGradient1008)" stroke-linecap="round" class="Up"></path><path d="M180 10L179 -131" stroke-width="8" stroke="url(#SvgjsLinearGradient1008)" stroke-linecap="round" class="Up"></path><path d="M1254 462L1253 622" stroke-width="10" stroke="url(#SvgjsLinearGradient1007)" stroke-linecap="round" class="Down"></path><path d="M542 220L541 569" stroke-width="10" stroke="url(#SvgjsLinearGradient1008)" stroke-linecap="round" class="Up"></path><path d="M861 232L860 637" stroke-width="6" stroke="url(#SvgjsLinearGradient1008)" stroke-linecap="round" class="Up"></path><path d="M371 232L370 551" stroke-width="6" stroke="url(#SvgjsLinearGradient1007)" stroke-linecap="round" class="Down"></path><path d="M1226 324L1225 172" stroke-width="8" stroke="url(#SvgjsLinearGradient1008)" stroke-linecap="round" class="Up"></path><path d="M374 191L373 -50" stroke-width="8" stroke="url(#SvgjsLinearGradient1008)" stroke-linecap="round" class="Up"></path><path d="M1079 224L1078 38" stroke-width="6" stroke="url(#SvgjsLinearGradient1008)" stroke-linecap="round" class="Up"></path><path d="M733 378L732 726" stroke-width="6" stroke="url(#SvgjsLinearGradient1008)" stroke-linecap="round" class="Up"></path><path d="M998 166L997 -117" stroke-width="10" stroke="url(#SvgjsLinearGradient1008)" stroke-linecap="round" class="Up"></path><path d="M860 437L859 144" stroke-width="10" stroke="url(#SvgjsLinearGradient1008)" stroke-linecap="round" class="Up"></path><path d="M1080 463L1079 730" stroke-width="8" stroke="url(#SvgjsLinearGradient1008)" stroke-linecap="round" class="Up"></path><path d="M110 481L109 91" stroke-width="10" stroke="url(#SvgjsLinearGradient1008)" stroke-linecap="round" class="Up"></path><path d="M1149 449L1148 626" stroke-width="10" stroke="url(#SvgjsLinearGradient1008)" stroke-linecap="round" class="Up"></path><path d="M1304 413L1303 122" stroke-width="8" stroke="url(#SvgjsLinearGradient1008)" stroke-linecap="round" class="Up"></path><path d="M1028 69L1027 382" stroke-width="6" stroke="url(#SvgjsLinearGradient1007)" stroke-linecap="round" class="Down"></path><path d="M225 433L224 14" stroke-width="6" stroke="url(#SvgjsLinearGradient1008)" stroke-linecap="round" class="Up"></path><path d="M908 546L907 329" stroke-width="6" stroke="url(#SvgjsLinearGradient1008)" stroke-linecap="round" class="Up"></path><path d="M107 235L106 404" stroke-width="10" stroke="url(#SvgjsLinearGradient1008)" stroke-linecap="round" class="Up"></path><path d="M356 368L355 556" stroke-width="10" stroke="url(#SvgjsLinearGradient1007)" stroke-linecap="round" class="Down"></path><path d="M716 107L715 -66" stroke-width="10" stroke="url(#SvgjsLinearGradient1008)" stroke-linecap="round" class="Up"></path><path d="M930 175L929 29" stroke-width="10" stroke="url(#SvgjsLinearGradient1007)" stroke-linecap="round" class="Down"></path><path d="M1431 274L1430 -101" stroke-width="10" stroke="url(#SvgjsLinearGradient1008)" stroke-linecap="round" class="Up"></path><path d="M675 474L674 67" stroke-width="8" stroke="url(#SvgjsLinearGradient1007)" stroke-linecap="round" class="Down"></path><path d="M1097 523L1096 884" stroke-width="6" stroke="url(#SvgjsLinearGradient1008)" stroke-linecap="round" class="Up"></path><path d="M283 392L282 218" stroke-width="6" stroke="url(#SvgjsLinearGradient1007)" stroke-linecap="round" class="Down"></path><path d="M1401 7L1400 -335" stroke-width="10" stroke="url(#SvgjsLinearGradient1008)" stroke-linecap="round" class="Up"></path></g><defs><mask id="SvgjsMask1006"><rect width="1440" height="560" fill="#ffffff"></rect></mask><linearGradient x1="0%" y1="0%" x2="0%" y2="100%" id="SvgjsLinearGradient1007"><stop stop-color="rgba(28, 83, 142, 0)" offset="0"></stop><stop stop-color="#1c538e" offset="1"></stop></linearGradient><linearGradient x1="0%" y1="100%" x2="0%" y2="0%" id="SvgjsLinearGradient1008"><stop stop-color="rgba(28, 83, 142, 0)" offset="0"></stop><stop stop-color="#1c538e" offset="1"></stop></linearGradient></defs></svg>