<svg xmlns="http://www.w3.org/2000/svg" version="1.1" xmlns:xlink="http://www.w3.org/1999/xlink" xmlns:svgjs="http://svgjs.com/svgjs" width="1440" height="560" preserveAspectRatio="none" viewBox="0 0 1440 560"><g mask="url(&quot;#SvgjsMask1000&quot;)" fill="none"><rect width="1440" height="560" x="0" y="0" fill="#0e2a47"></rect><circle r="5.01" cx="1145.7" cy="411.59" filter="url(#SvgjsFilter1001)" fill="rgba(51, 121, 194, 0.58)"></circle><circle r="4.995" cx="1387.925" cy="157.085" filter="url(#SvgjsFilter1001)" fill="rgba(51, 121, 194, 0.58)"></circle><circle r="7.495" cx="32.655" cy="346.945" filter="url(#SvgjsFilter1001)" fill="rgba(51, 121, 194, 0.58)"></circle><circle r="8.605" cx="615.105" cy="212.49499999999998" filter="url(#SvgjsFilter1001)" fill="rgba(51, 121, 194, 0.58)"></circle><circle r="4.765" cx="164.20499999999998" cy="136.67499999999998" filter="url(#SvgjsFilter1001)" fill="rgba(51, 121, 194, 0.58)"></circle><circle r="8.68" cx="331.90000000000003" cy="420.28000000000003" filter="url(#SvgjsFilter1001)" fill="rgba(51, 121, 194, 0.58)"></circle><circle r="5.375" cx="349.675" cy="460.915" filter="url(#SvgjsFilter1001)" fill="rgba(51, 121, 194, 0.58)"></circle><circle r="8.82" cx="744.8000000000001" cy="51.26" filter="url(#SvgjsFilter1001)" fill="rgba(51, 121, 194, 0.58)"></circle><circle r="7.92" cx="391.64000000000004" cy="46.29" filter="url(#SvgjsFilter1001)" fill="rgba(51, 121, 194, 0.58)"></circle><circle r="6.47" cx="531.1600000000001" cy="389.64000000000004" filter="url(#SvgjsFilter1001)" fill="rgba(51, 121, 194, 0.58)"></circle><circle r="7.13" cx="121.05" cy="139.7" filter="url(#SvgjsFilter1001)" fill="rgba(51, 121, 194, 0.58)"></circle><circle r="5.935" cx="496.65500000000003" cy="6.505" filter="url(#SvgjsFilter1001)" fill="rgba(51, 121, 194, 0.58)"></circle><circle r="6.025" cx="612.785" cy="161.055" filter="url(#SvgjsFilter1001)" fill="rgba(51, 121, 194, 0.58)"></circle><circle r="7" cx="401.51" cy="307.36" filter="url(#SvgjsFilter1001)" fill="rgba(51, 121, 194, 0.58)"></circle><circle r="4.995" cx="645.255" cy="54.265" filter="url(#SvgjsFilter1001)" fill="rgba(51, 121, 194, 0.58)"></circle><circle r="5.785" cx="820.985" cy="128.82500000000002" filter="url(#SvgjsFilter1001)" fill="rgba(51, 121, 194, 0.58)"></circle><circle r="5.48" cx="475.83000000000004" cy="550.48" filter="url(#SvgjsFilter1001)" fill="rgba(51, 121, 194, 0.58)"></circle><circle r="7.145" cx="1049.495" cy="239.655" filter="url(#SvgjsFilter1001)" fill="rgba(51, 121, 194, 0.58)"></circle><circle r="5.045" cx="994.985" cy="81.395" filter="url(#SvgjsFilter1001)" fill="rgba(51, 121, 194, 0.58)"></circle><circle r="4.725" cx="614.495" cy="347.285" filter="url(#SvgjsFilter1001)" fill="rgba(51, 121, 194, 0.58)"></circle><path d="M278.8 140.8L279.9 129.6 285.5 133.3C286.1 133.8 287.1 133.6 287.8 132.9 288.1 132.1 288 131.1 287.2 130.8L280.2 125.9 280.7 117.2 295.1 127.3C295.9 127.6 296.9 127.5 297.4 126.9 298 125.9 297.9 124.9 297 124.6L281 113.5 282.1 100.2 293.7 110.3 293.1 94.9 304.1 102.4 302.8 121.9C302.5 122 302.6 122.3 302.8 122.6 303 123.2 303.6 123.6 304.3 123.6 305 123.6 305.8 122.9 306.1 122.1L307.2 104.5 314.3 109.6 313.7 118C313.6 118.5 313.7 118.8 313.8 119 314 119.3 314.5 119.8 315.3 119.8 316 119.8 316.7 119.1 316.7 118.4L317.4 111.7 326.7 117.8C327.4 118.6 328.3 118.1 329 117.4 329.5 116.9 329.3 115.9 328.4 115.3L319.3 109 325.4 106.1C326.2 105.7 326.4 104.5 326.1 103.9 325.7 103.1 324.8 102.8 324 103.2L316.2 106.9 309.1 101.8 324.7 94.3C325.6 93.9 325.9 93.1 325.5 92.2 325.2 91.6 324.2 91 323.3 91.4L306 99.7 295 92.2 309.2 87.2 295.9 80.1 308 74.3 323.9 85.2C324.8 85.7 325.7 85.3 326.2 84.8 326.6 84.2 326.5 83.2 325.8 82.5L311.2 72.8 319 69 326.2 73.7C326.9 74.5 327.9 74.3 328.5 73.3 328.9 72.8 328.8 71.8 327.8 71.2L322.4 67.4 332.5 62.5C333.4 62.1 333.7 61.3 333.3 60.4S332 59.2 331.2 59.7L321.1 64.5 321.5 57.9C321.6 56.8 320.9 56 320.2 56 319.1 55.9 318.3 56.6 318.5 57.6L317.6 66.2 309.8 69.9 311.4 52.5C311.3 51.4 310.6 50.7 309.8 50.7 308.7 50.5 308 51.2 308.1 52.3L306.6 71.4 294.5 77.2 297.3 62.4 284.5 70.3 285.5 57 302.9 48.7C303.7 48.3 303.9 47.2 303.6 46.6 303.2 45.7 302.3 45.4 301.5 45.8L285.6 53.4 286.3 44.6 294.1 40.9C295 40.4 295.3 39.6 294.9 38.7 294.6 38.1 293.6 37.6 292.7 38L286.7 40.9 287.4 29.9C287.6 28.7 286.9 28 285.9 28.1 285.2 28.1 284.3 28.5 284.4 29.5L283.4 40.7 277.7 37C277.2 36.6 276.2 36.7 275.7 37.3 275.3 37.8 275.3 38.5 275.4 38.8 275.5 39.1 275.7 39.4 276.1 39.5L283 44.4 282.6 53.1 268.2 43C267.3 42.7 266.3 42.8 265.9 43.4 265.4 43.9 265.4 44.7 265.7 45.2 265.8 45.5 265.8 45.5 266.3 45.7L282.3 56.8 281.2 70.1 269.6 60 270.2 75.4 259.2 67.9 260.5 48.4C260.5 47.7 260.1 46.9 258.9 46.7 258.2 46.7 257.5 47.4 257.2 48.2L256.1 65.8 249 60.7 249.6 52.3C249.9 51.4 249.1 50.7 248 50.5 247.3 50.5 246.6 51.2 246.3 52.1L245.9 58.6 236.5 52.5C235.8 51.7 235 52.2 234.2 52.9 234.1 53.3 234.1 54 234.2 54.3 234.3 54.6 234.5 54.9 234.9 55L244 61.3 237.9 64.2C237 64.7 236.9 65.8 237.1 66.4L237.1 66.4C237.6 67.2 238.4 67.5 239.3 67.1L247.1 63.4 254.1 68.5 238.6 76C237.7 76.4 237.4 77.3 237.8 78.1S239.1 79.3 239.9 78.9L257.3 70.6 268.3 78.1 254 83.1 267.4 90.2 255.3 96 239.4 85.2C238.4 84.6 237.6 85 237.1 85.5 236.7 86.1 236.8 87.1 237.5 87.8L251.8 97.7 244.3 101.3 237.1 96.6C236.4 95.8 235.4 96 234.8 97 234.3 97.5 234.5 98.5 235.2 99.3L240.8 102.9 230.7 107.8C229.9 108.2 229.6 109 230 109.9S231.2 111.1 232.1 110.7L242.2 105.8 241.8 112.4C241.7 112.8 241.8 113.1 241.9 113.4 242.2 114 242.6 114.1 243.1 114.3 244.2 114.4 244.9 113.7 244.8 112.7L245.7 104.2 253.5 100.4 251.9 117.9C252 118.1 252.2 118.4 252.3 118.7 252.6 119.3 253 119.5 253.4 119.6 254.6 119.8 255.3 119.1 255.2 118.1L256.6 98.9 268.8 93.1 265.9 107.9 278.8 100 277.7 113.3 260.4 121.6C259.5 122 259.4 123.1 259.7 123.7 260.1 124.6 260.9 124.9 261.8 124.5L277.4 117 276.9 125.7 269.1 129.5C268.3 129.9 268 130.7 268.4 131.6S269.7 132.8 270.5 132.3L276.6 129.4 275.8 140.4C275.7 140.9 275.8 141.2 276 141.5 276.1 141.7 276.7 142.2 277.4 142.2 278.1 142.2 279 141.8 278.8 140.8ZM270.3 101.6L272.7 89.4 261.8 83.7 273.6 79.4 273.1 67.3 282.5 75.2 292.9 68.7 290.6 80.9 301.5 86.6 290 90.7 290.2 103 281 95 270.3 101.6Z" fill="rgba(51, 121, 194, 0.58)"></path><path d="M153.6 246.5L148.9 236.3 155.6 236.6C156.3 236.7 157.1 236.1 157.4 235.1 157.2 234.2 156.6 233.4 155.7 233.6L147.3 232.9 143.2 225.2 160.8 226.6C161.7 226.4 162.5 225.8 162.6 225.1 162.6 224 162 223.2 161.1 223.3L141.7 221.8 135.9 209.8 150.9 212.6 142.7 199.7 156 200.6 164.7 218C164.5 218.3 164.8 218.5 165 218.6 165.6 219 166.3 219.1 166.9 218.7 167.5 218.4 167.8 217.4 167.6 216.5L159.7 200.8 168.4 201.6 172.2 209.2C172.3 209.6 172.5 209.8 172.8 210 173 210.2 173.8 210.2 174.4 209.9 175 209.5 175.3 208.6 174.9 207.9L172.1 201.8 183.3 202.4C184.3 202.7 184.8 201.9 185.1 200.9 185.2 200.2 184.5 199.4 183.4 199.4L172.4 198.5 176.1 192.9C176.7 192.2 176.2 191.1 175.7 190.7 174.9 190.2 174 190.4 173.5 191.2L168.7 198.3 160 197.5 169.6 183.2C170.2 182.4 170 181.5 169.2 180.9 168.7 180.6 167.5 180.6 167 181.4L156.2 197.3 142.9 196.4 152.7 184.9 137.6 185.5 145.1 174.4 164.2 175.7C165.4 175.7 165.9 174.9 166 174.2 166.1 173.5 165.5 172.7 164.5 172.4L147 171.4 151.9 164.3 160.5 164.7C161.4 164.9 162.2 164.3 162.2 163.2 162.3 162.4 161.7 161.6 160.6 161.6L154 161.1 160.3 151.8C160.8 151 160.6 150.1 159.8 149.6S158.1 149.2 157.6 150L151.3 159.3 148.4 153.4C147.9 152.4 146.9 152.1 146.3 152.4 145.3 152.9 145 153.9 145.6 154.7L149.2 162.5 144.4 169.6 136.9 153.8C136.3 153 135.3 152.7 134.7 153.1 133.6 153.5 133.4 154.5 134 155.3L142.4 172.6 134.9 183.7 129.8 169.5 122.8 182.9 116.9 170.9 127.7 154.9C128.2 154.1 127.8 153.1 127.2 152.7 126.4 152.2 125.6 152.3 125 153.1L115.2 167.7 111.3 159.7 116.1 152.6C116.7 151.8 116.5 150.9 115.7 150.4 115.2 150 114 150 113.5 150.8L109.7 156.4 104.8 146.5C104.4 145.4 103.4 145.1 102.6 145.8 102 146.1 101.4 146.9 102.1 147.7L106.8 157.9 100.1 157.6C99.3 157.5 98.5 158.1 98.5 158.8 98.4 159.5 98.7 160.1 99 160.3 99.2 160.5 99.5 160.7 100 160.6L108.4 161.2 112.4 169 94.9 167.6C94 167.7 93.2 168.4 93.1 169.1 93 169.8 93.3 170.4 93.9 170.8 94.1 170.9 94.1 170.9 94.6 170.8L114 172.4 119.8 184.4 104.7 181.5 113 194.4 99.7 193.6 91 176.2C90.7 175.5 89.9 175 88.8 175.4 88.2 175.8 87.9 176.8 88.1 177.7L96 193.4 87.3 192.6 83.5 185C83.3 184.1 82.4 183.8 81.3 184.3 80.7 184.6 80.4 185.6 80.6 186.5L83.6 192.4 72.4 191.8C71.4 191.5 70.9 192.3 70.6 193.3 70.7 193.7 71.1 194.4 71.3 194.5 71.6 194.7 71.8 194.9 72.3 194.8L83.3 195.7 79.5 201.2C79 202 79.4 203.1 80 203.4L80 203.4C80.8 204 81.7 203.8 82.2 203L87 195.8 95.7 196.7 86.1 211C85.5 211.8 85.7 212.7 86.5 213.2S88.2 213.6 88.7 212.8L99.4 196.9 112.7 197.7 103 209.3 118.1 208.7 110.6 219.8 91.4 218.5C90.3 218.5 89.8 219.3 89.7 220 89.6 220.7 90.2 221.5 91.2 221.8L108.5 223 103.8 229.9 95.2 229.5C94.2 229.2 93.4 229.9 93.4 231 93.3 231.7 94 232.5 94.9 232.8L101.7 233.1 95.4 242.4C94.9 243.2 95.1 244.1 95.9 244.6S97.5 245 98.1 244.2L104.3 234.9 107.3 240.8C107.4 241.2 107.7 241.4 107.9 241.6 108.5 241.9 108.9 241.8 109.4 241.7 110.4 241.3 110.7 240.3 110.1 239.5L106.5 231.7 111.3 224.5 118.8 240.4C119 240.5 119.3 240.7 119.6 240.9 120.1 241.3 120.5 241.2 121 241.1 122.1 240.6 122.3 239.7 121.7 238.9L113.3 221.6 120.8 210.5 125.9 224.7 132.9 211.3 138.7 223.3 128 239.2C127.5 240 127.9 241.1 128.4 241.5 129.2 242 130.1 241.8 130.7 241L140.3 226.7 144.4 234.4 139.5 241.6C139 242.4 139.2 243.3 140 243.8S141.7 244.2 142.2 243.4L145.9 237.8 150.9 247.7C151 248.1 151.2 248.3 151.5 248.5 151.8 248.7 152.5 248.8 153.1 248.4 153.7 248.1 154.2 247.3 153.6 246.5ZM126.4 217L122.3 205.3 110 205.9 118 196.2 111.4 186 123.5 188 129.3 177.2 133.4 188.9 145.7 188.3 137.9 197.7 144.3 208.2 132.3 205.9 126.4 217Z" fill="rgba(51, 121, 194, 0.58)"></path><path d="M44 492.3L68 483.6 76.4 487.7 68.3 490.6C67.3 490.7 67.1 491.7 67.2 492.6 67.5 493.3 68.5 493.8 69.2 493.4L80.4 489.6 88.7 493.5 81.1 498.6 69.4 496.3C69.4 496.3 69.1 496.3 69.1 496.3 68.4 496.4 67.8 497.1 67.6 497.7 67.7 498.7 68 499.3 69 499.6L77.5 501.1 69.9 506.2 44.8 501.8C44.8 501.8 44.5 501.5 44.5 501.5 43.8 501.6 43.2 502.3 43 502.9 42.7 503.9 43.4 504.8 44.4 504.8L66.2 508.8 57.1 515.3 47.3 513.5C47.3 513.5 47.3 513.5 47 513.5 46.4 513.6 45.8 514 45.5 514.6 45.6 515.6 46 516.5 47 516.7L53.5 517.8 46.8 522.5C45.9 522.9 45.9 523.9 46.3 524.5 46.7 525.4 47.7 525.7 48.6 525L55.3 520.6 53.9 526.8C54 527.7 54.4 528.7 55.3 528.6 56.3 528.8 56.9 528.5 57.1 527.5L58.9 517.7 68.1 511.5 64.1 533.7C63.8 534.3 64.5 535.2 65.5 535.5 66.1 535.4 67.1 535 67.3 534L71.7 509 79.3 503.9 77.8 512.3C77.5 513.3 78.2 513.9 79.2 514.1 79.8 514.4 80.8 513.7 81 513L83 501.3 90.5 495.9 91.3 505.1 83.7 514.1C83.1 514.8 83.2 515.7 83.9 516.3 84.2 516.9 85.5 516.8 86.1 516.1L91.7 509.6 92.4 518.8 75.7 538.2C75.1 538.9 75.2 539.8 75.9 540.4 76.5 541 77.5 540.9 78.1 540.2L92.8 523.3 93.6 534.2 87.2 541.7C86.6 542.4 86.7 543.4 87.4 544 88.1 544.6 89 544.5 89.6 543.8L94 538.9 94.7 546.9C94.8 547.9 95.4 548.5 96.4 548.4 97.4 548.3 97.9 547.6 97.9 546.7L97.2 538.7 102 542.8C102.7 543.4 103.7 543.3 104.3 542.6S104.8 541 104.1 540.4L96.9 534.2 96 523.1 112.9 537.4C113.5 538 114.5 537.9 115.1 537.2 115.7 536.5 115.6 535.6 114.9 535L95.6 518.6 94.8 509.3 101.4 514.9C102.1 515.5 103 515.4 103.6 514.7 104.2 514 104.1 513.1 103.4 512.5L94.5 504.9 93.8 495.9 101.8 499.8 105.9 511C106.3 511.6 107.3 512.2 107.9 511.8 108.8 511.4 109.1 510.8 109 509.8L106.1 501.7 114.1 505.5 122.8 529.5C123.2 530.5 123.9 530.7 124.8 530.7 125.8 530.3 126 529.3 125.9 528.7L118.4 507.4 128.5 512.4 131.8 521.4C131.9 522.4 132.8 522.6 133.8 522.6 134.4 522.2 135 521.2 134.6 520.2L132.5 514.3 139.8 517.6C140.5 518.2 141.4 517.8 142 516.8 142.3 516.1 141.9 515.2 141.2 514.9L133.9 511.3 140.1 509.2C141 508.8 141.3 507.8 140.9 507.2 140.8 506.3 140.2 506 139.5 506 139.2 506.1 139.2 506.1 138.9 506.1L129.8 509.4 119.8 504.4 140.7 497C141.7 496.9 141.9 495.9 141.8 494.9 141.5 494.3 140.8 494.1 140.2 494.1 139.8 494.1 139.8 494.1 139.8 494.1L115.5 502.5 107.5 498.7 115.6 495.8C116.5 495.4 116.8 494.7 116.7 493.8 116.3 493.2 115.6 492.6 115 492.6 114.7 492.6 114.7 492.6 114.4 492.7L103.1 496.8 95.1 492.9 102.4 487.9 114.1 489.8C115.1 490 116 489.3 116.3 488.7 116.2 487.7 115.8 486.8 114.9 486.8L106.4 485.3 113.7 479.9 139.1 484.6C139.7 484.8 140.6 484.1 140.9 483.5 140.8 482.5 140.4 481.6 139.5 481.3L117.6 477.3 126.7 471.1 136.2 472.9C137.2 473.2 138.1 472.4 138 471.5 138.3 470.8 137.9 469.9 136.9 469.7L130.4 468.6 137.1 463.9C137.7 463.5 137.9 462.5 137.5 461.6 137.2 461.3 136.5 461 135.9 461.1 135.9 461.1 135.6 461.1 135.2 461.1L128.6 465.8 129.6 459.3C129.9 458.7 129.2 457.8 128.5 457.5 128.2 457.5 128.2 457.5 128.2 457.5 127.3 457.6 126.7 458.3 126.7 458.9L124.9 468.4 115.8 474.9 119.8 452.7C119.7 451.8 119.4 451.2 118.4 450.9 118.4 450.9 118 451 118 451 117.4 451 116.8 451.4 116.6 452.4L111.8 477.5 104.6 482.5 106.1 474.1C106 473.1 105.6 472.2 104.7 472.3 104.7 471.9 104.3 472 104.3 472 103.7 472 103.1 472.7 102.8 473.4L100.9 485.1 93.3 490.2 92.6 481.3 100.2 472.3C100.8 471.6 100.7 470.3 100 469.8 99.3 469.5 98.4 469.6 97.8 469.9L92.2 476.8 91.5 467.6 107.9 448.2C108.5 447.6 108.4 446.6 107.7 446 107 445.4 106.1 445.5 105.5 446.2L91.1 463.1 90.2 451.9 96.4 444.7C96.9 444 96.9 443 96.2 442.5S94.5 441.9 93.9 442.6L89.8 447.5 89.2 439.5C89.1 438.5 88.4 437.9 87.5 438 86.5 438.1 85.9 438.8 86 439.7L86.6 447.7 81.5 443.6C81.2 443.3 80.8 443.1 80.5 443.1 80.2 443.1 79.6 443.5 79.3 443.8 78.7 444.5 78.8 445.5 79.4 446.1L87 452.2 87.9 463.3 70.7 449C70.4 448.7 70 448.4 69.7 448.5 69.4 448.5 68.8 448.8 68.5 449.2 67.9 449.9 68 450.8 68.6 451.4L88.3 467.8 89 477.1 82.4 471.2C82.1 470.9 81.5 470.9 81.1 471 80.8 471 80.5 471 80.2 471.4 79.6 472 79.7 473.3 80.4 473.6L89.4 481.5 90.1 490.5 81.8 486.6 78 475.4C77.6 474.8 76.9 474.2 76.3 474.2 76 474.3 76 474.3 76 474.6 75 474.7 74.5 475.7 74.9 476.6L77.8 484.7 69.4 480.9 61 456.5C60.7 455.9 60 455.7 59.4 455.7 59 455.7 59 455.7 59 455.7 58.1 456.1 57.5 456.8 57.9 457.8L65.4 479 55.4 474 52.1 465C51.7 464 51 463.8 50.4 463.8 50.4 463.8 50.1 463.8 50.1 463.8 49.1 464.2 48.9 465.2 48.9 465.9L51.4 472.1 44 468.5C43.7 468.5 43.4 468.6 43.1 468.6 42.7 468.6 42.1 469 41.8 469.3 41.6 470.3 41.7 471.3 42.7 471.5L50 475.1 43.8 477.2C42.8 477.6 42.6 478.6 42.6 479.2 43 480.1 44 480.4 45 480.3L54 477 64 481.7 43.1 489.1C42.2 489.5 41.6 490.5 42 491.1 42.4 492.1 43.1 492.7 44 492.3Z" fill="rgba(51, 121, 194, 0.58)"></path><path d="M764.8 468.4L715.3 449.2 696.5 405.8 743.5 411.2 776.2 453C776.2 453 776.7 453.4 776.7 453.4 777.8 454.2 779.6 453.9 780.8 453.3 782.5 452.1 782.6 449.8 781.1 448.7L752.4 412.2 775.2 414.8 788 430.7C788 430.7 788.5 431.1 788.5 431.1 789.6 431.8 791.4 431.6 792.6 430.9 794.3 429.8 794.4 427.5 792.9 426.3L784.4 415.2 801.2 417.3C802.6 417.6 804.6 415.9 804.9 414.5 805.5 412.6 803.4 411 802 410.8L785.2 408.7 796.3 400.2C798 399 798.1 396.7 796.6 395.6 795.4 393.9 793.1 393.8 792 395.4L776 408.2 753.6 405.1 790.1 376.4C791.7 375.3 791.9 373 790.3 371.8 789.2 370.2 786.9 370 785.7 371.6L743.9 404.3 696.9 398.9 725.5 360.3 778.3 352.5C780.1 352.3 781.3 350.7 781 348.9 780.7 347.2 779.2 346 777.4 346.3L730.8 353.1 744.6 334.6 764.3 331.7C766.1 331.5 767.2 329.9 767 328.1 766.7 326.4 765.1 325.2 763.4 325.5L749.9 327.5 760.6 313.1C762.3 311.9 761.5 309.7 760 308.6 758.4 307.4 756.6 307.7 755.5 309.2L745.6 322.6 743.6 309.2C743.3 307.4 741.8 306.2 740 306.5S737 308.3 737.3 310.1L740.2 329.8 726.5 348.3 719.6 301.7C719.3 299.9 717.8 298.8 716 299.1 714.2 299.3 713.1 300.9 713.3 302.7L721.1 355.5 692.9 393.5 674.1 350.1 693.1 302C693.7 300.1 692.6 298.4 691 297.3 689.1 296.6 687.5 297.8 686.3 299.3L669.4 342.5 660.3 321.5 668 302.5C668.7 300.6 667.5 298.9 666 297.8 664 297.1 662.4 298.3 661.6 299.3L656.7 312.4 649.8 296.9C649.2 295.7 647.1 294.1 645.5 295.3 643.8 296.4 642.7 298 643.8 299.6L650.7 315.1 637.6 310.2C635.7 309.5 634 310.7 633.2 311.7 633 313.1 633.3 314.9 634.3 315.7 634.3 315.7 634.8 316.1 634.8 316.1L653.8 323.8 662.8 344.9 619.6 327.9C617.7 327.3 616 328.4 615.3 329.5 615 330.9 615.3 332.7 616.3 333.4 616.3 333.4 616.8 333.8 616.8 333.8L666.3 353 685.1 396.5 638.1 391.1 605.4 349.2C604.2 347.6 601.9 347.5 600.8 349 599.1 350.2 599 352.5 600.5 353.6L629.2 390.1 606.5 387.5 593.6 371.6C592.4 369.9 590.1 369.8 589 371.3 587.3 372.5 587.2 374.8 588.7 375.9L597.2 387 580.5 384.9C579 384.7 577 386.3 576.8 387.8 576.5 389.2 577.2 390.4 578.2 391.2 578.7 391.6 579.2 392 580.1 391.8L596.9 393.9 585.8 402.4C584.1 403.6 584 405.9 585.6 407 585.6 407 586.1 407.4 586.1 407.4 587.1 408.2 588.9 407.9 590.2 407.3L606.1 394.4 628.9 397 592.4 425.7C590.8 426.9 590.6 429.2 592.2 430.3 592.2 430.3 592.7 430.7 592.7 430.7 593.7 431.5 595.5 431.2 596.8 430.5L638.6 397.8 685.6 403.3 657.4 441.3 604.6 449.1C602.8 449.3 601.6 450.9 601.9 452.7 602.1 454.5 603.7 455.6 605.5 455.3L651.7 449 637.9 467.5 618.2 470.4C616.4 470.6 615.3 472.2 615.6 474S617.4 476.9 619.1 476.7L632.6 474.7 622.7 488C621.5 489.6 621.8 491.4 623.3 492.5 624.9 493.7 626.6 493.4 627.8 491.8L637.7 478.5 639.7 491.9C639.8 492.8 640 493.7 641 494.5S642.9 495.1 643.8 495C645.6 494.7 646.7 493.2 646.5 491.4L643.6 471.7 657.3 453.2 664.2 499.7C664.3 500.6 664.4 501.5 665.5 502.3 666 502.7 667.4 502.9 668.3 502.8 670.1 502.5 671.2 501 671 499.2L663.2 446.4 691.4 408.4 710.2 451.8 690.9 501.3C690.7 502.7 691 504.5 692 505.3 692 505.3 692.5 505.6 692.5 505.6 694.4 506.3 696.1 505.1 696.8 504.1L713.8 460.9 722.9 481.9 715.1 500.9C714.9 502.3 715.1 504.1 716.2 504.9 716.2 504.9 716.7 505.3 716.7 505.3 718.6 505.9 720.3 504.7 721 503.7L726 490.6 732.8 506.1C733.3 506.5 733.5 507.4 734 507.7 735 508.5 736.4 508.8 737.7 508.1 739.3 507 740.5 505.4 739.3 503.8L732.5 488.3 745.6 493.2C747.5 493.9 749.1 492.7 749.9 491.7 750.5 489.8 749.4 488.1 748.3 487.3L729.4 479.6 720.3 458.5 763.5 475.5C765.4 476.1 767.1 475 767.9 473.9 767.5 471.2 766.7 469.1 764.8 468.4Z" fill="rgba(51, 121, 194, 0.58)"></path><path d="M354.1 281.9L366.5 258.6 373.4 256.3 385.4 267.3 383.9 274.6 361.4 288.7C361.2 288.9 361.2 288.9 360.9 289.1 360.5 289.6 360.3 290.3 360.8 291.2 361.5 291.8 362.2 292 363.1 291.5L382.7 279.2 380.2 290.4 371.6 296C371.6 296 371.4 296.2 371.4 296.2 371 296.7 370.8 297.3 371.3 298.2 371.5 298.9 372.7 299.1 373.5 298.6L379.3 295.2 377.4 303.4C377.2 304.1 377.6 305 378.6 305.4S380.4 304.9 380.8 304L382.5 296 386.1 301.5C386.6 302.4 387.7 302.6 388.6 302.1 389.1 301.6 389.5 300.7 389 299.8L383.4 291.2 386.2 279.8 398.5 299.4C399 300.3 400.1 300.5 400.8 300.2 401.4 299.5 401.8 298.6 401.4 297.7L387.1 275.4 388.8 267.9 404.1 263.2 409.7 268.4 411 294.8C411 295.7 411.7 296.4 412.6 296.4S414.2 295.6 414.1 294.7L413 271.4 421.7 279.5 422.1 289.4C422.1 290.3 422.8 291 424 291.2S425.5 290.4 425.5 289.5L425 282.5 431.3 288.4C432 289 433.2 288.8 433.8 288 434.5 287.3 434.4 286.4 433.7 285.8L427.4 279.9 434.2 279.7C435.3 279.8 435.9 279.1 435.7 278 435.6 277.1 434.9 276.5 434 276.5L424.1 276.9 415.4 268.9 438.7 268.2C439.6 268.1 440.5 267.2 440.4 266.3S439.7 264.7 438.8 264.8L412.1 265.8 406.4 260.6 410.1 244.8 417.3 242.7 440.7 255.2C441.6 255.6 442.5 255.1 443.1 254.4 443.5 253.5 443 252.6 442.3 251.9L421.8 241.2 432.7 237.8 441.7 242.7C442.7 243.1 443.6 242.6 444.2 241.9 444.4 241.2 444.1 240.1 443.2 239.7L437.4 236.5 445.5 233.9C446.1 233.7 446.6 232.7 446.5 231.8 446 230.9 445.1 230.5 444.4 230.8L436.4 233.4 439.5 227.1C439.7 226.4 439.5 225.3 438.8 225.1 438.1 224.5 437.4 224.7 436.8 225.4 436.8 225.4 436.5 225.7 436.5 225.7L431.7 234.7 420.7 238.1 431.5 217.5C431.9 216.6 431.8 215.7 430.9 215.2 430 214.8 429.3 215.1 428.9 215.6 428.7 215.8 428.7 215.8 428.7 215.8L416.3 239.6 409.1 241.7 397.1 230.6 398.9 223.5 421.4 209.1C422.1 208.8 422.2 207.7 422 207 421.5 206.1 420.4 205.9 419.5 206.4L399.8 218.7 402.3 207.6 410.9 202C411.8 201.5 412.2 200.6 411.5 199.9 411 199.1 409.9 198.9 409.2 199.1L403.5 203 405.4 194.7C405.4 193.8 404.9 193 404 192.5 403.5 192.6 402.8 192.8 402.4 193.3 402.2 193.5 402.2 193.5 402.2 194L400.3 202.2 396.4 196.5C395.9 195.6 395 195.6 394.4 195.9 394.1 196.1 394.1 196.1 393.9 196.3 393.5 196.8 393.3 197.5 393.5 198.2L399.1 206.8 396.6 218 384.3 198.3C383.6 197.7 382.6 197.2 382 197.9 381.5 198 381.5 198 381.3 198.2 380.9 198.7 380.9 199.6 381.2 200.2L395.7 222.8 393.9 229.9 378.5 234.8 373.1 229.8 372 203.1C372 202.2 371 201.3 370.1 201.4S368.4 202.3 368.4 203.2L369.5 226.5 361.1 218.7 360.4 208.5C360.4 207.6 359.7 207 358.8 207 357.9 207.1 357.2 207.8 357.3 208.7L357.5 215.4 351.2 209.6C350.7 209.2 349.6 209 348.9 209.7 348.3 210.4 348.3 211.7 348.8 212.2L355.2 218 348.4 218.3C347.9 218.3 347.5 218.3 347.3 218.6 346.8 219 346.8 219.5 346.9 219.9 346.9 220.9 347.6 221.5 348.5 221.5L358.7 221.3 367.2 229.1 343.9 229.8C343.4 229.8 343.2 230.1 342.8 230.5 342.5 230.8 342.3 231 342.3 231.5 342.4 232.4 343.3 233.2 344.2 233.2L370.7 232.4 376.1 237.4 372.6 252.9 365.5 255.4 341.9 242.8C341.2 242.6 340.3 242.6 339.9 243.1 339.6 243.3 339.6 243.3 339.9 243.6 339.2 244.3 339.5 245.4 340.4 245.8L361 256.5 349.8 260.1 340.8 255.3C340.1 255.1 339.4 255.3 339 255.8 339 255.8 338.8 256.1 338.8 256.1 338.1 256.8 338.4 257.9 339.3 258.3L345.6 261.4 337.5 264C337.1 264 336.8 264.3 336.6 264.5 336.2 265 336 265.7 336.2 265.9 336.5 267 337.4 267.4 338.3 267.4L346.4 264.8 343.2 270.6C342.8 271.5 343.1 272.6 344 273.1 344.7 273.3 345.8 273 346 272.3L350.8 263.3 361.8 259.9 351.1 280.5C350.7 281.4 351.2 282.3 351.9 282.9 352.5 283.1 353.7 282.9 354.1 281.9ZM386.4 263.4L377.2 255 375.8 253.7 376.2 251.8 378.9 240 379.5 237.9 381.3 237.4 392.9 233.7 394.7 233.2 396.1 234.5 405.3 243 406.7 244.3 406.3 246.1 403.6 258 403.2 259.8 401.2 260.6 389.6 264.2 387.8 264.7 386.4 263.4Z" fill="rgba(51, 121, 194, 0.58)"></path><path d="M340.5 393.1L348.7 417.3 344.4 425.6 341.6 417.4C341.6 416.4 340.6 416.2 339.6 416.2 339 416.6 338.4 417.6 338.8 418.2L342.3 429.5 338.3 437.8 333.4 430.1 335.9 418.4C335.9 418.4 335.9 418.1 335.9 418.1 335.9 417.4 335.2 416.8 334.5 416.5 333.6 416.6 332.9 417 332.7 417.9L330.9 426.4 326 418.6 330.9 393.7C330.9 393.7 331.2 393.3 331.2 393.3 331.2 392.7 330.5 392.1 329.9 391.8 328.9 391.5 328 392.2 328 393.2L323.5 414.9 317.2 405.7 319.2 396C319.2 396 319.2 396 319.2 395.6 319.2 395 318.8 394.4 318.1 394.1 317.2 394.2 316.2 394.5 316 395.5L314.8 402 310.2 395.2C309.8 394.3 308.9 394.3 308.2 394.7 307.3 395.1 307 396 307.7 397L312 403.8 305.8 402.2C304.8 402.3 303.9 402.6 304 403.6 303.7 404.6 304.1 405.2 305 405.5L314.8 407.4 320.8 416.7 298.7 412.2C298 412 297.1 412.6 296.9 413.6 296.9 414.3 297.3 415.2 298.2 415.5L323.2 420.4 328.2 428.1 319.7 426.4C318.7 426.1 318.1 426.8 317.9 427.8 317.6 428.4 318.3 429.4 318.9 429.6L330.6 431.8 335.9 439.5 326.6 440.1 317.8 432.3C317.1 431.7 316.2 431.7 315.6 432.4 315 432.8 315 434 315.7 434.6L322.1 440.3 312.9 440.9 293.9 423.7C293.2 423.1 292.3 423.2 291.7 423.9 291.1 424.5 291.1 425.5 291.8 426.1L308.4 441.2 297.5 441.8 290.1 435.2C289.4 434.6 288.5 434.6 287.9 435.3 287.3 436 287.3 436.9 288 437.5L292.8 442.1 284.8 442.5C283.8 442.6 283.2 443.3 283.3 444.2 283.3 445.2 284 445.8 285 445.7L292.9 445.3 288.7 450C288.1 450.7 288.2 451.6 288.9 452.2S290.5 452.8 291.1 452.1L297.4 445 308.6 444.4 293.9 460.9C293.3 461.6 293.3 462.6 294 463.2 294.7 463.8 295.6 463.7 296.2 463L313.1 444.1 322.3 443.5 316.6 450C316 450.6 316.1 451.6 316.7 452.2 317.4 452.8 318.4 452.8 319 452.1L326.8 443.3 335.7 442.8 331.7 450.7 320.4 454.6C319.8 454.9 319.2 455.9 319.6 456.5 319.9 457.5 320.6 457.7 321.6 457.7L329.7 455 325.7 462.9 301.5 471.1C300.6 471.4 300.3 472.1 300.3 473 300.7 474 301.7 474.2 302.3 474.2L323.7 467.2 318.5 477.1 309.4 480.2C308.5 480.3 308.2 481.2 308.3 482.2 308.6 482.8 309.6 483.4 310.5 483L316.5 481.1 313.1 488.3C312.5 489 312.9 489.9 313.9 490.5 314.5 490.8 315.5 490.4 315.7 489.8L319.5 482.5 321.5 488.8C321.8 489.7 322.8 490 323.4 489.6 324.4 489.6 324.7 488.9 324.6 488.3 324.6 488 324.6 488 324.6 487.6L321.5 478.5 326.7 468.6 333.7 489.7C333.7 490.6 334.7 490.9 335.7 490.8 336.3 490.5 336.6 489.8 336.5 489.2 336.5 488.9 336.5 488.9 336.5 488.9L328.7 464.3 332.7 456.4 335.4 464.6C335.8 465.5 336.5 465.8 337.4 465.7 338 465.4 338.6 464.7 338.6 464.1 338.6 463.7 338.6 463.7 338.6 463.4L334.7 452.1 338.7 444.2 343.6 451.6 341.4 463.3C341.2 464.2 341.9 465.2 342.5 465.4 343.5 465.4 344.4 465 344.4 464L346.1 455.6 351.4 463 346.1 488.3C345.8 489 346.5 489.9 347.2 490.2 348.1 490.1 349.1 489.7 349.3 488.8L353.8 467 359.8 476.3 357.8 485.7C357.6 486.7 358.3 487.6 359.2 487.5 359.9 487.8 360.8 487.4 361.1 486.5L362.3 480 366.9 486.8C367.2 487.4 368.2 487.7 369.1 487.3 369.4 486.9 369.7 486.3 369.7 485.6 369.7 485.6 369.7 485.3 369.6 485L365.1 478.2 371.6 479.4C372.2 479.7 373.1 479 373.4 478.4 373.4 478 373.4 478 373.4 478 373.3 477.1 372.7 476.5 372 476.5L362.6 474.5 356.3 465.3 378.4 469.7C379.3 469.7 379.9 469.3 380.2 468.4 380.2 468.4 380.2 468 380.2 468 380.1 467.4 379.8 466.8 378.8 466.5L353.8 461.2 348.9 453.8 357.3 455.6C358.3 455.5 359.2 455.2 359.2 454.2 359.5 454.2 359.5 453.9 359.5 453.9 359.4 453.2 358.8 452.6 358.1 452.3L346.4 450.1 341.5 442.4 350.4 441.9 359.2 449.7C359.9 450.3 361.2 450.2 361.8 449.6 362.1 448.9 362 447.9 361.7 447.3L354.9 441.6 364.2 441.1 383.1 457.9C383.8 458.5 384.8 458.5 385.4 457.8 386 457.1 385.9 456.2 385.2 455.6L368.7 440.8 379.8 440.2 386.9 446.5C387.6 447.1 388.6 447 389.2 446.4S389.7 444.7 389 444.1L384.3 439.9 392.3 439.4C393.2 439.4 393.8 438.7 393.8 437.7 393.7 436.8 393.1 436.2 392.1 436.2L384.1 436.7 388.3 431.7C388.6 431.3 388.9 431 388.9 430.7 388.9 430.3 388.5 429.7 388.2 429.4 387.5 428.8 386.5 428.9 385.9 429.6L379.6 437 368.5 437.6 383.2 420.7C383.5 420.4 383.8 420.1 383.8 419.7 383.7 419.4 383.4 418.8 383 418.5 382.4 417.9 381.4 418 380.8 418.6L364 437.9 354.7 438.4 360.8 432C361.1 431.7 361 431 361 430.7 361 430.4 361 430.1 360.6 429.8 360 429.2 358.7 429.2 358.4 429.9L350.3 438.7 341.3 439.2 345.3 431 356.6 427.4C357.3 427.1 357.9 426.4 357.8 425.8 357.8 425.4 357.8 425.4 357.5 425.5 357.4 424.5 356.4 423.9 355.5 424.3L347.3 427 351.3 418.8 375.9 410.9C376.5 410.6 376.8 409.9 376.7 409.3 376.7 408.9 376.7 408.9 376.7 408.9 376.3 408 375.7 407.4 374.7 407.8L353.3 414.8 358.5 404.9 367.6 401.8C368.6 401.4 368.9 400.7 368.8 400.1 368.8 400.1 368.8 399.8 368.8 399.8 368.4 398.8 367.5 398.6 366.8 398.6L360.5 400.9 364.3 393.6C364.3 393.3 364.2 393 364.2 392.7 364.2 392.4 363.8 391.7 363.5 391.4 362.5 391.2 361.6 391.2 361.3 392.2L357.6 399.5 355.6 393.2C355.2 392.2 354.2 392 353.6 392 352.7 392.4 352.4 393.4 352.5 394.3L355.6 403.4 350.7 413.3 343.7 392.3C343.3 391.3 342.3 390.8 341.7 391.1 340.8 391.5 340.1 392.2 340.5 393.1Z" fill="rgba(51, 121, 194, 0.58)"></path><path d="M1300.8 147.5L1316.3 119.7 1327.6 116.7 1322.3 126.1C1321.5 127 1322.1 128.1 1322.9 128.9 1323.8 129.2 1325.2 128.9 1325.5 128L1333 115.2 1344 112 1341 123.1 1328 130.6C1328 130.6 1327.7 130.8 1327.7 130.8 1327.2 131.4 1327.2 132.6 1327.5 133.4 1328.3 134.2 1329.2 134.5 1330.3 133.9L1339.6 128.5 1336.6 139.5 1309.3 155.9C1309.3 155.9 1308.8 155.9 1308.8 155.9 1308.2 156.5 1308.2 157.6 1308.5 158.5 1309.1 159.6 1310.5 159.9 1311.3 159L1335.2 144.9 1332 158.5 1321.3 164.9C1321.3 164.9 1321.3 164.9 1321 165.1 1320.5 165.7 1320.2 166.6 1320.5 167.4 1321.3 168.3 1322.5 168.8 1323.6 168.2L1330.6 163.9 1328.2 173.8C1327.6 175 1328.5 175.8 1329.3 176.1 1330.5 176.6 1331.6 176.1 1331.9 174.7L1334.6 165 1338.3 172C1339.2 172.9 1340.3 173.4 1341.2 172.6 1342.3 172 1342.6 171.1 1342 170L1335.7 159.3 1339.2 146 1353.6 170.2C1353.9 171 1355.3 171.3 1356.4 170.7 1357 170.2 1357.6 169 1357 167.9L1340.6 140.6 1343.6 129.6 1349 138.8C1349.6 140 1350.8 140 1351.9 139.4 1352.7 139.1 1353 137.7 1352.7 136.8L1344.9 124.2 1347.6 112.8 1355.9 120.9 1356.1 135.7C1356.1 136.8 1356.9 137.6 1358.1 137.6 1358.9 137.9 1360.1 136.7 1360 135.6L1359.9 124.9 1368.2 133 1368.3 164.9C1368.3 166.1 1369.1 166.9 1370.3 166.9 1371.4 166.9 1372.2 166 1372.2 164.9L1372.2 136.9 1381.9 146.4 1382.1 158.9C1382.1 160 1382.9 160.8 1384.1 160.8 1385.2 160.8 1386 160 1386 158.8L1386.2 150.6 1393.4 157.6C1394.2 158.5 1395.3 158.5 1396.2 157.6 1397 156.7 1397 155.6 1396.2 154.8L1389 147.8 1396.9 147.7C1398.1 147.7 1398.9 146.8 1398.9 145.7S1398 143.7 1396.9 143.7L1385 143.8 1375 134 1402.7 133.8C1403.9 133.8 1404.7 132.9 1404.7 131.8 1404.7 130.6 1403.8 129.8 1402.7 129.8L1371 130.1 1362.7 122 1373.5 121.9C1374.6 121.9 1375.5 121 1375.4 119.9 1375.4 118.8 1374.6 117.9 1373.4 117.9L1358.7 118.1 1350.7 110.3 1361.5 107.3 1374.5 114.5C1375.4 114.8 1376.8 114.5 1377.1 113.7 1377.6 112.5 1377.3 111.7 1376.5 110.8L1367.1 105.6 1377.8 102.6 1405.7 118.2C1406.8 118.7 1407.7 118.4 1408.5 117.6 1409.1 116.4 1408.5 115.3 1407.9 114.8L1383.4 100.9 1397 97.3 1407.5 103.2C1408.4 104 1409.5 103.4 1410.3 102.6 1410.6 101.7 1410.3 100.3 1409.2 99.8L1402.4 95.9 1411.9 92.9C1413.1 92.9 1413.6 91.8 1413.3 90.4 1413 89.5 1411.9 89 1411.1 89.3L1401.2 91.9 1405.3 84.8C1405.9 83.7 1405.3 82.5 1404.5 82.3 1403.6 81.4 1402.8 81.7 1402.2 82.3 1401.9 82.6 1401.9 82.6 1401.7 82.9L1395.8 93.4 1382.3 96.9 1395.9 72.7C1396.7 71.9 1396.2 70.8 1395.3 69.9 1394.4 69.6 1393.6 69.9 1393 70.5 1392.8 70.8 1392.8 70.8 1392.8 70.8L1376.6 98.7 1365.9 101.6 1371.2 92.2C1371.8 91.1 1371.5 90.2 1370.6 89.4 1369.8 89.1 1368.6 89.1 1368.1 89.7 1367.8 90 1367.8 90 1367.5 90.3L1360.3 103.4 1349.6 106.3 1352.3 95.5 1364.9 87.8C1366.1 87.2 1366.3 85.8 1366 84.9 1365.2 84.1 1364 83.5 1363.2 84.4L1353.9 89.9 1356.4 78.8 1384.2 62.4C1385 62.1 1385.3 60.7 1385 59.8 1384.2 59 1383 58.4 1381.9 59L1358 73.1 1361.5 59.8 1371.9 53.7C1373.1 53.2 1373.3 51.8 1372.5 50.9 1372.2 50.1 1371 49.5 1369.9 50.1L1362.9 54.4 1365.3 44.5C1365.6 43.6 1365 42.5 1363.9 41.9 1363.3 42 1362.5 42.2 1361.9 42.8 1361.9 42.8 1361.7 43.1 1361.4 43.4L1358.9 53.3 1354.6 46.3C1354.3 45.4 1352.9 45.2 1352.1 45.5 1351.8 45.7 1351.8 45.7 1351.8 45.7 1350.9 46.6 1350.9 47.7 1351.5 48.3L1357.6 58.7 1354.3 72.3 1339.9 48.1C1339.1 47.3 1338.2 47 1337.1 47.6 1337.1 47.6 1336.8 47.9 1336.8 47.9 1336.2 48.5 1336 49.3 1336.6 50.4L1352.7 78 1349.9 88.8 1344.5 79.5C1343.6 78.6 1342.5 78.1 1341.6 78.9 1341.4 78.7 1341.1 79 1341.1 79 1340.5 79.5 1340.5 80.7 1340.8 81.5L1348.6 94.1 1345.6 105.2 1337.6 97.4 1337.4 82.7C1337.4 81.5 1336.3 80.4 1335.2 80.4 1334.3 80.7 1333.5 81.6 1333.2 82.4L1333.6 93.5 1325.3 85.3 1325 53.7C1325 52.5 1324.1 51.7 1323 51.7 1321.9 51.7 1321 52.6 1321 53.7L1321.3 81.4 1311.3 71.6 1311.2 59.7C1311.2 58.6 1310.3 57.8 1309.2 57.8S1307.2 58.6 1307.2 59.8L1307.3 67.7 1300.2 60.7C1299.3 59.9 1298.2 59.9 1297.3 60.7 1296.5 61.6 1296.5 62.7 1297.4 63.6L1304.5 70.6 1296.3 70.9C1295.7 70.9 1295.2 70.9 1294.9 71.2 1294.6 71.5 1294.3 72.4 1294.3 72.9 1294.4 74 1295.2 74.9 1296.3 74.9L1308.5 74.5 1318.5 84.3 1290.5 84.8C1289.9 84.8 1289.4 84.8 1289.1 85.1 1288.8 85.4 1288.5 86.3 1288.6 86.8 1288.6 88 1289.4 88.8 1290.5 88.8L1322.5 88.2 1330.8 96.3 1319.8 96.1C1319.2 96.1 1318.6 96.7 1318.4 97 1318.1 97.3 1317.8 97.6 1317.8 98.1 1317.8 99.3 1319 100.4 1319.8 100.1L1334.8 100.2 1342.8 108.1 1331.8 111.3 1319 103.8C1318.1 103.5 1317 103.5 1316.4 104.1 1316.2 104.4 1316.2 104.4 1316.5 104.7 1315.6 105.5 1315.9 106.9 1317 107.5L1326.4 112.8 1315.4 116 1287.6 99.9C1286.7 99.6 1285.9 99.9 1285.3 100.4 1285 100.7 1285 100.7 1285 100.7 1284.5 101.9 1284.5 103 1285.6 103.6L1310.1 117.5 1296.5 121 1286 115.1C1284.9 114.6 1284 114.9 1283.5 115.5 1283.5 115.5 1283.2 115.7 1283.2 115.7 1282.6 116.9 1283.2 118 1283.8 118.6L1291.2 122.5 1281.3 125.1C1281 125.4 1280.7 125.7 1280.5 126 1280.2 126.2 1279.9 127.1 1279.9 127.7 1280.5 128.8 1281.3 129.6 1282.5 129L1292.3 126.4 1288.2 133.5C1287.6 134.6 1288.2 135.8 1288.8 136.3 1289.9 136.9 1291 136.3 1291.9 135.5L1297.7 124.9 1311 121.1 1297.3 145.3C1296.8 146.4 1297.1 147.8 1297.9 148.1 1299.1 148.7 1300.2 148.7 1300.8 147.5Z" fill="rgba(51, 121, 194, 0.58)"></path><path d="M1186.2 429.1L1238.2 440.2 1263.6 480.1 1216.4 482.2 1177.4 446.2C1177.4 446.2 1176.8 445.9 1176.8 445.9 1175.7 445.3 1174 445.8 1172.8 446.7 1171.3 448.1 1171.6 450.4 1173.3 451.3L1207.5 482.7 1184.6 483.8 1169.3 470.1C1169.3 470.1 1168.7 469.8 1168.7 469.8 1167.6 469.2 1165.9 469.8 1164.7 470.6 1163.3 472 1163.5 474.3 1165.2 475.2L1175.4 484.8 1158.5 485.4C1157.1 485.4 1155.3 487.4 1155.3 488.8 1155 490.8 1157.3 492 1158.7 492L1175.6 491.4 1166 501.5C1164.5 503 1164.8 505.3 1166.5 506.1 1167.9 507.6 1170.2 507.3 1171.1 505.6L1184.8 490.4 1207.4 489.8 1176 524C1174.5 525.4 1174.8 527.7 1176.5 528.6 1177.9 530.1 1180.2 529.8 1181.1 528.1L1217.1 489.1 1264.4 487 1242.3 529.6 1191.4 545.7C1189.7 546.3 1188.8 548 1189.3 549.7 1189.9 551.4 1191.6 552.3 1193.3 551.8L1238.2 537.5 1227.6 558 1208.6 564C1206.9 564.5 1206 566.3 1206.5 568 1207.1 569.7 1208.8 570.6 1210.5 570L1223.4 565.9 1215.2 581.8C1213.7 583.3 1214.9 585.3 1216.6 586.2 1218.3 587 1220 586.5 1220.9 584.8L1228.5 570 1232.6 583C1233.2 584.7 1234.9 585.6 1236.6 585S1239.2 582.8 1238.7 581L1232.7 562.1 1243.3 541.6 1257.5 586.5C1258 588.2 1259.7 589.1 1261.5 588.5 1263.2 588 1264.1 586.3 1263.5 584.6L1247.4 533.6 1269.2 491.6 1294.6 531.5 1283.6 582C1283.3 584 1284.7 585.4 1286.4 586.3 1288.4 586.6 1289.9 585.2 1290.7 583.5L1300.6 538.1 1312.9 557.5 1308.3 577.5C1308 579.5 1309.4 580.9 1311.1 581.8 1313.1 582.1 1314.5 580.7 1315.1 579.6L1317.9 565.9 1327.1 580C1328 581.2 1330.3 582.4 1331.7 581 1333.2 579.6 1334 577.9 1332.6 576.4L1323.4 562.2 1337.1 565C1339.1 565.3 1340.5 563.9 1341.1 562.8 1341.2 561.4 1340.6 559.6 1339.5 559 1339.5 559 1338.9 558.7 1338.9 558.7L1318.9 554.2 1306.6 534.8 1352 544.6C1354 544.9 1355.4 543.5 1356 542.4 1356.1 541 1355.5 539.2 1354.4 538.6 1354.4 538.6 1353.8 538.3 1353.8 538.3L1301.9 527.3 1276.4 487.4 1323.7 485.2 1362.6 521.3C1364 522.8 1366.3 522.5 1367.2 520.8 1368.7 519.4 1368.4 517.1 1366.7 516.2L1332.5 484.8 1355.5 483.7 1370.7 497.4C1372.1 498.8 1374.4 498.6 1375.3 496.9 1376.8 495.5 1376.5 493.2 1374.8 492.3L1364.6 482.7 1381.5 482.1C1383 482.1 1384.7 480.1 1384.7 478.7 1384.7 477.3 1383.9 476.1 1382.8 475.5 1382.2 475.2 1381.6 474.9 1380.8 475.2L1363.9 475.8 1373.5 465.6C1374.9 464.2 1374.7 461.9 1373 461.1 1373 461.1 1372.4 460.8 1372.4 460.8 1371.3 460.2 1369.5 460.7 1368.4 461.6L1354.7 476.8 1331.8 477.9 1363.2 443.7C1364.6 442.3 1364.4 440 1362.7 439.2 1362.7 439.2 1362.1 438.9 1362.1 438.9 1361 438.3 1359.3 438.8 1358.1 439.7L1322 478.6 1274.8 480.8 1296.6 438.8 1347.5 422.6C1349.2 422.1 1350.1 420.4 1349.5 418.6 1349 416.9 1347.3 416 1345.6 416.6L1301 430.2 1311.6 409.8 1330.6 403.8C1332.3 403.2 1333.2 401.5 1332.6 399.8S1330.4 397.2 1328.7 397.7L1315.7 401.8 1323.4 387.1C1324.3 385.3 1323.7 383.6 1322 382.7 1320.3 381.9 1318.6 382.4 1317.7 384.1L1310 398.9 1305.9 385.9C1305.7 385.1 1305.4 384.2 1304.2 383.6S1302.2 383.3 1301.4 383.6C1299.7 384.1 1298.8 385.8 1299.3 387.6L1305.3 406.5 1294.7 427 1280.5 382.1C1280.2 381.3 1280 380.4 1278.8 379.8 1278.3 379.5 1276.8 379.5 1276 379.8 1274.2 380.3 1273.4 382 1273.9 383.8L1290 434.7 1268.3 476.7 1242.8 436.8 1253.8 384.9C1253.9 383.5 1253.3 381.7 1252.2 381.2 1252.2 381.2 1251.6 380.9 1251.6 380.9 1249.6 380.5 1248.2 382 1247.6 383.1L1237.8 428.5 1225.4 409.1 1230 389.1C1230 387.7 1229.5 386 1228.4 385.4 1228.4 385.4 1227.8 385.1 1227.8 385.1 1225.8 384.8 1224.3 386.2 1223.8 387.3L1221 401 1211.7 386.9C1211.2 386.6 1210.9 385.7 1210.3 385.4 1209.2 384.8 1207.8 384.8 1206.6 385.6 1205.2 387 1204.3 388.8 1205.7 390.2L1214.9 404.4 1201.2 401.6C1199.2 401.3 1197.8 402.7 1197.2 403.8 1196.9 405.8 1198.3 407.3 1199.4 407.9L1219.4 412.4 1231.7 431.8 1186.3 422C1184.3 421.7 1182.9 423.1 1182.3 424.2 1183.1 426.8 1184.2 428.8 1186.2 429.1Z" fill="rgba(51, 121, 194, 0.58)"></path><path d="M791.4 60L800.2 64.9 794.5 68.6C793.9 68.9 793.6 69.9 793.9 70.8 794.6 71.5 795.6 71.7 796.2 71.4L803.7 66.7 811.9 71.3 796.5 80.7C795.5 81.4 795.2 82.3 795.9 82.9 796.2 83.9 797.2 84.2 798.1 83.5L815.1 73.1 822.6 77 823.2 96.5 816.9 100.6 798.3 90.2C798 90.2 797.7 90.3 797.4 90.3 797.1 90.3 796.4 90.6 796.1 90.9 795.5 91.9 795.9 92.9 796.8 93.2L813.8 102.6 805.9 107.3 797.1 102.8C797.1 102.4 796.8 102.4 796.5 102.5 795.8 102.5 795.2 102.8 794.9 103.5 794.6 104.1 794.9 105.1 795.6 105.7L802.7 109.3 793 115.4C792.4 115.7 792.1 116.7 792.4 117.6 793.1 118.2 794.1 118.5 794.7 118.2L803.8 112.5 804 119.2C804 120.2 805 120.8 805.6 120.8 806.6 120.7 807.5 120.1 807.5 119.1L807.3 110.5 815.1 105.7 815.7 123.7C815.7 124.6 816.3 125.2 817.3 125.2 818.3 125.2 818.9 124.5 818.9 123.6L818.3 103.7 824.9 99.4 842.1 108.8 842.3 116.1 825 126.9C824.1 127.3 823.8 128.5 824.5 129.2 824.8 130.1 825.8 130.1 826.7 129.7L842.4 120 842.7 129.3 834.8 134C834.2 134.3 833.9 135.6 834.3 136.2S835.9 137.1 836.9 136.8L842.8 133.1 843.2 144.3C843.2 145.3 844.2 145.9 845.1 145.8 845.8 145.8 846.7 145.2 846.7 144.2L846.3 133 852.8 136.3C853.5 136.6 854.5 136.6 855.1 135.6 855.4 135 855 133.7 854.4 133.4L846.2 129.2 846 119.9 862.2 128.7C863.2 129 864.2 128.9 864.8 128 865.1 127.3 864.7 126.1 864.1 125.8L845.8 116 845.6 108.7 862.3 98.3 869.1 102.2 869.7 122.1C869.7 123 870.4 123.6 871.4 123.6 872.3 123.6 873.3 122.9 873.2 122L872.7 104 880.8 108.3 881.1 116.9C881.1 117.9 881.8 118.5 882.7 118.5 883.7 118.4 884.3 117.8 884.3 116.8L884.1 110.1 893.5 115.3C894.2 115.6 895.4 115.2 895.7 114.6 896 113.6 896 112.6 895 112.4L885.3 106.9 891.9 102.8C892.5 102.2 892.8 101.2 892.4 100.6 892.1 100 891.5 99.7 890.8 99.7 890.8 99.7 890.5 99.7 890.2 100L881.7 105.1 873.6 100.8 889.9 90.4C890.9 90.1 891.2 89.1 890.5 88.2 890.2 87.8 889.8 87.5 889.2 87.6 888.9 87.6 888.5 87.6 888.2 87.6L870.3 99 863.8 95.3 863.2 75.8 870.5 71.5 888 80.9C889 81.5 890 81.1 890.2 80.2 890.9 79.5 890.5 78.5 889.5 77.9L873.6 69.4 881.5 64.4 889.3 68.7C889.9 69 890.9 68.6 891.5 68 891.8 67 891.8 66 890.8 65.7L884.9 62.4 893.4 57C894.4 56.7 894.3 55.7 894 54.8 893.6 54.4 893 54.1 892.4 54.2 892.4 54.2 892 54.2 891.7 54.2L882.6 59.9 882.4 51.9C882.4 51.3 881.7 50.3 880.7 50.3 879.8 50.4 879.2 51.4 879.2 52L879.5 61.9 871.6 66.9 871 47.4C871 46.5 870 45.9 869.1 45.9S867.5 46.6 867.5 47.5L868.1 69 861.5 73 844.3 63.6 844.1 55.3 861.7 44.5C862.3 43.8 862.6 42.9 862.2 41.9 861.9 41.6 861.2 41.3 860.6 41.3 860.3 41.3 860 41.4 859.7 41.7L843.9 51.4 843.7 42.2 851.5 37.1C852.2 36.8 852.4 35.8 852.1 34.9 851.4 34.2 850.5 34 849.8 34.3L843.6 38.3 843.2 28.1C843.2 27.4 842.2 26.5 841.6 26.5 840.6 26.6 839.7 27.5 839.7 28.2L840 38.4 833.8 34.8C833.5 34.8 833.2 34.8 832.9 34.8 832.2 34.8 831.6 35.1 831.3 35.5 831 36.4 831.4 37.4 832 38L840.1 42.3 840.4 51.5 824.2 42.7C823.2 42.1 822.2 42.5 821.9 43.1 821.3 44.1 821.7 45 822.3 45.7L840.5 55.4 840.8 63.7 824.1 74.1 817.3 70.5 816.7 49C816.6 48.1 816 47.5 815 47.5 814.1 47.5 813.4 48.2 813.5 49.1L814 68.6 805.9 64.1 805.6 54.2C805.6 53.5 804.6 52.6 803.6 52.6 802.7 52.6 802.1 53.6 802.1 54.3L802.3 62.3 792.9 57.1C792.6 57.1 792.6 57.1 792.2 57.1 791.6 57.1 791 57.5 790.7 57.8 790.4 58.8 790.7 59.7 791.4 60ZM840.9 67.5L842.8 66.5 844.4 67.4 858.4 75 860 75.9 860.1 77.8 860.5 93.5 860.6 95.4 859 96.4 845.5 104.8 843.9 105.9 842 105 828.3 97.4 826.4 96.4 826.3 94.5 825.9 78.9 825.8 76.9 827.7 75.9 840.9 67.5Z" fill="rgba(51, 121, 194, 0.58)"></path><path d="M968.2 469L954.7 446.3 956.3 439.1 972 434.6 977.4 439.7 977.8 466.3C977.9 466.6 977.9 466.6 977.9 466.9 978.1 467.5 978.6 468 979.6 468.1 980.5 467.8 981.1 467.3 981.1 466.3L980.7 443.1 989 451 989.3 461.3C989.3 461.3 989.4 461.6 989.4 461.6 989.6 462.2 990.1 462.7 991.1 462.8 991.8 462.9 992.5 462 992.6 461L992.6 454.3 998.7 460.2C999.2 460.8 1000.2 460.8 1001 460.2S1001.5 458.4 1000.9 457.6L995 452 1001.6 451.7C1002.6 451.8 1003.3 450.9 1003.4 449.9 1003.2 449.3 1002.6 448.4 1001.6 448.4L991.4 448.7 983 440.4 1006.2 440.1C1007.2 440.1 1007.9 439.2 1008.1 438.5 1007.8 437.6 1007.2 436.8 1006.2 436.7L979.8 437.4 974.2 432 978.1 416.5 985.5 414.4 1008.8 427C1009.5 427.5 1010.5 427.2 1010.9 426.4S1011.1 424.7 1010.3 424.3L989.8 413.2 1001.2 409.9 1009.9 414.7C1010.7 415.2 1011.6 414.9 1012.3 414S1012.5 412.3 1011.7 411.9L1005.5 408.7 1013.8 406.3C1014.7 406 1015 404.9 1014.8 404 1014.5 403.1 1013.7 402.6 1012.8 402.9L1004.5 405.3 1007.8 399.3C1008.5 398.5 1008.2 397.5 1007.1 397.2 1006.4 396.7 1005.4 397 1005 397.8L1000.2 406.5 988.8 409.8 1000.3 389.5C1000.7 388.7 1000.4 387.5 999.6 387S997.8 386.9 997.4 387.7L984.5 411 977.1 413.2 965.5 401.9 967.4 394.6 990.2 381.1C991 380.5 991.1 379.5 990.8 378.6 990.2 377.8 989.2 377.7 988.3 378L968.4 390 971.2 378.9 980.1 373.7C980.9 373.1 980.9 372.1 980.7 371.2 980.2 370.7 979.1 370.3 978.2 370.9L972.5 374.2 974.5 366C974.6 365.3 974.1 364.4 973.3 364 972.3 363.9 971.4 364.5 971.3 365.2L969.3 373.4 965.6 367.5C965.1 367 964 366.6 963.5 367.1 962.6 367.4 962.5 368.1 962.7 369 962.7 369 962.8 369.3 962.8 369.3L968 378.2 965.2 389.3 953.2 369.4C952.6 368.6 951.8 368.2 951 368.7 950.2 369.3 950 370 950.2 370.6 950.3 370.9 950.3 370.9 950.3 370.9L964.2 393.9 962.3 401.1 946.6 405.6 941.5 400.5 940.8 373.7C940.9 373 940 372.2 939.3 372.1 938.3 372.1 937.6 373 937.5 374L937.9 397.2 929.6 389.2 929.3 379C929.3 378 928.8 377.1 927.8 377.4 926.8 377.4 926.1 378.3 926 379L926.3 385.9 920.2 379.9C919.5 379.5 918.4 379.5 917.6 380 917.4 380.4 917.3 381.1 917.4 381.7 917.5 382.1 917.5 382.1 917.9 382.3L924 388.2 917.1 388.5C916 388.5 915.6 389.3 915.5 390 915.6 390.3 915.6 390.3 915.7 390.6 915.8 391.2 916.3 391.7 917 391.9L927.3 391.6 935.5 399.5 912.3 399.9C911.4 400.1 910.6 400.7 910.8 401.6 910.6 402 910.6 402 910.7 402.3 910.9 402.9 911.7 403.4 912.4 403.5L939.2 402.8 944.3 408 940.5 423.7 933.5 425.8 910.1 412.8C909.3 412.4 908.1 412.8 907.6 413.5S907.5 415.6 908.3 416L928.8 427.1 917.8 430.3 908.8 425.5C908 425.1 907 425.4 906.6 426.2 906.2 427 906.4 427.9 907.2 428.3L913.2 431.6 904.9 434C904.2 434.2 903.5 435.1 903.8 436 904 436.9 905.2 437.6 905.8 437.4L914.1 435 910.9 440.9C910.6 441.3 910.4 441.7 910.5 442 910.7 442.6 911.1 442.9 911.5 443.1 912.3 443.5 913.2 443.3 913.6 442.5L918.7 433.7 929.8 430.5 918.3 450.8C918.1 451.2 918.2 451.5 918.4 452.1 918.5 452.4 918.6 452.7 919 452.9 919.8 453.3 921 453 921.4 452.2L934.4 429.1 941.5 427.1 953 438.1 951.5 445.5 928.4 459.2C927.9 459.7 927.5 460.4 927.6 461.1 927.7 461.4 927.7 461.4 928 461.3 928.3 462.2 929.4 462.6 930.2 462L950.1 449.9 947.4 461.4 938.6 466.6C938 467.1 937.9 467.8 938.1 468.4 938.1 468.4 938.2 468.7 938.2 468.7 938.4 469.6 939.5 470 940.4 469.4L946.3 465.7 944.3 473.9C944.1 474.3 944.2 474.6 944.3 474.9 944.5 475.5 945 476.1 945.3 476 946.4 476.3 947.2 475.7 947.6 474.9L949.6 466.7 952.9 472.4C953.5 473.3 954.6 473.6 955.4 473 955.9 472.6 956.3 471.5 955.8 470.9L950.6 462.1 953.4 451 965.4 470.8C966 471.7 967 471.7 967.9 471.4 968.5 470.9 968.8 469.8 968.2 469ZM969.2 431.8L957.2 435.2 955.3 435.8 954 434.5 945.2 426 943.7 424.5 944.2 422.7 947.1 410.8 947.6 409 949.5 408.5 961.4 405 963.3 404.5 964.7 405.8 973.4 414.2 974.8 415.5 974.4 417.6 971.5 429.4 971 431.2 969.2 431.8Z" fill="rgba(51, 121, 194, 0.58)"></path></g><defs><mask id="SvgjsMask1000"><rect width="1440" height="560" fill="#ffffff"></rect></mask><filter id="SvgjsFilter1001"><feGaussianBlur stdDeviation="1"></feGaussianBlur></filter></defs></svg>