<svg xmlns="http://www.w3.org/2000/svg" version="1.1" xmlns:xlink="http://www.w3.org/1999/xlink" xmlns:svgjs="http://svgjs.com/svgjs" width="1440" height="560" preserveAspectRatio="none" viewBox="0 0 1440 560"><g mask="url(&quot;#SvgjsMask1000&quot;)" fill="none"><rect width="1440" height="560" x="0" y="0" fill="#0e2a47"></rect><path d="M740.9 56.41L735.34 67.95 722.87 65.06 717.31 76.59 704.83 73.7 699.27 85.24 686.8 82.35M737.44 49.2L731.88 60.73 719.41 57.84 713.85 69.38 701.37 66.49 695.81 78.02 683.34 75.13" stroke="#e73635" stroke-width="1" stroke-dasharray="4, 4"></path><path d="M451.32 504.7 L413.88 593.97L382.60273174396946 499.33773174396947z" stroke="#037b0b" stroke-width="1.67" stroke-dasharray="2, 2"></path><path d="M945.26 73.5 L1010.9100000000001 128.82L1027.3906667367605 51.85433326323954z" fill="#e73635"></path><circle r="46.666666666666664" cx="153.34" cy="224.64" fill="#e73635"></circle><circle r="49.93237127264244" cx="767.46" cy="68.83" stroke="#e73635" stroke-width="1" stroke-dasharray="4, 4"></circle><rect width="60" height="60" clip-path="url(&quot;#SvgjsClipPath1001&quot;)" x="-11.23" y="243.97" fill="url(#SvgjsPattern1002)" transform="rotate(355.57, 18.77, 273.97)"></rect><rect width="264" height="264" clip-path="url(&quot;#SvgjsClipPath1003&quot;)" x="180.84" y="74.71" fill="url(#SvgjsPattern1004)" transform="rotate(303.87, 312.84, 206.71)"></rect><path d="M544.25 139.08a5.6 5.6 0 1 0 3.12-10.76 5.6 5.6 0 1 0-3.12 10.76zM548.72 123.71a5.6 5.6 0 1 0 3.12-10.75 5.6 5.6 0 1 0-3.12 10.75zM553.18 108.35a5.6 5.6 0 1 0 3.13-10.75 5.6 5.6 0 1 0-3.13 10.75zM557.65 92.99a5.6 5.6 0 1 0 3.13-10.76 5.6 5.6 0 1 0-3.13 10.76zM550.67 174.27a5.6 5.6 0 1 0 3.13-10.75 5.6 5.6 0 1 0-3.13 10.75zM555.14 158.91a5.6 5.6 0 1 0 3.13-10.75 5.6 5.6 0 1 0-3.13 10.75zM559.61 143.55a5.6 5.6 0 1 0 3.13-10.76 5.6 5.6 0 1 0-3.13 10.76zM564.08 128.18a5.6 5.6 0 1 0 3.13-10.75 5.6 5.6 0 1 0-3.13 10.75z" fill="#d3b714"></path><path d="M324.86999999999995 656.06 L447.22999999999996 643.92L430.2452041051182 694.1852041051183z" stroke="#e73635" stroke-width="2.94" stroke-dasharray="3, 3"></path><rect width="121.44" height="121.44" clip-path="url(&quot;#SvgjsClipPath1005&quot;)" x="843.25" y="388.85" fill="url(#SvgjsPattern1006)" transform="rotate(19.4, 903.97, 449.57)"></rect><path d="M6.14 302.33a5.6 5.6 0 1 0-3.84 10.53 5.6 5.6 0 1 0 3.84-10.53zM0.66 317.37a5.6 5.6 0 1 0-3.83 10.52 5.6 5.6 0 1 0 3.83-10.52zM-4.82 332.4a5.6 5.6 0 1 0-3.83 10.52 5.6 5.6 0 1 0 3.83-10.52zM-10.29 347.43a5.6 5.6 0 1 0-3.84 10.53 5.6 5.6 0 1 0 3.84-10.53zM2.06 266.79a5.6 5.6 0 1 0-3.83 10.52 5.6 5.6 0 1 0 3.83-10.52zM-3.42 281.82a5.6 5.6 0 1 0-3.83 10.53 5.6 5.6 0 1 0 3.83-10.53zM-8.89 296.86a5.6 5.6 0 1 0-3.84 10.52 5.6 5.6 0 1 0 3.84-10.52zM-14.37 311.89a5.6 5.6 0 1 0-3.84 10.52 5.6 5.6 0 1 0 3.84-10.52zM-2.02 231.25a5.6 5.6 0 1 0-3.83 10.52 5.6 5.6 0 1 0 3.83-10.52zM-7.49 246.28a5.6 5.6 0 1 0-3.84 10.52 5.6 5.6 0 1 0 3.84-10.52zM-12.97 261.31a5.6 5.6 0 1 0-3.84 10.53 5.6 5.6 0 1 0 3.84-10.53zM-18.45 276.35a5.6 5.6 0 1 0-3.83 10.52 5.6 5.6 0 1 0 3.83-10.52z" stroke="#e73635" stroke-width="1" stroke-dasharray="3, 2"></path><rect width="372" height="372" clip-path="url(&quot;#SvgjsClipPath1007&quot;)" x="751" y="231.97" fill="url(#SvgjsPattern1008)" transform="rotate(257.57, 937, 417.97)"></rect></g><defs><mask id="SvgjsMask1000"><rect width="1440" height="560" fill="#ffffff"></rect></mask><pattern x="0" y="0" width="6" height="6" patternUnits="userSpaceOnUse" id="SvgjsPattern1002"><path d="M3 1L3 5M1 3L5 3" stroke="#e73635" fill="none" stroke-width="1.77"></path></pattern><clipPath id="SvgjsClipPath1001"><circle r="15" cx="18.77" cy="273.97"></circle></clipPath><pattern x="0" y="0" width="6" height="6" patternUnits="userSpaceOnUse" id="SvgjsPattern1004"><path d="M0 6L3 0L6 6" stroke="#037b0b" fill="none"></path></pattern><clipPath id="SvgjsClipPath1003"><circle r="66" cx="312.84" cy="206.71"></circle></clipPath><pattern x="0" y="0" width="10.12" height="10.12" patternUnits="userSpaceOnUse" id="SvgjsPattern1006"><path d="M5.06 1L5.06 9.12M1 5.06L9.12 5.06" stroke="#e73635" fill="none" stroke-width="1"></path></pattern><clipPath id="SvgjsClipPath1005"><circle r="30.36" cx="903.97" cy="449.57"></circle></clipPath><pattern x="0" y="0" width="372" height="6" patternUnits="userSpaceOnUse" id="SvgjsPattern1008"><rect width="372" height="3" x="0" y="0" fill="#037b0b"></rect><rect width="372" height="3" x="0" y="3" fill="rgba(0, 0, 0, 0)"></rect></pattern><clipPath id="SvgjsClipPath1007"><circle r="93" cx="937" cy="417.97"></circle></clipPath></defs></svg>