<svg xmlns="http://www.w3.org/2000/svg" version="1.1" xmlns:xlink="http://www.w3.org/1999/xlink" xmlns:svgjs="http://svgjs.com/svgjs" width="1440" height="560" preserveAspectRatio="none" viewBox="0 0 1440 560"><g mask="url(&quot;#SvgjsMask1000&quot;)" fill="none"><rect width="1440" height="560" x="0" y="0" fill="#0e2a47"></rect><path d="M 0,257 C 57.6,224.2 172.8,94 288,93 C 403.2,92 460.8,268 576,252 C 691.2,236 748.8,10.8 864,13 C 979.2,15.2 1036.8,254.2 1152,263 C 1267.2,271.8 1382.4,98.2 1440,57L1440 560L0 560z" fill="#184a7e"></path><path d="M 0,458 C 96,449.8 288,420 480,417 C 672,414 768,445.4 960,443 C 1152,440.6 1344,412.6 1440,405L1440 560L0 560z" fill="#2264ab"></path></g><defs><mask id="SvgjsMask1000"><rect width="1440" height="560" fill="#ffffff"></rect></mask></defs></svg>