<svg xmlns="http://www.w3.org/2000/svg" version="1.1" xmlns:xlink="http://www.w3.org/1999/xlink" xmlns:svgjs="http://svgjs.com/svgjs" width="1440" height="560" preserveAspectRatio="none" viewBox="0 0 1440 560"><g mask="url(&quot;#SvgjsMask1014&quot;)" fill="none"><rect width="1440" height="560" x="0" y="0" fill="#0e2a47"></rect><path d="M 0,273 C 57.6,244.2 172.8,133.4 288,129 C 403.2,124.6 460.8,269.4 576,251 C 691.2,232.6 748.8,42.8 864,37 C 979.2,31.2 1036.8,210.4 1152,222 C 1267.2,233.6 1382.4,120.4 1440,95L1440 560L0 560z" fill="#184a7e"></path><path d="M 0,305 C 32,334.4 96,447.8 160,452 C 224,456.2 256,322.6 320,326 C 384,329.4 416,472.6 480,469 C 544,465.4 576,304.2 640,308 C 704,311.8 736,480.2 800,488 C 864,495.8 896,335.8 960,347 C 1024,358.2 1056,531.6 1120,544 C 1184,556.4 1216,421.8 1280,409 C 1344,396.2 1408,465.8 1440,480L1440 560L0 560z" fill="#2264ab"></path></g><defs><mask id="SvgjsMask1014"><rect width="1440" height="560" fill="#ffffff"></rect></mask></defs></svg>