<svg xmlns="http://www.w3.org/2000/svg" version="1.1" xmlns:xlink="http://www.w3.org/1999/xlink" xmlns:svgjs="http://svgjs.com/svgjs" width="1440" height="560" preserveAspectRatio="none" viewBox="0 0 1440 560"><g mask="url(&quot;#SvgjsMask1000&quot;)" fill="none"><rect width="1440" height="560" x="0" y="0" fill="#0e2a47"></rect><g transform="translate(0, 0)" stroke-linecap="round"><path d="M260 237.53 L260 322.47" stroke-width="15" stroke="#3a7cc3"></path><path d="M280 173.85 L280 386.15" stroke-width="15" stroke="#dd1133"></path><path d="M300 114.61 L300 445.39" stroke-width="15" stroke="#3a7cc3"></path><path d="M320 127.56 L320 432.44" stroke-width="15" stroke="#3a7cc3"></path><path d="M340 113.51 L340 446.49" stroke-width="15" stroke="#3a7cc3"></path><path d="M360 221.47 L360 338.52" stroke-width="15" stroke="#dd1133"></path><path d="M380 144.44 L380 415.56" stroke-width="15" stroke="#dd1133"></path><path d="M400 240.47 L400 319.52" stroke-width="15" stroke="#dd1133"></path><path d="M420 159.92 L420 400.08" stroke-width="15" stroke="#3a7cc3"></path><path d="M440 219.43 L440 340.57" stroke-width="15" stroke="#3a7cc3"></path><path d="M460 249.83 L460 310.17" stroke-width="15" stroke="#3a7cc3"></path><path d="M480 183.17 L480 376.83" stroke-width="15" stroke="#3a7cc3"></path><path d="M500 256.44 L500 303.56" stroke-width="15" stroke="#3a7cc3"></path><path d="M520 229 L520 331" stroke-width="15" stroke="#3a7cc3"></path><path d="M540 143.11 L540 416.89" stroke-width="15" stroke="#3a7cc3"></path><path d="M560 193.32 L560 366.68" stroke-width="15" stroke="#3a7cc3"></path><path d="M580 141.57 L580 418.43" stroke-width="15" stroke="#3a7cc3"></path><path d="M600 133.34 L600 426.66" stroke-width="15" stroke="#3a7cc3"></path><path d="M620 198.27 L620 361.73" stroke-width="15" stroke="#3a7cc3"></path><path d="M640 241.78 L640 318.23" stroke-width="15" stroke="#dd1133"></path><path d="M660 149.76 L660 410.24" stroke-width="15" stroke="#dd1133"></path><path d="M680 126.49 L680 433.51" stroke-width="15" stroke="#3a7cc3"></path><path d="M700 178.78 L700 381.22" stroke-width="15" stroke="#3a7cc3"></path><path d="M720 236.12 L720 323.88" stroke-width="15" stroke="#3a7cc3"></path><path d="M740 248.66 L740 311.33" stroke-width="15" stroke="#dd1133"></path><path d="M760 248.81 L760 311.19" stroke-width="15" stroke="#3a7cc3"></path><path d="M780 232.12 L780 327.88" stroke-width="15" stroke="#dd1133"></path><path d="M800 254.51 L800 305.49" stroke-width="15" stroke="#3a7cc3"></path><path d="M820 189.67 L820 370.33" stroke-width="15" stroke="#dd1133"></path><path d="M840 157.01 L840 402.99" stroke-width="15" stroke="#3a7cc3"></path><path d="M860 177.55 L860 382.45" stroke-width="15" stroke="#dd1133"></path><path d="M880 229.93 L880 330.07" stroke-width="15" stroke="#dd1133"></path><path d="M900 130.62 L900 429.38" stroke-width="15" stroke="#3a7cc3"></path><path d="M920 230.91 L920 329.08" stroke-width="15" stroke="#dd1133"></path><path d="M940 199.69 L940 360.31" stroke-width="15" stroke="#dd1133"></path><path d="M960 227.32 L960 332.68" stroke-width="15" stroke="#dd1133"></path><path d="M980 178.25 L980 381.75" stroke-width="15" stroke="#dd1133"></path><path d="M1000 165.81 L1000 394.19" stroke-width="15" stroke="#dd1133"></path><path d="M1020 137.57 L1020 422.43" stroke-width="15" stroke="#dd1133"></path><path d="M1040 248.28 L1040 311.73" stroke-width="15" stroke="#dd1133"></path><path d="M1060 158.22 L1060 401.77" stroke-width="15" stroke="#3a7cc3"></path><path d="M1080 231.47 L1080 328.53" stroke-width="15" stroke="#3a7cc3"></path><path d="M1100 176.66 L1100 383.34" stroke-width="15" stroke="#3a7cc3"></path><path d="M1120 247.16 L1120 312.85" stroke-width="15" stroke="#3a7cc3"></path><path d="M1140 116.4 L1140 443.61" stroke-width="15" stroke="#3a7cc3"></path><path d="M1160 186.29 L1160 373.71" stroke-width="15" stroke="#dd1133"></path><path d="M1180 140.67 L1180 419.33" stroke-width="15" stroke="#dd1133"></path></g></g><defs><mask id="SvgjsMask1000"><rect width="1440" height="560" fill="#ffffff"></rect></mask></defs></svg>