<svg xmlns="http://www.w3.org/2000/svg" version="1.1" xmlns:xlink="http://www.w3.org/1999/xlink" xmlns:svgjs="http://svgjs.com/svgjs" width="1440" height="560" preserveAspectRatio="none" viewBox="0 0 1440 560"><g mask="url(&quot;#SvgjsMask1000&quot;)" fill="none"><rect width="1440" height="560" x="0" y="0" fill="#1e3266"></rect><path d="M1464 560L0 560 L0 375.45Q37.12 292.57, 120 329.69Q195.9 285.59, 240 361.48Q244.85 294.33, 312 299.17Q380.54 247.71, 432 316.24Q488.78 301.02, 504 357.8Q529.44 263.25, 624 288.69Q667.85 260.53, 696 304.38Q764.5 252.88, 816 321.39Q889.14 274.53, 936 347.67Q938.23 277.9, 1008 280.13Q1046.31 246.44, 1080 284.74Q1146.18 278.93, 1152 345.11Q1219.32 292.43, 1272 359.74Q1276.05 291.79, 1344 295.84Q1396.57 228.41, 1464 280.98z" fill="#182f5d"></path><path d="M1464 560L0 560 L0 423.54Q35.82 387.36, 72 423.18Q115.37 346.55, 192 389.91Q258.76 336.68, 312 403.44Q357.19 376.63, 384 421.82Q384.63 350.45, 456 351.08Q502.64 325.72, 528 372.36Q591.98 364.34, 600 428.32Q648.53 356.85, 720 405.37Q740.12 353.49, 792 373.61Q875.54 337.15, 912 420.69Q955.85 344.53, 1032 388.38Q1078.78 315.16, 1152 361.95Q1234.5 324.45, 1272 406.96Q1323.7 338.66, 1392 390.36Q1453.78 380.14, 1464 441.92z" fill="#25467d"></path><path d="M1464 560L0 560 L0 462.64Q16.08 406.72, 72 422.79Q116.19 394.98, 144 439.17Q185.76 408.93, 216 450.69Q293.63 408.31, 336 485.94Q346.28 424.22, 408 434.5Q481.5 388, 528 461.49Q591.83 453.32, 600 517.15Q615.26 412.41, 720 427.68Q791.34 379.02, 840 450.36Q898.26 436.63, 912 494.89Q937.46 400.35, 1032 425.81Q1111.03 384.84, 1152 463.86Q1194.34 434.2, 1224 476.54Q1302.8 435.34, 1344 514.13Q1391.15 441.28, 1464 488.44z" fill="#356cb1"></path><path d="M1512 560L0 560 L0 561.77Q54.18 495.95, 120 550.13Q168.28 526.41, 192 574.7Q194.3 505, 264 507.3Q294.94 466.24, 336 497.17Q411.29 452.46, 456 527.75Q517.35 517.1, 528 578.44Q557.09 487.53, 648 516.61Q690.29 486.9, 720 529.19Q771.18 508.38, 792 559.56Q820.71 468.26, 912 496.97Q990.08 455.05, 1032 533.13Q1116.51 497.64, 1152 582.15Q1152.86 511.01, 1224 511.87Q1254.58 470.44, 1296 501.02Q1350.85 483.87, 1368 538.71Q1415.79 514.5, 1440 562.3Q1450.96 501.25, 1512 512.21z" fill="white"></path></g><defs><mask id="SvgjsMask1000"><rect width="1440" height="560" fill="#ffffff"></rect></mask></defs></svg>