<svg xmlns="http://www.w3.org/2000/svg" version="1.1" xmlns:xlink="http://www.w3.org/1999/xlink" xmlns:svgjs="http://svgjs.com/svgjs" width="1440" height="250" preserveAspectRatio="none" viewBox="0 0 1440 250"><g mask="url(&quot;#SvgjsMask1003&quot;)" fill="none"><rect width="1440" height="250" x="0" y="0" fill="rgba(185, 217, 168, 1)"></rect><path d="M41 250L291 0L489 0L239 250z" fill="url(#SvgjsLinearGradient1004)"></path><path d="M259.6 250L509.6 0L727.1 0L477.1 250z" fill="url(#SvgjsLinearGradient1004)"></path><path d="M513.2 250L763.2 0L1046.7 0L796.7 250z" fill="url(#SvgjsLinearGradient1004)"></path><path d="M748.8000000000001 250L998.8000000000001 0L1306.3000000000002 0L1056.3000000000002 250z" fill="url(#SvgjsLinearGradient1004)"></path><path d="M1411 250L1161 0L1102.5 0L1352.5 250z" fill="url(#SvgjsLinearGradient1005)"></path><path d="M1196.4 250L946.4000000000001 0L763.4000000000001 0L1013.4000000000001 250z" fill="url(#SvgjsLinearGradient1005)"></path><path d="M916.8 250L666.8 0L617.3 0L867.3 250z" fill="url(#SvgjsLinearGradient1005)"></path><path d="M681.1999999999999 250L431.19999999999993 0L339.69999999999993 0L589.6999999999999 250z" fill="url(#SvgjsLinearGradient1005)"></path><path d="M1211.647810370806 250L1440 21.64781037080604L1440 250z" fill="url(#SvgjsLinearGradient1004)"></path><path d="M0 250L228.35218962919396 250L 0 21.64781037080604z" fill="url(#SvgjsLinearGradient1005)"></path></g><defs><mask id="SvgjsMask1003"><rect width="1440" height="250" fill="#ffffff"></rect></mask><linearGradient x1="0%" y1="100%" x2="100%" y2="0%" id="SvgjsLinearGradient1004"><stop stop-color="rgba(15, 70, 185, 0.2)" offset="0"></stop><stop stop-opacity="0" stop-color="rgba(15, 70, 185, 0.2)" offset="0.66"></stop></linearGradient><linearGradient x1="100%" y1="100%" x2="0%" y2="0%" id="SvgjsLinearGradient1005"><stop stop-color="rgba(15, 70, 185, 0.2)" offset="0"></stop><stop stop-opacity="0" stop-color="rgba(15, 70, 185, 0.2)" offset="0.66"></stop></linearGradient></defs></svg>